<svg width="482" height="312" viewBox="0 0 482 312" fill="none" xmlns="http://www.w3.org/2000/svg">
<path d="M186.497 308.505C186.497 306.728 188.293 305.287 190.509 305.287C192.725 305.287 194.521 306.728 194.521 308.505C194.521 310.282 192.725 311.723 190.509 311.723C188.293 311.723 186.497 310.282 186.497 308.505Z" fill="#724149"/>
<path d="M214.764 308.505C214.764 306.728 216.56 305.287 218.776 305.287C220.992 305.287 222.788 306.728 222.788 308.505C222.788 310.282 220.992 311.723 218.776 311.723C216.56 311.723 214.764 310.282 214.764 308.505Z" fill="#724149"/>
<path d="M240.687 308.505C240.687 306.728 242.483 305.287 244.699 305.287C246.915 305.287 248.711 306.728 248.711 308.505C248.711 310.282 246.915 311.723 244.699 311.723C242.483 311.723 240.687 310.282 240.687 308.505Z" fill="#724149"/>
<path d="M211.678 256.176H221.67L220.004 265.384H213.344L211.678 256.176Z" fill="#724149"/>
<path d="M215.566 286.772H217.782V262.414H215.566V286.772Z" fill="#724149"/>
<path d="M212.542 298.703H220.807V283.504H212.542V298.703Z" fill="#724149"/>
<path d="M192.162 305.074C193.748 302.328 209.177 296.723 216.676 296.722C224.174 296.721 239.604 302.324 241.188 305.07L192.162 305.074Z" fill="#724149"/>
<path d="M236.852 252.532C235.548 255.045 227.023 256.988 216.678 256.988C206.332 256.988 197.808 255.046 196.504 252.532H236.852Z" fill="#724149"/>
<path d="M220.818 154.233H260.163C262.434 154.233 262.723 173.36 260.809 196.955C258.895 220.55 255.502 239.677 253.231 239.677H213.885C211.614 239.677 211.324 220.55 213.239 196.955C215.153 173.36 218.546 154.233 220.818 154.233Z" fill="#E5892C"/>
<path d="M195.591 246.225H241.096C243.119 246.225 244.76 247.865 244.76 249.888C244.76 251.911 243.12 253.552 241.096 253.552H195.591C193.568 253.552 191.928 251.912 191.928 249.888C191.928 247.866 193.568 246.225 195.591 246.225Z" fill="#EDB137"/>
<path d="M249.053 162.734C252.305 169.535 256.087 175.167 259.651 178.923C260.212 165.009 259.808 155.043 258.517 155.043H245.831C246.739 157.554 247.812 160.137 249.053 162.734Z" fill="#EDB137"/>
<path d="M221.64 109.006C219.26 100.46 205.003 101.583 200.341 104.386C195.769 107.135 194.023 112.034 198.761 119.797L217.47 137.753C222.209 132.018 223.992 117.451 221.64 109.006Z" fill="#7C3548"/>
<path d="M221.641 109.006C221.037 106.839 219.666 105.298 217.885 104.244C217.788 105.524 211.893 106.789 211.235 108.04C208.777 112.712 203.275 120.691 196.718 115.603C197.176 116.898 197.844 118.292 198.762 119.796L217.471 137.752C222.21 132.018 223.993 117.451 221.641 109.006Z" fill="#66293C"/>
<path d="M173.973 195.536C176.586 176.074 184.074 154.727 188.962 151.467C193.85 148.207 194.537 210.585 194.537 210.585C194.537 210.585 172.778 204.438 173.973 195.536Z" fill="#E8E7D6"/>
<path d="M180.806 197.491C180.806 197.491 179.303 203.353 177.311 202.219C183.158 207.367 194.537 210.584 194.537 210.584C194.537 210.584 193.85 148.206 188.962 151.466C188.32 151.895 187.632 152.643 186.917 153.651C183.563 167.572 180.806 197.491 180.806 197.491Z" fill="#E0D8C6"/>
<path d="M184.552 247.33H224.957L224.375 218.93L204.935 216.008L162.256 224.217L184.552 247.33Z" fill="#423834"/>
<path d="M162.549 305.074C179.809 277.069 181.905 256.713 184.923 249.33C187.941 241.947 184.755 227.17 182.798 225.133C180.841 223.096 164.026 221.823 159.274 225.642C154.522 229.461 160.926 305.073 160.926 305.073H162.549V305.074Z" fill="#4F4540"/>
<path d="M220.087 246.805H233.562C242.166 246.805 248.625 240.865 248.283 233.266L245.161 219.333L233.691 216.008L205.151 223.932L220.087 246.805Z" fill="#423834"/>
<path d="M211.073 305.074C226.848 276.8 230.362 257.265 232.989 249.811C235.615 242.357 229.148 226.421 227.083 224.364C225.018 222.308 208.135 221.022 203.586 224.878C199.037 228.733 209.45 305.073 209.45 305.073H211.073V305.074Z" fill="#5B514B"/>
<path d="M227.082 224.364C225.685 222.973 217.513 221.941 210.96 222.609C214.61 227.766 214.566 239.235 214.06 244.429C213.294 252.295 218.825 268.454 210.274 299.682L208.783 300.05C209.195 303.211 209.449 305.075 209.449 305.075H211.072C226.847 276.801 230.361 257.266 232.988 249.812C235.615 242.357 229.147 226.421 227.082 224.364Z" fill="#423834"/>
<path d="M219.376 311.723H203.395C203.395 311.723 208.243 304.194 210.233 303.415C212.224 302.636 219.376 311.723 219.376 311.723Z" fill="#D8D6C3"/>
<path d="M166.75 311.723H146.187C146.187 311.723 159.501 303.24 161.791 303.499C164.201 303.771 166.75 311.723 166.75 311.723Z" fill="#D8D6C3"/>
<path d="M199.046 217.933L221.054 221.116L232.777 209.884L230.008 146.586C230.008 146.586 220.15 140.591 217.264 140.066C214.378 139.541 200.128 140.066 195.438 149.515C190.748 158.964 199.046 217.933 199.046 217.933Z" fill="#556C87"/>
<path d="M230.008 146.586C230.008 146.586 220.15 140.591 217.264 140.066C214.378 139.541 200.128 140.066 195.438 149.515C195.061 150.275 194.776 151.384 194.556 152.728C199.72 154.786 207.655 155.614 216.408 154.638C221.545 154.065 226.261 152.942 230.222 151.483L230.008 146.586Z" fill="#425A72"/>
<path d="M200.546 143.898C198.453 145.276 196.634 147.105 195.438 149.515C190.748 158.964 199.046 217.933 199.046 217.933L212.416 219.867C200.252 214.669 196.563 156.394 200.546 143.898Z" fill="#425A72"/>
<path d="M227.911 148.119C225.586 149.456 223.459 151.228 221.857 153.565C215.575 162.726 213.938 219.898 213.938 219.898L226.982 221.773C215.695 216.733 221.823 160.234 227.911 148.119Z" fill="#425A72"/>
<path d="M232.737 273.927C223.993 263.253 212.585 256.254 212.585 256.254C212.585 256.254 210.97 223.358 213.342 221.958C215.714 220.558 229.048 215.484 229.048 215.484L246.153 217.671C246.153 217.671 252.764 237.706 249.324 244.181C247.099 248.369 234.612 248.206 234.612 248.206L232.737 273.927Z" fill="#D3C9B6"/>
<path d="M150.952 213.744C147.178 211.125 147.166 198.126 149.329 193.927C152.755 193.301 183.076 189.777 187.915 191.343C196.57 194.145 195.848 205.752 192.603 208.639C187.342 213.317 157.599 215.305 150.952 213.744Z" fill="#E8E7D6"/>
<path d="M187.915 191.343C187.119 191.085 183.526 189.834 181.581 189.816C180.091 207.191 159.609 207.563 148.24 207.594C148.689 210.41 149.565 212.781 150.952 213.744C157.599 215.305 187.342 213.317 192.603 208.639C195.848 205.752 196.569 194.146 187.915 191.343Z" fill="#E0D8C6"/>
<path d="M199.368 144.52C193.362 158.868 201.315 218.371 200.328 219.246C199.341 220.121 164.768 223.651 164.768 223.651L189.934 215.026C189.934 215.026 182.247 190.312 185.714 156.191C186.149 151.917 199.368 144.52 199.368 144.52Z" fill="#E8E7D6"/>
<path d="M198.979 145.613C199.104 145.233 199.228 144.852 199.367 144.519C199.367 144.519 199.077 144.682 198.617 144.952C198.738 145.169 198.86 145.385 198.979 145.613Z" fill="#D3C9B6"/>
<path d="M199.847 214.709C194.159 215.259 187.926 198.929 185.925 178.234C185.128 169.992 185.125 162.306 185.766 155.999C185.755 156.062 185.721 156.129 185.715 156.19C182.248 190.311 189.935 215.025 189.935 215.025L164.768 223.65C164.768 223.65 199.341 220.12 200.328 219.245C200.487 219.104 200.411 217.411 200.2 214.641C200.083 214.668 199.967 214.697 199.847 214.709Z" fill="#D3C9B6"/>
<path d="M218.144 220.33L215.149 213.386C215.149 213.386 218.141 155.086 227.521 144.237C227.521 144.237 231.666 145.024 236.716 149.924C241.767 154.824 242.156 200.086 242.156 200.086L228.491 215.293L218.144 220.33Z" fill="#E8E7D6"/>
<path d="M242.156 200.085C242.156 200.085 241.507 159.197 236.456 154.297C233.712 151.635 229.17 161.815 229.036 170.363C228.695 192.121 224.7 200.643 219.102 204.3C218.125 213.392 214.604 212.025 214.604 212.025L218.145 220.33L247.359 221.708L242.156 200.085Z" fill="#D3C9B6"/>
<path d="M202.506 143.01C203.769 136.186 203.408 128.312 203.408 128.312L216.756 122.013L219.92 141.309C216.137 147.456 204.904 149.498 202.506 143.01Z" fill="#D27558"/>
<path d="M201.228 143.167L202.71 141.808C202.71 141.808 203.882 146.026 207.456 145.924C211.03 145.822 216.374 144.052 219.744 139.661L223.399 142.803L214.094 152.153L207.763 148.069L202.351 151.745L201.228 143.167Z" fill="#5C7793"/>
<path d="M255.685 206.209C254.603 184.861 241.477 152.483 235.779 149.223C232.813 147.526 228.899 162.833 230.67 179.076C232.301 194.039 239.52 209.982 239.52 209.982C239.52 209.982 256.141 215.203 255.685 206.209Z" fill="#E8E7D6"/>
<path d="M199.982 140.311C197.443 138.054 196.023 111.615 197.917 109.468C199.811 107.322 208.65 107.195 211.554 110.352C214.458 113.509 215.721 123.989 215.721 126.893C215.721 129.797 213.574 138.636 212.69 140.025C211.806 141.414 201.118 141.321 199.982 140.311Z" fill="#EDB984"/>
<path d="M217.825 116.467L212.859 108.08C208.397 110.783 211.344 126.252 211.344 126.252L215.3 125.6C215.3 125.6 218.077 119.542 217.825 116.467Z" fill="#66293C"/>
<path d="M213.702 131.523C212.751 126.324 215.186 120.021 217.861 121.806C220.829 123.786 220.175 127.716 218.517 129.555C217.046 131.186 213.702 131.523 213.702 131.523Z" fill="#EDB984"/>
<path d="M214.974 129.402C214.426 126.403 215.83 122.767 217.373 123.796C219.085 124.938 218.708 127.205 217.751 128.266C216.903 129.207 214.974 129.402 214.974 129.402Z" fill="#D27558"/>
<path d="M214.682 130.244C214.31 128.208 215.263 125.739 216.311 126.438C217.473 127.213 217.217 128.753 216.568 129.473C215.992 130.112 214.682 130.244 214.682 130.244Z" fill="#EDB984"/>
<path d="M235.78 149.223C235.481 149.052 235.173 149.062 234.862 149.219C240.649 161.288 247.047 181.095 247.789 195.725C248.095 201.756 240.724 201.394 235.833 200.502C237.79 206.157 239.52 209.982 239.52 209.982C239.52 209.982 256.141 215.202 255.685 206.209C254.603 184.862 241.477 152.484 235.78 149.223Z" fill="#E0D8C6"/>
<path d="M212.033 212.334C208.258 209.411 208.245 196.411 210.41 192.386C213.837 192.036 244.171 190.955 249.011 192.911C257.669 196.411 256.948 207.959 253.701 210.584C248.438 214.838 218.683 214.431 212.033 212.334Z" fill="#E8E7D6"/>
<path d="M249.011 192.911C248.703 192.787 248.29 192.675 247.79 192.574C248.277 196.216 247.287 199.745 245.668 201.054C241.285 204.597 219.926 204.905 209.061 203.699C209.355 207.475 210.288 210.983 212.033 212.335C218.683 214.432 248.438 214.84 253.701 210.585C256.948 207.959 257.669 196.41 249.011 192.911Z" fill="#E0D8C6"/>
<path d="M216.399 202.054C215.733 197.136 213.064 193.438 210.437 193.794C207.81 194.15 206.221 198.425 206.887 203.343C207.553 208.261 210.222 211.959 212.849 211.603C215.476 211.247 217.066 206.972 216.399 202.054Z" fill="#6785A3"/>
<path d="M154.471 203.389C153.282 198.542 151.592 194.867 148.966 195.223C146.339 195.579 145.174 199.796 146.362 204.644C147.55 209.491 150.643 213.132 153.27 212.776C155.896 212.421 155.659 208.237 154.471 203.389Z" fill="#6785A3"/>
<path d="M182.799 225.133C182.438 224.757 181.565 224.408 180.36 224.111C180.149 230.259 179.539 236.912 178.485 243.824C174.87 267.533 167.217 286.844 159.935 292.291C160.493 299.941 160.928 305.074 160.928 305.074H162.551C179.811 277.069 184.352 257.721 187.369 250.338C190.387 242.954 184.756 227.17 182.799 225.133Z" fill="#423834"/>
<path d="M187.885 152.722C190.749 153.528 193.965 154.145 197.461 154.545C197.8 150.325 198.401 146.831 199.369 144.52C199.369 144.52 191.739 148.794 187.885 152.722Z" fill="#D3C9B6"/>
<path d="M236.716 149.923C231.665 145.024 227.521 144.236 227.521 144.236C225.866 146.151 224.413 149.563 223.137 153.854C228.226 153.075 232.997 151.963 237.319 150.603C237.162 150.423 237.005 150.247 236.855 150.095C236.808 150.043 236.764 149.969 236.716 149.923Z" fill="#D3C9B6"/>
<path d="M209.249 209.029H188.191C188.191 209.029 193.004 201.057 197.517 198.65C202.029 196.244 210.792 196.639 210.792 196.639C213.268 199.654 214.623 202.939 213.379 206.85L209.249 209.029Z" fill="#EDB984"/>
<path d="M210.254 209.029H203.807C203.807 209.029 205.281 206.588 206.662 205.852C207.273 205.526 208.138 205.368 208.913 205.293C210.592 205.13 213.873 205.237 213.379 206.851L211.518 208.362L210.254 209.029Z" fill="#E79B69"/>
<path d="M147.982 209.029H126.924C126.924 209.029 131.737 201.057 136.25 198.65C140.762 196.244 149.525 196.639 149.525 196.639C152.001 199.654 153.356 202.939 152.112 206.85L147.982 209.029Z" fill="#EDB984"/>
<path d="M206.48 122.012C206.392 120.381 207.081 118.967 208.019 118.855C208.956 118.742 209.787 119.974 209.875 121.605C209.963 123.236 209.274 124.65 208.337 124.763C207.398 124.874 206.568 123.643 206.48 122.012Z" fill="#5A4949"/>
<path d="M206.523 114.15L211.938 115.003C212.393 115.074 212.708 115.513 212.641 115.981L212.388 117.749C212.321 118.218 211.897 118.541 211.442 118.469L206.027 117.616C205.572 117.544 205.257 117.106 205.324 116.637L205.577 114.869C205.643 114.401 206.067 114.079 206.523 114.15Z" fill="#7C3548"/>
<path d="M198.317 122.242C198.348 120.607 199.137 119.248 200.078 119.208C201.019 119.167 201.758 120.46 201.726 122.096C201.695 123.731 200.906 125.09 199.965 125.131C199.024 125.171 198.285 123.877 198.317 122.242Z" fill="#5A4949"/>
<path d="M196.049 116.036L200.271 114.061C200.626 113.895 201.046 114.14 201.21 114.607L201.826 116.371C201.989 116.839 201.834 117.353 201.479 117.519L197.257 119.494C196.902 119.66 196.482 119.416 196.319 118.948L195.702 117.184C195.538 116.716 195.694 116.202 196.049 116.036Z" fill="#7C3548"/>
<path d="M204.164 122.371C203.115 125.793 202.787 127.941 203.79 128.626C204.416 129.054 205.307 128.83 206.01 128.529L206.028 128.591C206.028 128.591 203.871 130.039 202.781 129.419C201.7 128.805 202.471 126.355 204.164 122.371Z" fill="#D27558"/>
<path d="M208.289 130.959L208.739 132.102C208.63 132.189 206.016 134.255 201.596 133.571L201.751 133.012C205.805 133.638 208.264 130.979 208.289 130.959Z" fill="#D27558"/>
<path d="M203.765 136.009C203.869 136.353 204.623 136.425 205.451 136.169C206.278 135.913 206.865 135.427 206.762 135.083C206.659 134.739 205.904 134.667 205.076 134.923C204.248 135.178 203.661 135.665 203.765 136.009Z" fill="#D27558"/>
<path d="M141.976 209.029H136.733C136.733 209.029 137.932 207.044 139.055 206.445C139.552 206.18 140.255 206.052 140.886 205.991C142.252 205.859 144.92 205.946 144.519 207.258L143.004 208.487L141.976 209.029Z" fill="#E79B69"/>
<path d="M322.288 230.799H319.125L315.097 244.975H318.26L322.288 230.799Z" fill="#54464B"/>
<path d="M325.366 232.719C325.727 229.694 323.758 227.241 320.967 227.241C318.176 227.241 315.621 229.693 315.26 232.719C314.899 235.744 316.868 238.197 319.659 238.197C322.449 238.197 325.004 235.744 325.366 232.719Z" fill="#54464B"/>
<path d="M320.266 247.436C320.591 244.713 318.818 242.506 316.307 242.506C313.795 242.506 311.495 244.713 311.17 247.436C310.845 250.159 312.617 252.366 315.129 252.366C317.641 252.367 319.941 250.159 320.266 247.436Z" fill="#54464B"/>
<path d="M295.482 261.159H292.905V293.323H295.482V261.159Z" fill="#54464B"/>
<path d="M289.827 265.546L298.533 265.545L300.875 255.31L287.526 255.311L289.827 265.546Z" fill="#54464B"/>
<path d="M297.36 289.209H291.03L289.342 299.443H299.048L297.36 289.209Z" fill="#54464B"/>
<path d="M327.542 237.958H300.525C297.587 237.958 295.051 234.938 295.319 231.739C296.922 212.588 304.641 155.794 339.828 155.794C377.287 155.794 341.468 220.159 332.74 234.952C331.62 236.851 329.706 237.958 327.542 237.958Z" fill="#A84C82"/>
<path d="M294.686 298.127C282.567 298.127 272.742 300.614 272.742 303.683C272.742 303.732 272.752 303.781 272.757 303.829H316.615C316.62 303.78 316.63 303.732 316.63 303.683C316.629 300.615 306.805 298.127 294.686 298.127Z" fill="#54464B"/>
<path d="M294.687 257.013C308.204 257.013 319.162 254.526 319.162 251.457C319.162 248.389 308.204 245.901 294.687 245.901C281.17 245.901 270.212 248.389 270.212 251.457C270.212 254.526 281.17 257.013 294.687 257.013Z" fill="#54464B"/>
<path d="M321.506 243.124H267.446C264.701 243.124 262.475 245.349 262.475 248.095C262.475 250.84 264.701 253.066 267.446 253.066H321.506C324.251 253.066 326.477 250.841 326.477 248.095C326.477 245.349 324.251 243.124 321.506 243.124Z" fill="#A84C82"/>
<path d="M298.907 307.191C298.907 304.688 296.955 302.659 294.546 302.659C292.138 302.659 290.185 304.688 290.185 307.191C290.185 309.694 292.137 311.723 294.546 311.723C296.955 311.723 298.907 309.694 298.907 307.191Z" fill="#54464B"/>
<path d="M320.005 307.191C320.005 304.688 318.053 302.659 315.644 302.659C313.236 302.659 311.283 304.688 311.283 307.191C311.283 309.694 313.235 311.723 315.644 311.723C318.053 311.723 320.005 309.694 320.005 307.191Z" fill="#54464B"/>
<path d="M276.962 307.191C276.962 304.688 275.01 302.659 272.601 302.659C270.193 302.659 268.241 304.688 268.241 307.191C268.241 309.694 270.193 311.723 272.601 311.723C275.01 311.723 276.962 309.694 276.962 307.191Z" fill="#54464B"/>
<path d="M338.945 156.417C333.297 156.417 328.473 158.119 324.348 160.988C324.542 161.985 324.749 162.986 324.982 163.996C329.259 182.6 338.563 196.642 346.618 197.381C354.642 178.034 359.099 156.417 338.945 156.417Z" fill="#C661A0"/>
<path d="M311.949 147.587C311.546 144.948 310.038 142.58 308.487 140.356C306.858 138.022 304.91 135.585 302.143 134.878C303.95 128.504 301.522 121.026 296.177 116.745C290.831 112.464 282.869 111.69 277.059 114.961C276.436 115.311 275.823 115.709 275.116 115.856C274.539 115.976 273.936 115.922 273.343 115.899C270.692 115.796 267.977 116.371 265.865 117.878C263.752 119.385 262.327 121.898 262.5 124.502C259.893 125.411 257.74 127.432 256.701 129.947C255.661 132.463 255.75 135.436 256.939 137.957C258.417 141.089 261.358 143.302 264.2 145.35L266.908 146.823C265.75 151.298 267.119 156.295 270.061 160.033C273.003 163.771 277.384 166.292 282.003 167.468C283.667 167.892 285.415 168.151 287.071 167.802C288.728 167.452 290.284 166.4 290.844 164.835C294.531 165.274 298.274 165.092 301.86 164.3C303.021 164.044 304.187 163.715 305.169 163.07C306.603 162.127 307.509 160.606 308.369 159.134C310.436 155.592 312.577 151.699 311.949 147.587Z" fill="#914347"/>
<path d="M311.949 147.587C311.546 144.948 310.038 142.58 308.487 140.356C306.858 138.022 304.91 135.585 302.143 134.878C303.949 128.504 301.522 121.026 296.177 116.745C295.524 116.222 294.832 115.754 294.11 115.337C294.333 117.825 294.055 120.363 293.212 122.725C290.91 129.175 284.634 133.911 278.019 134.283C278.254 137.129 276.587 139.766 274.912 142.068C273.317 144.26 271.57 146.459 269.207 147.7C268.366 148.142 267.485 148.43 266.584 148.623C266.145 152.599 267.507 156.79 270.06 160.033C273.002 163.771 277.383 166.292 282.002 167.468C283.666 167.892 285.414 168.151 287.07 167.802C288.727 167.452 290.283 166.4 290.842 164.835C294.53 165.274 298.273 165.092 301.859 164.3C303.02 164.044 304.186 163.715 305.168 163.069C306.602 162.126 307.508 160.605 308.368 159.133C310.436 155.592 312.577 151.699 311.949 147.587Z" fill="#723137"/>
<path d="M276.016 196.93C275.119 186.293 278.327 159.364 286.818 156.269C295.309 153.173 294.566 191.398 286.409 200.289C281.349 205.805 276.016 196.93 276.016 196.93Z" fill="#D3C9B6"/>
<path d="M269.985 161.612C269.179 157.81 269.675 153.422 268.452 152.66C267.228 151.898 262.074 154.374 263.807 157.94C265.54 161.505 269.381 165.454 269.381 165.454L269.985 161.612Z" fill="#EDB984"/>
<path d="M270.429 160.919C270.431 156.657 274.06 149.716 273.308 149.198C272.593 148.705 267.775 156.59 267.899 157.944C268.028 159.35 270.429 162.637 270.429 160.919Z" fill="#EDB984"/>
<path d="M270.451 158.256C267.149 152.163 268.938 145.965 268.443 145.438C267.948 144.911 265.835 149.648 266.846 153.678C267.858 157.709 270.451 158.256 270.451 158.256Z" fill="#EDB984"/>
<path d="M268.884 159.424C264.994 153.758 265.892 146.408 265.231 145.853C264.578 145.305 263.477 151.014 265.04 154.87C266.457 158.367 268.884 159.424 268.884 159.424Z" fill="#EDB984"/>
<path d="M267.028 161.307C263.017 155.02 263.512 149.315 263.069 149.012C262.644 148.721 261.825 152.708 263.066 156.133C264.51 160.12 267.028 161.307 267.028 161.307Z" fill="#EDB984"/>
<path d="M270.696 203.164C266.814 203.344 262.564 202.144 261.614 203.228C260.665 204.312 262.274 209.799 266.073 208.666C269.872 207.533 274.389 204.382 274.389 204.382L270.696 203.164Z" fill="#EDB984"/>
<path d="M270.418 201.271C266.16 201.492 259.023 198.225 258.547 199.005C258.095 199.746 266.242 204.152 267.588 203.957C268.985 203.755 272.134 201.182 270.418 201.271Z" fill="#EDB984"/>
<path d="M267.46 202.161C260.913 204.434 255.086 201.665 254.486 202.068C253.885 202.471 258.218 205.322 262.359 204.977C266.5 204.632 267.46 202.161 267.46 202.161Z" fill="#EDB984"/>
<path d="M268.359 203.897C262.139 206.819 255.031 204.743 254.376 205.306C253.729 205.862 259.185 207.871 263.243 206.953C266.923 206.121 268.359 203.897 268.359 203.897Z" fill="#EDB984"/>
<path d="M269.917 206.033C263.063 208.974 257.514 207.563 257.143 207.95C256.787 208.322 260.589 209.776 264.17 209.106C268.338 208.325 269.917 206.033 269.917 206.033Z" fill="#EDB984"/>
<path d="M272.756 159.973L264.715 162.091L265.663 166.989L273.704 164.871L272.756 159.973Z" fill="#805E9E"/>
<path d="M280.922 201.075C282.326 194.268 276.449 172.102 275.108 161.854L264.099 164.646C264.099 164.646 267.328 201.159 270.811 203.993C271.834 204.825 279.518 207.882 280.922 201.075Z" fill="#E8E7D6"/>
<path d="M275.108 161.854L269.733 163.217C271.888 174.121 274.967 187.985 273.909 193.118C273.181 196.65 270.763 197.517 268.461 197.427C269.206 200.844 270.001 203.334 270.811 203.993C271.834 204.825 279.518 207.882 280.922 201.075C282.325 194.268 276.449 172.102 275.108 161.854Z" fill="#E0D8C6"/>
<path d="M284.346 220.83L257.268 225.157C257.268 225.157 252.736 254.405 275.12 308.385H276.115L274.674 242.997L306.782 239.658L306.258 227.415L284.346 220.83Z" fill="#54464B"/>
<path d="M306.782 239.658L306.258 227.415L284.346 220.83L267.159 223.576C264.679 229.226 265.649 237.233 265.649 247.381C265.649 261.083 267.916 275.082 265.334 281.22C267.822 289.427 271.015 298.486 275.119 308.384H276.114L274.673 242.996L306.782 239.658Z" fill="#42363B"/>
<path d="M289.659 222.407L268.22 225.746C268.22 225.746 263.498 254.405 278.442 308.385H279.36L286.931 242.997L313.905 239.658L312.28 225.096L289.659 222.407Z" fill="#54464B"/>
<path d="M312.281 225.097L289.659 222.407L271.591 225.221C274.893 229.165 277.29 241.007 277.29 255.004C277.29 267.69 275.317 278.585 272.49 283.455C274.003 291.052 275.943 299.356 278.442 308.385H279.36L286.931 242.997L313.905 239.658L312.281 225.097Z" fill="#42363B"/>
<path d="M309.725 170.746C305.913 161.953 303.412 155.763 296.647 152.011C291.458 149.133 282.784 157.677 280.323 165.552C278.932 170.004 278.876 195.465 280.267 196.717C281.183 197.542 284.936 197.887 289.598 198.756C291.54 206.688 289.598 215.59 286.908 216.842L263.86 223.937L288.346 221.572L273.182 225.467C273.182 225.467 281.158 247.17 290.062 269.708L295.998 246.614C295.998 246.614 313.464 245.594 319 244.574C322.728 229.751 313.537 179.539 309.725 170.746Z" fill="#E8E7D6"/>
<path d="M309.724 170.746C306.738 163.859 304.548 158.575 300.491 154.802C299.596 165.97 297.57 189.519 296.691 190.838C295.717 192.299 283.531 194.58 279.471 194.095C279.553 194.395 280.171 196.631 280.266 196.717C281.182 197.542 284.935 197.887 289.597 198.756C290.893 204.047 290.455 209.758 289.225 213.354C303.432 213.368 310.976 212.912 311.52 218.417C312.122 224.511 299.744 238.021 282.691 239.706C281.307 239.843 279.95 239.933 278.608 240.002C281.681 248.146 285.761 258.826 290.061 269.709L295.997 246.615C295.997 246.615 313.463 245.595 318.999 244.575C322.728 229.751 313.536 179.539 309.724 170.746Z" fill="#D3C9B6"/>
<path d="M299.844 196.434C301.011 183.427 288.222 156.381 295.812 153.129C303.402 149.877 319.378 190.858 313.809 200.197C310.354 205.992 299.844 196.434 299.844 196.434Z" fill="#E8E7D6"/>
<path d="M277.759 311.723H260.23C260.228 311.724 272.056 304.628 274.977 305.045C277.626 305.424 277.759 311.723 277.759 311.723Z" fill="#DBD2AD"/>
<path d="M273.572 311.723H284.451C284.451 311.723 281.04 304.628 278.996 305.045C277.143 305.424 273.572 311.723 273.572 311.723Z" fill="#DBD2AD"/>
<path d="M273.306 198.599L268.24 200.24L269.183 207.991H274.45L273.306 198.599Z" fill="#805E9E"/>
<path d="M311.122 191.67C304.482 190.187 281.851 195.799 271.521 197.018L273.238 208.054C273.238 208.054 309.894 205.257 313.051 201.809C313.978 200.797 317.762 193.153 311.122 191.67Z" fill="#E8E7D6"/>
<path d="M311.122 191.67C310.286 191.483 309.194 191.41 307.907 191.425C308.484 194.16 306.159 196.7 305.562 197.352C303.231 199.898 283.211 202.941 272.594 203.913L273.238 208.054C273.238 208.054 309.894 205.257 313.051 201.809C313.978 200.797 317.762 193.153 311.122 191.67Z" fill="#E0D8C6"/>
<path d="M303.567 158.383C301.768 155.779 299.62 153.66 296.648 152.011C291.459 149.133 282.785 157.678 280.324 165.552C280.155 166.093 280.006 166.949 279.876 168.031C284.983 167.231 291.506 164.981 298.2 161.473C300.089 160.483 301.876 159.444 303.567 158.383Z" fill="#E0D8C6"/>
<path d="M295.86 153.118C303.219 163.45 311.089 189.903 306.645 197.245C305.822 198.605 304.638 199.112 303.314 199.126C306.698 201.425 311.641 203.833 313.81 200.198C319.367 190.877 303.468 150.05 295.86 153.118Z" fill="#E0D8C6"/>
<path d="M296.648 152.011C292.601 149.766 286.435 154.47 282.749 160.385C280.557 179.547 286.909 190.595 286.909 190.595C286.909 190.595 289.077 153.467 296.648 152.011Z" fill="#805E9E"/>
<path d="M286.981 188.228C286.981 188.228 281.387 177.257 284.435 158.868C286.458 155.959 289.126 153.419 291.755 151.997C288.544 153.261 285.13 156.563 282.749 160.384C280.557 179.547 286.909 190.594 286.909 190.594C286.909 190.594 287.018 188.731 287.271 185.834C287.079 187.336 286.981 188.228 286.981 188.228Z" fill="#644982"/>
<path d="M282.749 160.385C282.477 162.765 282.337 165.019 282.3 167.144C284.808 166.5 287.508 165.613 290.326 164.487C291.81 157.918 293.862 152.547 296.648 152.011C292.601 149.766 286.435 154.469 282.749 160.385Z" fill="#644982"/>
<path d="M284.809 164.576L286.922 162.186L286.091 155.81L285.225 156.781L284.809 164.576Z" fill="#805E9E"/>
<path d="M294.19 151.594C290.434 147.142 286.26 137.403 286.26 137.403L281.252 147.281L286.399 162.167L294.19 151.594Z" fill="#D27558"/>
<path d="M279.6 160.33C272.906 155.669 268.91 149.536 267.48 143.621C266 137.499 264.159 128.976 272.139 127.567C280.963 126.01 287.201 132.508 287.982 141.665C288.763 150.821 279.6 160.33 279.6 160.33Z" fill="#EDB984"/>
<path d="M272.582 119.162C261.939 125.4 271.259 138.631 280.056 140.008C288.853 141.385 290.883 145.325 290.883 145.325C290.883 145.325 292.043 128.803 286.343 124.312C280.641 119.822 275.305 117.566 272.582 119.162Z" fill="#914347"/>
<path d="M288.735 127.608C288.055 133.37 281.679 137.29 273.904 136.496C273.549 136.46 273.201 136.402 272.851 136.348C274.975 138.245 277.536 139.615 280.056 140.009C288.853 141.386 291.704 147.738 291.704 147.738C291.704 147.738 291.67 134.062 288.735 127.608Z" fill="#723137"/>
<path d="M289.126 139.014C289.126 136.067 287.613 133.677 285.746 133.677C283.879 133.677 282.366 136.067 282.366 139.014C282.366 141.961 283.879 144.351 285.746 144.351C287.613 144.35 289.126 141.961 289.126 139.014Z" fill="#EDB984"/>
<path d="M285.78 142.471C286.759 142.454 287.527 141.013 287.497 139.253C287.466 137.492 286.647 136.079 285.668 136.096C284.689 136.113 283.92 137.554 283.951 139.315C283.982 141.075 284.801 142.488 285.78 142.471Z" fill="#D27558"/>
<path d="M287.081 140.996C287.081 139.92 286.528 139.047 285.847 139.047C285.165 139.047 284.613 139.92 284.613 140.996C284.613 142.072 285.166 142.945 285.847 142.945C286.528 142.945 287.081 142.072 287.081 140.996Z" fill="#EDB984"/>
<path d="M288.135 164.23L286.16 162.186L292.951 149.262L295.109 151.493L288.135 164.23Z" fill="#805E9E"/>
<path d="M274.979 142.374C274.423 141.14 274.617 139.9 275.414 139.603C276.214 139.306 277.317 140.072 277.875 141.314C278.432 142.555 278.231 143.795 277.429 144.084C276.63 144.372 275.534 143.607 274.979 142.374Z" fill="#473939"/>
<path d="M268.304 145.29C267.748 144.056 267.942 142.816 268.739 142.52C269.539 142.223 270.642 142.989 271.2 144.231C271.757 145.472 271.556 146.711 270.754 147.001C269.955 147.288 268.859 146.523 268.304 145.29Z" fill="#473939"/>
<path d="M279.467 138.241L279.518 137.928C279.608 137.377 279.192 136.845 278.588 136.739L273.619 135.877C273.002 135.77 272.427 136.137 272.337 136.697L272.306 136.89L279.467 138.241Z" fill="#6D3042"/>
<path d="M274.043 144.859C274.043 144.859 274.257 145.019 274.566 145.283C274.463 147.225 274.744 150.324 277.135 148.913C277.149 148.99 277.184 149.067 277.192 149.144C273.45 152.195 273.796 146.146 274.043 144.859Z" fill="#D27558"/>
<path d="M280.483 149.165L279.965 149.257C280.306 151 279.76 152.399 278.242 152.931C277.357 153.241 276.332 153.182 275.422 152.789C276.458 153.46 277.759 153.642 278.848 153.26C280.487 152.685 281.006 151.105 280.483 149.165Z" fill="#D27558"/>
<path d="M268.49 139.085L268.393 138.947C268.108 138.543 267.316 138.106 267.017 138.442L264.544 141.221C264.235 141.568 264.538 142.566 264.827 142.98L264.925 143.121L268.49 139.085Z" fill="#6D3042"/>
<path d="M410.386 109.409C397.373 107.799 396.972 89.7911 402.123 84.0681C409.56 75.8051 417.548 76.7691 423.057 81.7271C428.565 86.6851 423.745 111.062 410.386 109.409Z" fill="#E8E7D6"/>
<path d="M410.74 100.937C401.819 99.833 401.545 87.489 405.076 83.566C410.174 77.902 415.65 78.563 419.426 81.961C423.202 85.36 419.897 102.07 410.74 100.937Z" fill="#F2B844"/>
<path d="M396.577 120.631C397.662 122.321 400.383 123.724 403.414 123.856C406.445 123.987 408.212 121.944 408.468 121.065C408.724 120.187 407.553 117.397 404.76 118.483C401.967 119.569 400.948 117.815 400.948 117.815L396.577 120.631Z" fill="#EDB984"/>
<path d="M395.766 121.155C391.596 117.828 394.808 108.16 397.571 104.291C400.334 100.422 412.189 104.715 413.529 107.279C414.869 109.844 414.655 113.002 411.929 114.698C409.202 116.394 411.344 119.267 410.592 120.161C408.713 122.396 398.404 123.26 395.766 121.155Z" fill="#EDB984"/>
<path d="M403.601 121.622C405.3 122.888 408.393 123.38 411.249 122.576C414.104 121.771 414.895 119.298 414.77 118.39C414.645 117.481 412.412 115.203 410.278 117.085C408.144 118.967 406.48 117.621 406.48 117.621L403.601 121.622Z" fill="#EDB984"/>
<path d="M411.899 127.245C403.765 130.681 398.017 117.763 399.289 111.792C401.126 103.169 406.112 101.043 410.864 102.69C415.616 104.336 420.249 123.719 411.899 127.245Z" fill="#F2B844"/>
<path d="M412.039 118.471C410.335 151.511 412.59 240.945 412.59 240.945C412.59 240.945 435.727 240.398 447.021 242.312L456.931 50.645C425.26 58.327 413.742 85.431 412.039 118.471Z" fill="#D6CCB9"/>
<path d="M413.969 118.748C412.265 151.713 414.52 240.948 414.52 240.948C414.52 240.948 437.657 240.403 448.951 242.312L458.861 51.0741C427.19 58.7391 415.672 85.7831 413.969 118.748Z" fill="#C1AF91"/>
<path d="M462.893 18.6221C462.558 17.9791 461.997 17.3111 461.274 17.3651C463.374 14.3551 463.057 9.89206 460.552 7.20906C460.072 6.69406 459.402 6.21107 458.72 6.38407C459.332 4.68407 458.504 2.70306 457.093 1.57506C455.682 0.44706 453.813 0.0480619 452.007 0.0030619C449.875 -0.0499381 447.414 0.577064 446.518 2.51306C445.477 1.16806 443.499 0.643061 441.928 1.29706C441.641 1.41706 441.352 1.57406 441.041 1.56106C440.674 1.54606 440.365 1.29906 440.054 1.10406C438.343 0.0330598 436.078 0.406067 434.254 1.27207C433.401 1.67707 432.567 2.20507 432.052 2.99707C431.537 3.78907 431.412 4.89207 431.958 5.66307C428.51 7.59807 426.332 11.5961 426.575 15.5431C426.663 16.9631 427.064 18.4091 427.99 19.4891C428.916 20.5681 430.436 21.2041 431.805 20.8191L453.865 38.8061C456.658 37.9651 459.169 36.2121 460.92 33.8791C461.567 33.0181 462.123 32.0501 462.273 30.9831C462.423 29.9171 462.103 28.7371 461.257 28.0691C463.775 25.7341 464.478 21.6681 462.893 18.6221Z" fill="#75454E"/>
<path d="M462.893 18.622C462.558 17.979 461.997 17.312 461.274 17.365C463.374 14.355 463.057 9.89201 460.552 7.20901C460.072 6.69401 459.402 6.21101 458.72 6.38401C459.21 5.02501 458.77 3.493 457.856 2.354C457.584 2.822 457.242 3.24501 456.805 3.58601C456.516 3.81201 456.178 4.01801 456.039 4.35701C455.92 4.64501 455.969 4.97001 455.983 5.28101C456.06 6.98101 454.891 8.66001 453.271 9.17901C442.22 10.22 446.85 20.478 445.463 19.322C445.392 20.022 444.709 20.486 444.061 20.762C440.684 22.199 436.381 20.972 434.27 17.969C434.074 18.667 433.255 18.966 432.536 19.061C430.576 19.319 428.57 18.73 426.956 17.595C427.183 18.287 427.516 18.937 427.99 19.489C428.916 20.568 430.436 21.204 431.805 20.819L453.866 38.806C456.659 37.965 459.17 36.212 460.921 33.879C461.567 33.018 462.124 32.05 462.274 30.983C462.424 29.917 462.104 28.737 461.258 28.069C463.775 25.734 464.478 21.668 462.893 18.622Z" fill="#60343D"/>
<path d="M416.721 124.078C405.3 192.034 450.05 309.52 450.05 309.52H451.519C451.519 309.52 459.608 157.068 456.401 136.213C453.194 115.359 416.721 124.078 416.721 124.078Z" fill="#526984"/>
<path d="M431.688 122.191C416.997 190.147 460.702 309.521 460.702 309.521H462.171C462.171 309.521 475.117 156.529 472.913 135.675C470.709 114.82 431.688 122.191 431.688 122.191Z" fill="#6F84A3"/>
<path d="M464.015 287.058C467.507 243.748 474.587 151.529 472.911 135.673C470.708 114.819 431.686 122.19 431.686 122.19C422.734 163.602 435.467 224.107 446.78 265.057C452.463 264.328 459.701 273.686 464.015 287.058Z" fill="#526984"/>
<path d="M437.979 118.704L420.517 115.459C416.505 132.894 416.399 151.885 420.517 172.557L437.979 175.802V118.704Z" fill="#6F84A3"/>
<path d="M463.479 141.294C446.952 141.294 420.937 137.426 417.809 132.728C414.682 128.03 421.955 81.7271 428.566 71.5361C435.177 61.3451 451.403 46.9361 462.11 49.1191C472.816 51.3021 463.479 141.294 463.479 141.294Z" fill="#F2B844"/>
<path d="M464.309 67.288C465.22 67.288 466.113 67.258 467.007 67.23C466.487 57.004 465.061 49.7211 462.109 49.1191C454.612 47.5901 444.413 54.1971 436.7 61.7941C443.297 65.1501 453.212 67.288 464.309 67.288Z" fill="#E29939"/>
<path d="M462.11 49.1191C460.915 48.8751 459.649 48.8481 458.337 48.9891C463.684 60.4291 455.49 139.548 455.49 139.548C443.516 139.548 421.864 135.54 419.781 130.949C417.698 126.358 426.751 79.5191 431.938 69.5591C433.306 66.9321 435.173 64.0201 437.317 61.1931C433.752 64.6211 430.671 68.2911 428.567 71.5351C421.956 81.7261 412.04 129.654 415.168 134.351C418.295 139.049 448.399 143.15 464.926 143.15C464.926 143.15 472.816 51.3021 462.11 49.1191Z" fill="#E29939"/>
<path d="M424.946 248.189C456.898 262.512 477.098 259.207 477.098 259.207C477.098 259.207 475.942 134.154 475.942 131.583C475.942 129.012 481.634 85.0331 482.002 80.6261C482.369 76.2191 468.459 49.7621 463.317 49.7621C458.175 49.7621 438.902 60.8871 430.822 100.552C422.742 140.215 424.946 248.189 424.946 248.189Z" fill="#E8E7D6"/>
<path d="M482.003 80.6261C482.324 76.7701 471.716 56.0351 465.614 50.9091C468.883 60.6291 470.556 70.1331 465.696 83.2961C458.354 103.185 441.263 120.117 428.135 119.487C427.525 125.465 427.013 131.952 426.593 138.774C427.334 138.482 428.093 138.263 428.878 138.156C443.363 136.183 459.553 167.229 465.038 207.5C467.724 227.215 467.339 245.474 464.554 259.221C472.621 259.939 477.098 259.208 477.098 259.208C477.098 259.208 475.943 134.155 475.943 131.584C475.943 129.012 481.635 85.0331 482.003 80.6261Z" fill="#D6CCB9"/>
<path d="M440.547 59.279L438.619 37.243L455.312 22.786L459.692 48.898L440.547 59.279Z" fill="#D27558"/>
<path d="M435.388 50.6601C432.871 49.7181 427.459 21.8541 433.191 14.6711C438.829 7.60609 453.913 20.8301 454.818 24.9991C455.723 29.1701 453.146 42.6141 452.452 44.0031C451.756 45.3961 437.163 51.3251 435.388 50.6601Z" fill="#EDB984"/>
<path d="M454.789 33.755L448.927 35.317C448.927 35.317 442.255 14.168 451.948 11.524C461.641 8.88103 454.789 33.755 454.789 33.755Z" fill="#60343D"/>
<path d="M451.309 33.0301C451.857 26.4721 456.584 22.4651 458.228 25.5471C459.872 28.6301 455.659 35.4111 453.912 36.1311C452.165 36.8511 451.309 33.0301 451.309 33.0301Z" fill="#EDB984"/>
<path d="M427.584 113.507L433.018 113.374L459.875 69.7141C459.875 69.7141 436.116 89.3061 427.584 113.507Z" fill="#D6CCB9"/>
<path d="M476.089 88.146C470.602 101.529 450.05 135.256 442.888 136.908C435.726 138.56 426.241 111.019 431.048 106.162C437.036 100.113 453.403 73.815 458.497 70.067C468.451 62.742 483.618 69.783 476.089 88.146Z" fill="#E8E7D6"/>
<path d="M432.157 103.945C422.602 105.043 414.609 100.366 406.346 102.57C398.411 104.686 399.082 123.445 408.08 128.77C417.078 134.095 439.249 137.814 442.889 136.909C455.952 133.66 441.79 102.838 432.157 103.945Z" fill="#E8E7D6"/>
<path d="M453.042 311.723H435.689C435.687 311.724 447.395 304.699 450.288 305.112C452.91 305.487 453.042 311.723 453.042 311.723Z" fill="#DBD2AD"/>
<path d="M455.37 311.723H467.149C467.149 311.723 463.149 304.699 460.954 305.112C458.963 305.487 455.37 311.723 455.37 311.723Z" fill="#DBD2AD"/>
<path d="M468.467 65.972C464.052 77.918 441.72 120.639 433.002 126.179C435.973 132.556 439.8 137.621 442.889 136.908C450.05 135.255 473.76 102.364 479.248 88.981C484.502 76.163 476.765 66.968 468.467 65.972Z" fill="#E0D8C6"/>
<path d="M433.128 124.317C429.785 125.148 411.434 122.89 401.39 118.258C402.357 122.613 404.589 126.703 408.081 128.769C417.079 134.094 439.25 137.813 442.89 136.908C449.615 135.236 448.601 125.009 445.024 116.287C442.519 110.179 440.461 122.494 433.128 124.317Z" fill="#E0D8C6"/>
<path d="M463.317 49.7611C460.322 49.7611 452.53 53.5511 444.95 64.5461C448.47 65.5341 452.399 66.3201 456.59 66.8051C464.076 67.6721 470.987 67.4331 476.278 66.3581C471.929 58.2131 466.223 49.7611 463.317 49.7611Z" fill="#D6CCB9"/>
<path d="M452.601 32.082C452.955 27.848 456.006 25.261 457.068 27.251C458.129 29.241 455.409 33.619 454.282 34.084C453.154 34.548 452.601 32.082 452.601 32.082Z" fill="#D27558"/>
<path d="M452.462 33.407C452.719 30.331 454.936 28.451 455.707 29.897C456.478 31.343 454.502 34.524 453.683 34.862C452.863 35.199 452.462 33.407 452.462 33.407Z" fill="#EDB984"/>
<path d="M423.905 79.9901C425.215 81.1941 425.874 83.9651 425.283 86.9261C424.691 89.8861 422.383 91.4251 421.509 91.5971C420.635 91.7691 418.328 90.3831 419.99 87.7621C421.652 85.1411 420.268 83.9951 420.268 83.9951L423.905 79.9901Z" fill="#EDB984"/>
<path d="M424.582 79.2471C422.482 74.8971 412.773 77.1681 408.54 79.5141C404.307 81.8601 405.493 93.7731 407.553 95.3031C409.613 96.8331 412.588 96.9041 414.8 94.4011C417.012 91.8981 419.169 94.2351 420.174 93.5831C422.686 91.9531 425.911 81.9991 424.582 79.2471Z" fill="#EDB984"/>
<path d="M423.172 86.91C423.944 88.675 423.673 91.727 422.255 94.434C420.838 97.141 418.361 97.692 417.549 97.49C416.737 97.288 415.152 94.915 417.397 93.005C419.642 91.095 418.787 89.357 418.787 89.357L423.172 86.91Z" fill="#EDB984"/>
<path d="M440.127 28.6201C440.133 26.9391 440.849 25.6471 441.731 25.7301C442.616 25.8131 443.334 27.2511 443.332 28.9441C443.33 30.6421 442.606 31.9441 441.717 31.8481C440.832 31.7521 440.121 30.3051 440.127 28.6201Z" fill="#5A4949"/>
<path d="M434.313 29.858C434.253 28.218 433.545 26.837 432.733 26.77C431.924 26.703 431.315 27.967 431.371 29.595C431.427 31.227 432.129 32.617 432.942 32.696C433.757 32.775 434.372 31.503 434.313 29.858Z" fill="#5A4949"/>
<path d="M439.035 17.9761L445.425 17.8971C446.225 17.8871 446.866 18.7681 446.855 19.8641L446.832 22.0431C446.82 23.1431 446.159 24.0331 445.357 24.0301L438.956 24.0071C438.184 24.0041 437.573 23.1321 437.588 22.0581L437.617 19.9321C437.63 18.8601 438.265 17.9851 439.035 17.9761Z" fill="#75454E"/>
<path d="M432.674 19.2681L428.397 20.6151C427.877 20.7781 427.595 21.6931 427.768 22.6591L428.111 24.5801C428.284 25.5511 428.849 26.2111 429.372 26.0531L433.681 24.7511C434.217 24.5891 434.504 23.6601 434.323 22.6761L433.964 20.7321C433.782 19.7561 433.205 19.1011 432.674 19.2681Z" fill="#75454E"/>
<path d="M437.108 29.1061C437.108 29.1061 437.255 29.4881 437.452 30.0861C436.467 32.8081 435.336 37.5211 438.446 37.0971C438.426 37.2191 438.427 37.3531 438.4 37.4701C433.097 39.4011 436.269 30.7791 437.108 29.1061Z" fill="#D27558"/>
<path d="M436.184 40.7461C436.268 40.9591 436.352 41.1721 436.461 41.3811C437.614 43.5831 439.942 44.8471 441.913 44.1921C443.969 43.5091 445.001 40.9941 444.165 38.3191L436.184 40.7461Z" fill="#443239"/>
<path d="M437.867 42.5571L443.607 41.2811C443.864 40.5211 443.939 39.6601 443.69 38.7791L436.816 40.9281C436.876 41.0951 436.935 41.2621 437.017 41.4251C437.24 41.8681 437.532 42.2461 437.867 42.5571Z" fill="#F4E9D6"/>
<path d="M60.4999 181.746H41.7369L35.6289 208.472H54.3909L60.4999 181.746Z" fill="#C9BB9F"/>
<path d="M64.536 177.245H45.774L39.665 203.971H58.427L64.536 177.245Z" fill="#D3C6AE"/>
<path d="M52.9 203.315H39.374V209.223H52.9V203.315Z" fill="#C9BB9F"/>
<path d="M72.4613 203.315H48.0273V209.223H72.4613V203.315Z" fill="#E2D7BF"/>
<path d="M92.5488 185.601L91.6898 99.503C91.6588 96.441 89.8508 94.16 87.4538 94.16H13.5778C10.6708 94.16 8.11281 97.469 8.14981 101.184L9.00781 187.282C9.03781 190.344 10.8468 192.625 13.2438 192.625H87.1208C90.0288 192.624 92.5858 189.315 92.5488 185.601Z" fill="#D3C6AE"/>
<path d="M69.1858 96.099C69.1788 95.406 69.0698 94.761 68.9018 94.16H13.5778C10.6708 94.16 8.11281 97.469 8.14981 101.184L8.85781 172.182H69.9438L69.1858 96.099Z" fill="#54464B"/>
<path d="M69.1858 96.099C69.1788 95.406 69.0698 94.761 68.9018 94.16H13.5778C10.6708 94.16 8.11281 97.469 8.14981 101.184L8.43381 129.653H69.5198L69.1858 96.099Z" fill="#473B40"/>
<path d="M100.754 185.601L99.8959 99.503C99.8649 96.441 98.0569 94.16 95.6599 94.16H21.7829C18.8759 94.16 16.3179 97.469 16.3549 101.184L17.2129 187.282C17.2429 190.344 19.0519 192.625 21.4489 192.625H95.3259C98.2329 192.624 100.791 189.315 100.754 185.601Z" fill="#E2D7BF"/>
<path d="M76.2582 185.6L93.9742 99.5021C94.6042 96.4401 93.9452 94.1591 92.4322 94.1591H45.7682C43.9322 94.1591 41.6152 97.4681 40.8502 101.183L23.1342 187.281C22.5042 190.343 23.1632 192.624 24.6762 192.624H71.3402C73.1772 192.624 75.4942 189.315 76.2582 185.6Z" fill="#EDE3CE"/>
<path d="M99.8949 99.503C99.8639 96.441 98.0559 94.16 95.6589 94.16H21.7829C18.8759 94.16 16.3179 97.469 16.3549 101.184L17.0629 172.182H100.62L99.8949 99.503Z" fill="#6D5D62"/>
<path d="M97.7539 99.223H18.7119L19.4409 172.181H98.4979L97.7539 99.223Z" fill="#7DAAC6"/>
<path d="M71.1638 181.814H57.2998C56.8568 181.814 56.4538 182.277 56.3988 182.848C56.3438 183.419 56.6578 183.882 57.1008 183.882H70.9648C71.4078 183.882 71.8108 183.419 71.8658 182.848C71.9208 182.277 71.6068 181.814 71.1638 181.814Z" fill="#C9BB9F"/>
<path d="M47.241 99.223L34 172.181H69.396H69.969L83.204 99.223H47.241Z" fill="#92BDD3"/>
<path d="M96.5069 100.471L97.2389 172.181H98.4979L97.7539 99.223H18.7119L18.7249 100.471H96.5069Z" fill="#4C87A5"/>
<path d="M322.499 212.262H21.2568C52.5228 235.003 63.5908 259.813 63.5908 311.723H280.165C280.165 267.342 287.588 236.934 322.499 212.262Z" fill="#A3B094"/>
<path d="M21.2559 212.262C31.0639 219.396 38.8829 226.734 44.9969 235.048H227.815V311.724H280.165C280.165 267.343 287.587 236.935 322.499 212.263H21.2559V212.262Z" fill="#A3B094"/>
<path d="M210.744 311.723H280.165C280.165 267.342 287.587 236.934 322.499 212.262H173.111C200.126 235.197 210.265 261.246 210.744 311.723Z" fill="#A3B094"/>
<path d="M220.722 311.723C215.946 261.728 204.114 235.187 176.942 212.262H171.448C198.463 235.198 208.602 261.246 209.081 311.723H278.501H220.722Z" fill="#A9B59B"/>
<path d="M276.39 209.985C276.307 208.515 275.136 207.367 273.72 207.367H2.67467C1.13567 207.367 -0.0853252 208.714 0.00467484 210.312L0.0736751 211.531C0.156675 213.001 1.32767 214.149 2.74367 214.149H273.79C275.329 214.149 276.55 212.802 276.46 211.204L276.39 209.985Z" fill="#E2C79F"/>
<path d="M343.682 209.985C343.599 208.515 342.428 207.367 341.012 207.367H174.113C172.574 207.367 171.353 208.714 171.443 210.312L171.512 211.531C171.595 213.001 172.766 214.149 174.182 214.149H341.08C342.619 214.149 343.84 212.802 343.75 211.204L343.682 209.985Z" fill="#CEAF86"/>
<path d="M300.87 195.411H285.462V207.701H300.87V195.411Z" fill="#EDB984"/>
<path d="M275.624 190.594C273.742 191.156 271.883 193.148 271.255 195.659C270.627 198.171 272.398 200.068 273.241 200.462C274.084 200.857 277.088 200.446 276.451 197.885C275.813 195.324 277.748 194.83 277.748 194.83L275.624 190.594Z" fill="#EDB984"/>
<path d="M275.229 189.808C279.265 186.997 288.484 191.664 291.932 194.769C295.379 197.874 289.113 206.924 286.309 207.521C283.505 208.118 280.356 207.293 279.093 204.663C277.83 202.033 274.584 203.238 273.805 202.426C271.859 200.396 272.675 191.586 275.229 189.808Z" fill="#EDB984"/>
<path d="M273.475 196.272C271.921 197.436 270.919 199.925 271.262 202.481C271.606 205.037 273.969 206.205 274.906 206.286C275.842 206.367 278.504 204.964 276.956 202.792C275.408 200.62 277.037 199.502 277.037 199.502L273.475 196.272Z" fill="#EDB984"/>
<path d="M370.878 126.012C370.878 126.012 370.68 126.684 371.188 127.147C372.425 128.275 372.345 132.708 371.796 135.424C371.766 135.572 371.758 135.732 371.72 135.875C365.771 138.743 369.843 128.1 370.878 126.012Z" fill="#D27558"/>
<path d="M299.187 190.145H292.119C289.209 190.145 288.065 207.711 290.976 207.711H298.044L299.187 190.145Z" fill="#CC4C62"/>
<path d="M381.016 117.889L372.632 113.786C368.732 124.078 370.889 146.115 372.577 147.803C374.265 149.491 381.169 148.893 382.611 147.897C384.053 146.901 390.488 138.144 390.488 138.144L381.016 117.889Z" fill="#EDB984"/>
<path d="M387.812 132.423C387.074 134.477 382.708 136.719 379.981 139.627C379.221 144.931 376.394 145.914 373.405 147.568C373.18 147.692 372.957 147.806 372.733 147.925C374.635 149.454 381.537 149.106 382.942 148.137C384.384 147.141 390.488 138.145 390.488 138.145L387.812 132.423Z" fill="#E79B69"/>
<path d="M381.438 157.838C379.891 153.055 379.985 135.051 379.985 135.051C379.985 135.051 386.784 137.02 391.285 137.583C395.786 138.146 400.006 149.68 400.006 149.68L381.438 157.838Z" fill="#D27558"/>
<path d="M400.633 114.477C399.277 110.864 391.324 107.522 387.017 106.993C380.415 106.182 374.265 107.199 372.67 109.449C371.917 110.513 371.729 111.856 371.74 112.979C371.752 114.267 372.472 115.44 373.619 116.024L376.824 117.653L379.88 139.698L382.859 145.21C387.348 141.501 392.427 140.068 396.613 142.592C399.865 135.707 401.591 117.029 400.633 114.477Z" fill="#8C422F"/>
<path d="M400.633 114.477C399.985 112.75 397.825 111.09 395.282 109.764C395.293 109.907 395.314 110.049 395.305 110.192C395.081 114.031 387.907 116.735 379.282 116.231C376.858 116.089 374.586 115.703 372.565 115.144C372.857 115.495 373.197 115.808 373.619 116.023L376.824 117.652L379.88 139.697L382.859 145.208C387.348 141.499 392.427 140.066 396.613 142.59C399.865 135.707 401.591 117.029 400.633 114.477Z" fill="#773326"/>
<path d="M381.013 157.55C378.369 151.325 384.913 143.696 392.701 142.442C400.489 141.188 403.922 154.827 403.922 154.827L381.013 157.55Z" fill="#A5354D"/>
<path d="M382.792 214.197L332.831 222.572C332.831 222.572 321.427 251.741 323.056 307.77L323.871 308.348L351.567 250.587H392.024L403.428 225.461L382.792 214.197Z" fill="#423339"/>
<path d="M344.582 283.216L361.956 247.978L337.975 249.447L344.582 283.216Z" fill="#D6CEBD"/>
<path d="M351.758 216.635L300.227 225.796C300.227 225.796 288.178 253.207 289.866 307.784L290.71 308.347L319.405 252.082H361.323L373.139 227.607L351.758 216.635Z" fill="#DBAC42"/>
<path d="M352.977 214.76L300.227 225.797C300.227 225.797 288.178 253.208 289.866 307.785L290.71 308.348L319.405 252.082H361.323L373.139 227.607L352.977 214.76Z" fill="#54464B"/>
<path d="M352.977 214.76L306.685 224.445C307.003 231.265 302.097 262.349 289.844 288.085C289.662 294.205 289.648 300.766 289.865 307.785L290.709 308.348L319.405 252.082H361.323L373.139 227.607L352.977 214.76Z" fill="#423339"/>
<path d="M293.664 311.723H275.94C275.938 311.724 287.896 304.549 290.85 304.971C293.529 305.354 293.664 311.723 293.664 311.723Z" fill="#DBD2AD"/>
<path d="M326.298 311.723H308.574C308.572 311.724 320.53 304.549 323.484 304.971C326.163 305.354 326.298 311.723 326.298 311.723Z" fill="#DBD2AD"/>
<path d="M308.715 223.387C309.09 239.516 327.658 277.777 327.658 277.777L333.64 264.41L339.661 250.957H393.533L404.741 226.763L354.665 204.632L349.789 213.259L308.715 223.387Z" fill="#E8E7D6"/>
<path d="M366.68 210.517C359.751 222.297 343.934 234.945 325.801 240.545C321.564 241.854 317.35 242.707 313.271 243.135C318.878 259.682 327.659 277.776 327.659 277.776L333.641 264.409L339.661 250.956H393.534L404.741 226.762L366.68 210.517Z" fill="#D3C9B6"/>
<path d="M351.963 209.411C355.892 193.933 367.23 163.183 374.826 155.024C382.422 146.866 395.926 146.022 400.708 147.71C405.491 149.398 418.994 162.339 420.682 173.592C422.37 184.845 399.775 242.964 393.586 250.841C389.723 250.39 379.162 226.286 368.203 214.259C361.804 207.237 351.963 209.411 351.963 209.411Z" fill="#E8E7D6"/>
<path d="M420.683 173.592C418.995 162.339 405.491 149.398 400.709 147.71C397.107 146.439 388.56 146.607 381.314 150.251C377.142 155.43 382.033 173.105 377.057 188.077C372.679 201.25 371.734 205.56 365.411 212.468C375.512 224.474 386.912 250.062 393.587 250.841C399.776 242.964 422.371 184.845 420.683 173.592Z" fill="#E0D8C6"/>
<path d="M377.077 116.858C373.927 126.385 375.218 134.69 375.218 134.69L381.016 136.644L384.488 121.336L377.077 116.858Z" fill="#773326"/>
<path d="M382.355 134.497C382.775 131.242 381.815 128.436 380.21 128.229C378.606 128.022 376.965 130.492 376.545 133.747C376.125 137.002 377.085 139.808 378.69 140.015C380.295 140.222 381.935 137.751 382.355 134.497Z" fill="#EDB984"/>
<path d="M351.989 193.263C363.63 198.668 366.333 235.255 366.333 235.255C373.398 221.407 385.368 185.856 384.211 173.099L374.648 165.408L351.989 193.263Z" fill="#D3C9B6"/>
<path d="M375.74 153.913C359.327 161.45 338.078 184.12 336.213 184.729C334.348 185.339 296.314 188.172 296.314 188.172C296.314 188.172 291.839 199.913 295.195 207.706C295.195 207.706 333.603 209.176 338.264 209.059C342.925 208.942 368.841 195.16 375.367 189.932C381.893 184.704 394.105 145.48 375.74 153.913Z" fill="#E8E7D6"/>
<path d="M380.166 152.734C379.4 162.668 373.893 176.503 370.201 179.461C363.676 184.689 337.759 198.471 333.098 198.588C329.379 198.682 304.192 197.765 294.157 197.39C293.771 200.787 293.842 204.564 295.196 207.706C295.196 207.706 333.604 209.176 338.265 209.059C342.926 208.941 370.311 196.37 376.584 190.835C388.707 180.136 391.839 152.613 380.166 152.734Z" fill="#E0D8C6"/>
<path d="M372.998 307.362C372.998 304.954 371.046 303.001 368.637 303.001C366.229 303.001 364.277 304.953 364.277 307.362C364.277 309.77 366.229 311.723 368.637 311.723C371.046 311.723 372.998 309.771 372.998 307.362Z" fill="#54464B"/>
<path d="M369.574 267.134H366.997V298.08H369.574V267.134Z" fill="#7F6972"/>
<path d="M369.574 265.121H366.997V280.92H369.574V265.121Z" fill="#54464B"/>
<path d="M363.92 271.355L372.626 271.354L374.967 261.506L361.619 261.507L363.92 271.355Z" fill="#54464B"/>
<path d="M371.452 290.061H365.122L363.434 299.908H373.14L371.452 290.061Z" fill="#7F6972"/>
<path d="M397.477 245.424H370.46C367.522 245.424 364.986 242.518 365.254 239.44C366.857 221.014 374.576 166.371 409.763 166.371C447.222 166.371 411.402 228.299 402.675 242.532C401.555 244.359 399.641 245.424 397.477 245.424Z" fill="#A3B094"/>
<path d="M409.762 166.371C393.534 166.371 383.158 178 376.521 192.332C382.311 194.601 389.588 195.966 397.514 195.966C409.497 195.966 420.017 192.868 426.096 188.194C427.847 175.825 424.397 166.371 409.762 166.371Z" fill="#A3B094"/>
<path d="M403.297 245.424H376.28C373.341 245.424 370.806 242.518 371.074 239.44C372.677 221.014 380.396 166.371 415.583 166.371C453.042 166.371 417.222 228.299 408.495 242.532C407.375 244.359 405.461 245.424 403.297 245.424Z" fill="#A3B094"/>
<path d="M368.778 298.642C356.659 298.642 346.835 301.035 346.835 303.987C346.835 304.034 346.845 304.081 346.849 304.128H390.707C390.712 304.081 390.722 304.034 390.722 303.987C390.722 301.035 380.897 298.642 368.778 298.642Z" fill="#7F6972"/>
<path d="M393.255 258.412C393.255 255.46 382.297 253.067 368.779 253.067C355.262 253.067 344.304 255.46 344.304 258.412C344.304 261.364 355.262 263.757 368.779 263.757C382.296 263.758 393.255 261.364 393.255 258.412Z" fill="#54464B"/>
<path d="M395.786 250.394H341.349C338.708 250.394 336.566 252.535 336.566 255.177C336.566 257.818 338.707 259.96 341.349 259.96H395.786C398.427 259.96 400.568 257.819 400.568 255.177C400.568 252.536 398.427 250.394 395.786 250.394Z" fill="#A3B094"/>
<path d="M370.35 250.394H344.536C341.895 250.394 339.753 252.535 339.753 255.177C339.753 257.818 341.894 259.96 344.536 259.96H370.35C372.991 259.96 375.133 257.819 375.133 255.177C375.133 252.536 372.992 250.394 370.35 250.394Z" fill="#A3B094"/>
<path d="M394.098 307.362C394.098 304.954 392.146 303.001 389.737 303.001C387.329 303.001 385.376 304.953 385.376 307.362C385.376 309.77 387.328 311.723 389.737 311.723C392.145 311.723 394.098 309.771 394.098 307.362Z" fill="#54464B"/>
<path d="M351.054 307.362C351.054 304.954 349.102 303.001 346.693 303.001C344.285 303.001 342.332 304.953 342.332 307.362C342.332 309.77 344.284 311.723 346.693 311.723C349.102 311.723 351.054 309.771 351.054 307.362Z" fill="#54464B"/>
<path d="M395.618 238.536H392.455L388.427 252.176H391.59L395.618 238.536Z" fill="#54464B"/>
<path d="M399.458 240.384C399.819 237.473 397.85 235.114 395.059 235.114C392.268 235.114 389.713 237.474 389.352 240.384C388.991 243.295 390.96 245.655 393.751 245.655C396.542 245.654 399.097 243.294 399.458 240.384Z" fill="#54464B"/>
<path d="M394.358 254.544C394.683 251.924 392.911 249.8 390.399 249.8C387.887 249.8 385.587 251.924 385.262 254.544C384.937 257.164 386.71 259.288 389.222 259.288C391.733 259.288 394.033 257.164 394.358 254.544Z" fill="#54464B"/>
<path d="M396.899 238.536H393.736L389.708 252.176H392.871L396.899 238.536Z" fill="#473A3F"/>
<path d="M401.434 240.384C401.795 237.473 399.826 235.114 397.035 235.114C394.244 235.114 391.689 237.474 391.328 240.384C390.967 243.295 392.936 245.655 395.727 245.655C398.518 245.654 401.073 243.294 401.434 240.384Z" fill="#473A3F"/>
<path d="M396.334 254.544C396.659 251.924 394.886 249.8 392.375 249.8C389.863 249.8 387.563 251.924 387.238 254.544C386.913 257.164 388.686 259.288 391.197 259.288C393.709 259.288 396.009 257.164 396.334 254.544Z" fill="#473A3F"/>
<path d="M397.804 240.384C397.958 239.145 397.119 238.14 395.931 238.14C394.743 238.14 393.655 239.145 393.501 240.384C393.347 241.623 394.186 242.628 395.374 242.628C396.563 242.627 397.651 241.623 397.804 240.384Z" fill="#C13E57"/>
<path d="M393.197 254.52C393.311 253.6 392.689 252.854 391.806 252.854C390.924 252.854 390.116 253.6 390.002 254.52C389.888 255.44 390.51 256.186 391.393 256.186C392.275 256.186 393.083 255.44 393.197 254.52Z" fill="#C13E57"/>
<path d="M349.397 307.362C349.397 305.869 348.187 304.659 346.694 304.659C345.201 304.659 343.991 305.869 343.991 307.362C343.991 308.855 345.201 310.065 346.694 310.065C348.187 310.065 349.397 308.855 349.397 307.362Z" fill="#7F6972"/>
<path d="M392.498 307.362C392.498 305.869 391.288 304.659 389.795 304.659C388.302 304.659 387.092 305.869 387.092 307.362C387.092 308.855 388.302 310.065 389.795 310.065C391.288 310.065 392.498 308.855 392.498 307.362Z" fill="#7F6972"/>
<path d="M380.811 135.183C381.068 133.192 380.48 131.475 379.498 131.348C378.516 131.221 377.512 132.733 377.255 134.724C376.998 136.715 377.586 138.433 378.567 138.559C379.55 138.686 380.554 137.174 380.811 135.183Z" fill="#D27558"/>
<path d="M379.863 136.963C380.021 135.736 379.51 134.659 378.722 134.557C377.933 134.455 377.166 135.367 377.008 136.593C376.85 137.82 377.361 138.897 378.149 138.999C378.937 139.101 379.705 138.189 379.863 136.963Z" fill="#EDB984"/>
<path d="M371.315 123.544C371.074 123.324 370.905 124.425 370.937 126.008C370.969 127.595 371.19 129.072 371.432 129.305C371.675 129.539 371.846 128.43 371.813 126.83C371.78 125.235 371.557 123.766 371.315 123.544Z" fill="#5A4949"/>
<path d="M371.913 119.262L370.026 119.102C369.258 119.037 368.624 119.544 368.611 120.236L368.581 121.752C368.568 122.443 369.179 123.057 369.947 123.122L371.834 123.282C372.602 123.347 373.236 122.84 373.249 122.148L373.279 120.632C373.293 119.941 372.681 119.327 371.913 119.262Z" fill="#8C422F"/>
<path d="M370.086 137.798C369.421 138.574 370.437 139.036 371.38 142.584L371.768 137.041C371.768 137.041 370.751 137.022 370.086 137.798Z" fill="#EDB984"/>
<g opacity="0.72">
<mask id="mask0_36715_3003" style="mask-type:luminance" maskUnits="userSpaceOnUse" x="17" y="97" width="79" height="75">
<path d="M95.3259 97.5741H17.1719V171.298H95.3259V97.5741Z" fill="white"/>
</mask>
<g mask="url(#mask0_36715_3003)">
<path d="M36.9576 321.179C54.1366 321.179 74.0036 304.79 76.1116 303.315L83.9936 233.626C84.0816 232.845 85.2386 232.92 85.2256 233.706L84.0866 302.364L92.8686 311.22C92.8686 311.22 93.4486 224.85 88.6006 199.766C83.7526 174.682 78.0086 154.711 73.1076 149.335C69.8656 145.78 58.0366 140.113 53.8206 140.113C49.6046 140.113 41.4266 147.057 36.5886 155.658C31.3416 164.986 38.8726 206.841 43.0706 206.721L42.6496 209.672C33.7956 223.796 34.0066 264.056 36.9576 321.179Z" fill="#E8E7D6"/>
<path d="M57.4376 178.063C50.0666 166.346 45.7296 154.446 44.8636 145.192C41.8726 147.953 38.8616 151.617 36.5886 155.659C31.3416 164.987 38.8726 206.842 43.0706 206.722L42.6496 209.673C33.7966 223.796 34.0076 264.056 36.9586 321.179C41.6256 321.179 46.4896 319.964 51.1436 318.173C49.7616 308.03 49.5286 296.247 50.7176 283.664C54.3046 245.724 63.1586 214.467 78.1966 214.467C80.3826 214.468 67.4276 193.942 57.4376 178.063Z" fill="#D6CCB9"/>
<path d="M25.6809 207.987C24.7329 188.721 29.0279 164.009 39.0529 152.72C39.0529 152.72 50.9749 159.453 50.9749 173.682C50.9749 181.999 46.3899 192.02 47.4969 198.344C47.9329 200.835 26.1549 217.63 25.6809 207.987Z" fill="#E8E7D6"/>
<path d="M34.2766 175.982C34.2766 168.313 35.2256 161.258 36.8156 155.636C28.4006 167.872 24.8076 190.229 25.6816 207.987C25.9736 213.929 29.7846 209.39 36.0726 204.788C32.2846 199.179 34.2766 188.628 34.2766 175.982Z" fill="#E0D8C6"/>
<path d="M70.4818 147.162C65.6938 143.853 57.2448 140.113 53.8208 140.113C49.6058 140.113 41.4268 147.057 36.5888 155.659C36.4108 155.975 36.2508 156.334 36.1018 156.722C34.5458 159.171 33.1728 161.983 31.9658 165.038C37.8088 164.687 45.2968 162.661 52.9668 159.044C60.3358 155.569 66.4738 151.291 70.4818 147.162Z" fill="#D6CCB9"/>
<path d="M70.3636 122.186C70.3116 121.164 70.2596 120.127 70.2066 119.077C70.1786 118.513 70.1426 117.921 69.8576 117.428C69.5896 116.964 69.1106 116.61 68.9846 116.081C68.8036 115.321 69.4246 114.532 69.3086 113.743C69.2146 113.103 68.6686 112.641 68.3946 112.049C68.0886 111.387 68.1296 110.571 67.7406 109.942C67.3816 109.362 66.7056 109.027 66.4066 108.401C66.1606 107.886 66.1706 107.185 65.7076 106.859C65.4476 106.676 65.0956 106.668 64.8536 106.457C64.5416 106.185 64.5326 105.697 64.4196 105.284C64.1316 104.226 63.0796 103.574 62.0496 103.362C60.7666 103.098 59.4096 103.361 58.3316 104.081C57.7636 104.461 57.2636 104.964 56.6276 105.19C55.7636 105.496 54.7846 105.245 53.8686 105.351C52.9636 105.456 52.1306 105.925 51.5786 106.637C51.2186 107.101 50.9756 107.661 50.5636 108.067C50.1666 108.458 49.6396 108.678 49.1426 108.924C47.9836 109.495 46.9306 110.239 46.0266 111.121C45.4426 111.691 44.8926 112.411 44.9956 113.269C45.0196 113.47 45.0786 113.681 45.0106 113.859C44.9386 114.047 44.7446 114.145 44.5786 114.256C43.5676 114.934 43.4396 116.37 43.6656 117.618C43.8886 118.847 44.3736 120.06 44.3326 121.237C44.2956 122.294 43.8346 123.242 43.7806 124.269C43.7246 125.346 44.1416 126.477 44.9106 127.358C45.4476 127.973 46.1476 128.472 46.5796 129.131C46.8566 129.554 47.0056 130.019 47.1776 130.47C48.1186 132.952 49.8136 135.181 51.9746 136.84L67.3396 128.932C68.9786 127.91 70.1196 126.174 70.3486 124.306C70.4346 123.609 70.3996 122.899 70.3636 122.186Z" fill="#A33B40"/>
<path d="M70.2065 119.077C70.1865 118.676 70.1585 118.262 70.0435 117.879C69.6885 117.963 69.3015 117.964 68.8745 117.829C68.6375 117.754 68.3795 117.641 68.1875 117.716C68.0055 117.787 67.9305 118.008 67.8275 118.186C67.3855 118.948 66.3735 118.97 65.4235 118.842C63.9515 118.645 62.4185 118.196 60.8885 117.512C60.2315 117.218 59.5615 116.877 58.9125 116.793C58.2405 116.706 57.6385 116.902 56.9815 116.911C55.9725 116.925 55.9545 114.809 54.9775 114.012C53.9875 113.204 52.0425 113.728 50.9785 113.125C50.1945 112.681 49.3705 112.585 48.5575 112.326C47.7275 112.062 46.9055 111.607 46.1435 111.027C46.1075 111.061 46.0635 111.088 46.0275 111.123C45.4435 111.693 44.8935 112.413 44.9965 113.271C45.0205 113.472 45.0795 113.683 45.0115 113.861C44.9395 114.049 44.7455 114.147 44.5795 114.258C43.5685 114.936 43.4405 116.372 43.6665 117.62C43.8895 118.849 44.3745 120.062 44.3335 121.239C44.2965 122.296 43.8345 123.244 43.7815 124.271C43.7255 125.348 44.1425 126.479 44.9115 127.36C45.4485 127.975 46.1485 128.474 46.5805 129.133C46.8575 129.556 47.0065 130.021 47.1785 130.472C48.1195 132.954 49.8135 135.183 51.9765 136.842L67.3415 128.934C68.9805 127.912 70.1215 126.176 70.3505 124.308C70.4365 123.608 70.4005 122.898 70.3645 122.185C70.3115 121.163 70.2595 120.127 70.2065 119.077Z" fill="#872A33"/>
<path d="M47.4971 145.383L52.3981 140.798L65.4281 144.617C65.4281 144.617 78.6411 160.243 81.0121 190.912H79.9051C68.6481 173.146 57.6521 156.874 47.4971 145.383Z" fill="#AF5482"/>
<path d="M68.4891 149.056C66.6841 146.107 65.4281 144.618 65.4281 144.618L52.3981 140.799L47.4971 145.384C50.5651 148.857 53.7121 152.772 56.9181 157.027C61.4751 154.55 65.4201 151.805 68.4891 149.056Z" fill="#8C3E69"/>
<path d="M47.5261 145.356L47.4971 145.383C47.9601 145.907 48.4261 146.452 48.8931 146.995C48.4361 146.442 47.9801 145.891 47.5261 145.356Z" fill="#8C3E69"/>
<path d="M65.4295 144.618L65.1025 144.522C68.7335 149.873 77.1665 164.636 79.0145 188.54H78.3965C78.8995 189.329 79.4025 190.118 79.9065 190.913H81.0135C78.6415 160.244 65.4295 144.618 65.4295 144.618Z" fill="#8C3E69"/>
<path d="M50.7275 142.644L51.6075 126.491L63.3585 129.548L66.2985 145.753C66.2985 145.753 57.3665 150.865 50.7275 142.644Z" fill="#D27558"/>
<path d="M53.0404 138.5C52.3154 135.176 49.9384 118.852 50.2344 117.605C50.5304 116.357 59.4694 110.732 62.3634 111.668C65.2574 112.604 71.8054 126.654 69.4294 139.825C69.0914 141.703 53.6514 141.301 53.0404 138.5Z" fill="#EDB984"/>
<path d="M48.862 116.159C43.487 121.455 51.866 130.782 51.866 130.782L57.004 129.122C56.766 118.688 55.739 109.382 48.862 116.159Z" fill="#872A33"/>
<path d="M53.5248 132.995C49.4148 131.572 46.7268 127.699 48.3078 125.565C49.8888 123.431 52.3388 125.17 53.5248 127.699C54.7108 130.229 53.5248 132.995 53.5248 132.995Z" fill="#EDB984"/>
<path d="M52.4587 131.257C50.0507 130.424 48.4767 128.155 49.4027 126.905C50.3287 125.655 51.7637 126.673 52.4587 128.155C53.1527 129.637 52.4587 131.257 52.4587 131.257Z" fill="#D27558"/>
<path d="M52.7176 131.647C51.1676 131.11 50.1536 129.65 50.7506 128.845C51.3466 128.04 52.2706 128.696 52.7176 129.65C53.1646 130.604 52.7176 131.647 52.7176 131.647Z" fill="#EDB984"/>
<path d="M62.313 124.4C61.971 123.263 61.222 122.531 60.636 122.764C60.048 122.998 59.846 124.115 60.188 125.261C60.53 126.411 61.287 127.147 61.876 126.904C62.461 126.663 62.656 125.541 62.313 124.4Z" fill="#5A4949"/>
<path d="M66.5359 124.075C66.2469 122.952 66.4539 121.875 66.9949 121.667C67.5339 121.46 68.2039 122.193 68.4939 123.307C68.7839 124.424 68.5839 125.506 68.0439 125.722C67.5019 125.939 66.8259 125.201 66.5359 124.075Z" fill="#5A4949"/>
<path d="M60.9196 116.972L56.5366 118.199C55.9876 118.353 55.7265 119.078 55.9545 119.818L56.4086 121.289C56.6376 122.032 57.2685 122.502 57.8165 122.339L62.1866 121.041C62.7136 120.885 62.9566 120.171 62.7306 119.447L62.2836 118.012C62.0576 117.29 61.4476 116.824 60.9196 116.972Z" fill="#913939"/>
<path d="M65.5275 116.573L68.7215 116.629C69.1095 116.636 69.4855 117.199 69.5625 117.887L69.7145 119.257C69.7915 119.95 69.5385 120.51 69.1485 120.508L65.9425 120.489C65.5435 120.487 65.1605 119.915 65.0875 119.213L64.9425 117.824C64.8675 117.125 65.1305 116.566 65.5275 116.573Z" fill="#913939"/>
<path d="M64.5055 124.373C64.5055 124.373 64.3925 124.717 64.2495 125.245C65.5455 127.084 67.1935 130.441 63.9355 131.046C63.9685 131.136 63.9805 131.241 64.0205 131.325C69.7005 131.241 65.5435 125.433 64.5055 124.373Z" fill="#D27558"/>
<path d="M67.4596 134.162C67.4056 134.361 67.3536 134.558 67.2776 134.755C66.4826 136.826 64.5976 138.134 62.8496 137.687C61.0266 137.22 59.9196 135.026 60.4006 132.551L67.4596 134.162Z" fill="#443239"/>
<path d="M66.1747 135.918L61.1387 135.183C60.8517 134.516 60.7117 133.745 60.8467 132.931L66.9317 134.371C66.8957 134.526 66.8597 134.681 66.8037 134.834C66.6517 135.251 66.4347 135.613 66.1747 135.918Z" fill="#F4E9D6"/>
</g>
</g>
</svg>
