<svg width="377" height="478" viewBox="0 0 377 478" fill="none" xmlns="http://www.w3.org/2000/svg">
<path opacity="0.1" d="M188.5 477.84C292.606 477.84 377 469.597 377 459.428C377 449.26 292.606 441.017 188.5 441.017C84.3943 441.017 0 449.26 0 459.428C0 469.597 84.3943 477.84 188.5 477.84Z" fill="black"/>
<path d="M278.156 141.92C271.431 138.324 267.922 141.456 266.146 143.813C253.591 160.509 240.883 199.205 232.471 204.835C220.966 212.531 185.591 215.646 170.485 210.984C165.27 208.465 153.458 202.825 152.989 203.213C151.376 204.536 158.48 209.615 158.48 209.615C158.48 209.615 141.149 204.82 140.912 205.569C140.592 206.587 144.145 210.066 152.439 212.511C152.439 212.511 141.541 209.559 138.271 208.617C138.271 208.617 133.127 212.347 155.052 216.685C155.052 216.685 137.289 213.603 137.28 213.785C137.09 217.911 143.821 217.771 153.202 219.967C153.202 219.967 146.929 219.711 143.378 218.665C143.378 218.665 141.278 222.406 152.564 223.5C160.334 224.256 166.287 222.976 169.803 221.839C174.088 222.503 225.862 230.241 241.497 218.899C254.142 209.726 297.106 152.051 278.156 141.92Z" fill="#BA8174"/>
<path d="M238.912 190.5C238.912 190.5 249.512 200.923 260.57 199.039C260.57 199.039 296.183 151.819 280.126 141.552C264.062 131.289 258.61 156.452 238.912 190.5Z" fill="#F7841C"/>
<path d="M344.27 359.892C344.27 356.404 343.047 352.601 341.62 349.334C334.905 351.483 324.772 352.969 311.671 349.895C309.236 372.609 321.148 423.959 323.884 432.511C326.727 441.413 321.512 446.098 316.771 451.249C312.03 456.402 316.771 461.087 316.771 461.087H348.06V450.779C348.06 450.779 341.423 440.473 340.947 433.446C340.474 426.422 344.27 368.326 344.27 359.892Z" fill="#CE907A"/>
<path d="M265.795 336.951C265.017 343.36 264.381 349.3 264.381 353.803L258.286 433.843L231.738 453.521L223.203 450.712C223.203 450.712 218.937 458.674 232.209 461.486C245.485 464.295 255.914 457.739 261.126 459.144C266.345 460.55 273.456 462.892 279.146 459.144C284.836 455.397 274.876 447.433 273.927 439.936C272.98 432.439 298.281 386.136 297.807 365.989C297.334 345.843 294.015 344.437 294.015 344.437C294.015 344.437 294.401 343.857 295.021 342.646C281.035 343.486 271.446 340.055 265.795 336.951Z" fill="#BA8174"/>
<path d="M242.404 442.1L234.583 449.655L246.851 461.421L256.173 459.331L242.404 442.1Z" fill="#3F3F3F"/>
<path d="M280.986 461.514C280.986 462.92 279.833 464.059 278.406 464.059H225.13C223.708 464.059 222.553 462.92 222.553 461.514C222.553 460.106 223.706 458.967 225.13 458.967H278.406C279.833 458.967 280.986 460.106 280.986 461.514Z" fill="#3F3F3F"/>
<path d="M350.64 462.287C350.64 463.695 349.485 464.835 348.06 464.835H315.853C314.428 464.835 313.275 463.695 313.275 462.287C313.275 460.884 314.426 459.74 315.853 459.74H348.06C349.485 459.74 350.64 460.884 350.64 462.287Z" fill="#3F3F3F"/>
<path d="M314.761 455.029C314.761 455.029 325.302 449.67 348.06 455.029V450.781L344.95 445.275C344.95 445.275 329.94 440.218 321.339 446.085C321.339 446.085 314.641 452.371 314.761 455.029Z" fill="#3F3F3F"/>
<path d="M259.529 284.232C259.529 284.232 265.191 282.462 271.974 284.232L270.074 324.288C270.074 324.288 259.172 326.864 254.431 322.415L259.529 284.232Z" fill="#1C1B2B"/>
<path d="M285.629 273.806C290.16 280.835 303.793 281.186 303.793 281.186V341.621C273.155 346.891 259.528 332.485 259.528 332.485C259.528 332.485 262.963 302.97 264.385 289.619C265.806 276.265 270.073 242.884 270.073 242.884H346.521L348.062 291.373L351.142 344.781C351.142 344.781 333.957 358.135 303.793 347.593L302.046 341.898" fill="#312E4D"/>
<path d="M285.63 273.807C290.16 280.836 303.794 281.186 303.794 281.186V341.621V347.595C333.958 358.137 351.142 344.784 351.142 344.784L348.063 291.376L346.522 242.886H284.062L285.63 273.807Z" fill="#3C3C5E"/>
<path d="M331.367 292.066C331.367 292.066 344.029 289.385 354.224 292.428C354.224 292.428 357.777 322.647 355.885 332.485C355.885 332.485 344.031 338.576 329.335 332.485L331.367 292.066Z" fill="#676799"/>
<path d="M351.718 163.654C351.492 166.992 348.785 207.517 349.123 221.234C349.333 229.669 351.139 250.755 351.153 250.885C351.282 251.821 350.833 252.746 349.998 253.214C349.998 253.214 334.611 260.431 314.516 260.431C298.975 260.431 283.692 257.017 269.081 250.114C268.853 250.008 268.627 249.908 268.403 249.8C267.452 249.345 266.926 248.316 267.114 247.296L267.171 246.976C267.305 246.261 267.428 245.544 267.584 244.823C268.294 237.166 268.783 223.717 269.043 220.251C270.071 206.434 263.614 165.957 263.009 161.139C261.405 148.355 260.414 133.438 306.991 133.438C353.568 133.438 352.867 152.534 351.718 163.654Z" fill="#F9A11B"/>
<path d="M275.835 62.7812C270.859 77.4649 268.382 88.9146 269.476 97.1889C271.234 110.419 277.505 120.021 296.366 120.524L294.866 136.7C294.866 136.7 293.339 148.648 304.721 149.534C316.513 150.45 316.669 137.75 316.669 137.75L315.957 120.415C315.957 120.415 331.639 112.943 336.422 103.921C336.422 103.921 351.002 112.847 354.7 94.9124C357.928 79.2215 338.086 79.4641 335.703 94.7867C335.703 94.7867 349.179 49.8672 313.079 37.9344C297.194 32.6839 282.421 43.3171 275.835 62.7812Z" fill="#CE907A"/>
<path d="M301.688 95.3954L275.616 86.7767C275.616 86.7767 270.46 102.585 284.335 107.172C298.225 111.762 301.688 95.3954 301.688 95.3954Z" fill="#1F1E1D"/>
<path d="M301.899 95.4647C301.899 95.4647 298.414 111.92 284.432 107.296C279.393 105.634 276.841 102.502 275.645 99.173C275.645 99.173 280.208 91.2301 301.899 95.4647Z" fill="#CD7380"/>
<path d="M299.728 100.739C301.201 97.96 301.857 95.4539 301.857 95.4539L275.653 86.7897C275.653 86.7897 274.827 89.2027 274.706 92.4691L299.728 100.739Z" fill="white"/>
<path d="M274.379 92.4583C274.498 89.1832 275.304 86.7854 275.339 86.6836L275.442 86.3781L302.255 95.2416L302.177 95.5319C302.15 95.638 301.488 98.116 300.02 100.893L299.886 101.135L274.366 92.703L274.379 92.4583ZM301.455 95.6597L275.865 87.2034C275.655 87.9247 275.164 89.8373 275.041 92.2395L299.559 100.341C300.627 98.2676 301.243 96.3658 301.455 95.6597Z" fill="white"/>
<path d="M306.115 83.5644C305.955 83.5644 305.791 83.5385 305.627 83.4843C304.824 83.2179 304.392 82.3601 304.66 81.5652L306.028 77.5277C306.323 76.6548 305.844 75.7039 304.956 75.4093C304.079 75.1255 303.112 75.5934 302.814 76.4685L301.449 80.4995C301.177 81.2923 300.313 81.7233 299.505 81.4547C298.702 81.1905 298.268 80.3305 298.538 79.5356L299.904 75.5046C300.736 73.0483 303.439 71.714 305.927 72.5284C308.421 73.3537 309.769 76.0244 308.938 78.4851L307.571 82.5247C307.354 83.1637 306.757 83.5644 306.115 83.5644Z" fill="#262324"/>
<path d="M283.567 76.1089C283.405 76.1089 283.241 76.0829 283.079 76.0288C282.274 75.7624 281.842 74.9024 282.114 74.1097L283.484 70.0786C283.78 69.2036 283.298 68.2527 282.412 67.9581C281.514 67.6657 280.564 68.14 280.271 69.013L278.91 73.0505C278.642 73.8454 277.77 74.2721 276.97 74.01C276.165 73.7458 275.731 72.8858 275.999 72.0931L277.36 68.0534C278.195 65.5949 280.893 64.265 283.385 65.0837C285.878 65.909 287.226 68.5819 286.393 71.0425L285.021 75.0736C284.806 75.7104 284.209 76.1089 283.567 76.1089Z" fill="#262324"/>
<path d="M315.959 120.413C315.959 120.413 305.269 121.325 296.366 120.524L295.187 133.726C295.187 133.726 307.669 136.741 316.288 130.362L315.959 120.413Z" fill="#BA8174"/>
<path d="M278.945 24.5461L285.159 27.637C282.649 26.0363 279.743 23.1165 281.417 18.6523C283.346 13.5187 286.167 14.1404 286.167 14.1404C286.167 14.1404 359.272 27.7822 355.934 52.369C355.829 53.1315 355.737 53.8419 355.645 54.5112C358.012 57.9531 368.601 75.2122 355.02 91.5702C355.02 91.5702 349.729 71.8634 336.179 94.2842L331.55 91.9882C331.55 91.9882 336.348 77.5797 327.486 73.1782C318.624 68.7725 321.206 58.0852 321.206 58.0852L283.326 41.3373C283.326 41.3373 274.055 34.4319 278.945 24.5461Z" fill="#2B2928"/>
<path d="M233.086 221.395C234.616 223.223 225.535 227.446 225.535 227.446C225.535 227.446 246.064 225.685 246.169 226.578C246.309 227.791 241.566 230.958 231.707 231.971C231.707 231.971 244.602 230.934 248.483 230.561C248.483 230.561 253.47 235.836 227.871 236.119C227.871 236.119 248.514 236.375 248.486 236.581C247.815 241.264 240.268 239.693 229.248 240.198C229.248 240.198 236.36 241.227 240.582 240.791C240.582 240.791 242.14 245.44 229.206 244.305C214.431 243.01 206.433 236.455 206.433 236.455L208.732 227.291C208.732 227.291 213.076 226.088 218.098 224.765C224.824 222.991 232.757 221.002 233.086 221.395Z" fill="#F9B893"/>
<path d="M100.072 127.238C76.72 135.099 119.604 207.993 131.863 220.963C147.677 237.698 210.676 243.263 210.676 243.263L212.045 225.547C212.045 225.547 154.634 217.652 143.311 206.553C135.056 198.456 113.495 129.55 113.495 129.55C113.495 129.55 104.362 125.794 100.072 127.238Z" fill="#FAF8F0"/>
<path d="M96.5825 436.425H86.1865V455.02H96.5825V436.425Z" fill="#E8A385"/>
<path d="M85.2394 446.609C81.9472 447.389 77.8594 449.547 77.8594 457.056C77.8594 464.557 77.8594 462.339 77.8594 462.339H125.874C125.874 462.339 126.591 457.57 125.008 456.151C122.126 453.569 113.227 454.702 109.88 452.54C106.279 450.216 107.925 446.267 96.3894 446.267C96.3894 446.267 87.9069 445.977 85.2394 446.609Z" fill="#3F3F3F"/>
<path d="M77.8594 462.337C77.8594 463.832 79.089 465.045 80.5992 465.045H123.134C124.645 465.045 125.874 463.832 125.874 462.337H77.8594Z" fill="#FAF8F0"/>
<path d="M48.57 436.425H38.1719V455.02H48.57V436.425Z" fill="#E8A385"/>
<path d="M37.2267 446.609C33.9323 447.389 29.8467 449.547 29.8467 457.056C29.8467 464.557 29.8467 462.339 29.8467 462.339H77.8594C77.8594 462.339 78.5783 457.57 76.9936 456.151C74.1134 453.569 65.2124 454.702 61.8676 452.54C58.2664 450.216 59.9102 446.267 48.3745 446.267C48.3745 446.267 39.892 445.977 37.2267 446.609Z" fill="#3F3F3F"/>
<path d="M29.8467 462.337C29.8467 463.832 31.0741 465.045 32.5865 465.045H75.1196C76.6319 465.045 77.8594 463.832 77.8594 462.337H29.8467Z" fill="#FAF8F0"/>
<path d="M113.773 182.802H30.4541V412.499H113.773V182.802Z" fill="#C1C0BF"/>
<path d="M112.171 259.742L36.9504 260.396L34.5635 125.404L63.0577 119.989L86.436 123.149L113.56 129.736L112.171 259.742Z" fill="#4889B3"/>
<path d="M113.615 253.974H35.9949C35.9949 253.974 33.9389 265.783 45.3476 274.047C45.1306 294.18 49.6897 359.781 49.6897 359.781L30.4561 443.77H54.8142L70.1967 357.124C70.1967 357.124 67.5708 302.868 68.1539 279.741C70.1397 279.887 71.8471 280.335 74.085 280.335C76.2922 280.335 77.8617 280.599 79.9505 280.465V443.77H100.824V274.692C115.437 266.496 113.615 253.974 113.615 253.974Z" fill="#3F3F3F"/>
<path d="M86.4147 123.827L113.774 128.711V412.499H82.4453L86.4147 123.827Z" fill="#FAF8F0"/>
<path d="M90.4084 123.827L108.274 127.563V159.983H97.0607L104.377 179.705L84.543 259.196L86.4148 123.039L90.4084 123.827Z" fill="#D8D5D4"/>
<path d="M59.1495 119.88L24.5576 127.113L30.4537 412.499H63.1409L59.1495 119.88Z" fill="#FAF8F0"/>
<path d="M59.15 119.88L41.2842 123.617V159.983H52.4999L45.1769 179.705L61.0614 260.396L63.1414 119.88H59.15Z" fill="#D8D5D4"/>
<path d="M65.2363 116.556C65.0872 116.614 50.4938 122.319 54.1893 137.378C56.8743 148.334 70.9307 204.653 70.9307 204.653L73.4864 204.031C73.4864 204.031 59.4278 147.714 56.745 136.765C53.9438 125.339 63.211 120.316 65.6133 119.222L66.0582 116.248L65.2363 116.556Z" fill="#221A17"/>
<path d="M79.7533 117.595C80.299 117.517 93.1653 115.847 96.738 128.603L105.576 160.134L108.109 159.443L99.2718 127.91C95.0919 112.973 79.5319 115 79.3785 115.022L78.9971 115.076L79.0453 117.695L79.7533 117.595Z" fill="#221A17"/>
<path d="M77.9593 197.622C77.9045 201.651 74.5554 204.87 70.4829 204.818C66.4104 204.77 63.1424 201.469 63.195 197.442C63.2476 193.411 66.5989 190.188 70.6692 190.238C74.7439 190.288 78.0075 193.591 77.9593 197.622Z" fill="#221A17"/>
<path d="M74.7201 197.581C74.6894 199.842 72.8132 201.649 70.5271 201.618C68.241 201.592 66.4064 199.741 66.4349 197.479C66.4656 195.216 68.3462 193.407 70.6279 193.435C72.9118 193.465 74.7486 195.32 74.7201 197.581Z" fill="#FAF8F0"/>
<path d="M102.978 194.243C102.831 194.243 102.678 194.211 102.538 194.146C97.2488 191.648 93.3977 187.002 91.9708 181.396C90.6973 176.378 91.4732 171.17 94.1604 166.732C96.8498 162.294 101.126 159.155 106.203 157.897C111.279 156.63 116.548 157.401 121.041 160.056C125.53 162.712 128.706 166.938 129.984 171.954C131.571 178.203 129.921 184.803 125.565 189.61C125.188 190.026 124.54 190.06 124.121 189.688C123.7 189.315 123.665 188.676 124.042 188.26C127.941 183.957 129.421 178.045 127.998 172.448C126.856 167.954 124.011 164.17 119.991 161.791C115.972 159.413 111.253 158.724 106.702 159.857C102.154 160.983 98.3249 163.795 95.9183 167.767C93.5116 171.742 92.8146 176.406 93.9566 180.9C95.2344 185.919 98.6823 190.082 103.419 192.317C103.927 192.558 104.144 193.162 103.901 193.667C103.726 194.031 103.36 194.243 102.978 194.243Z" fill="#221A17"/>
<path d="M128.294 188.07C128.737 189.822 127.654 191.596 125.881 192.036C124.112 192.476 122.31 191.416 121.87 189.662C121.423 187.91 122.497 186.127 124.27 185.689C126.045 185.25 127.847 186.32 128.294 188.07Z" fill="#221A17"/>
<path d="M106.904 192.749C107.345 194.503 106.266 196.275 104.489 196.715C102.722 197.159 100.922 196.097 100.477 194.345C100.032 192.59 101.107 190.808 102.88 190.368C104.657 189.93 106.459 190.998 106.904 192.749Z" fill="#221A17"/>
<path d="M104.559 151.433L115.055 157.646L98.2832 161.809L104.559 151.433Z" fill="#221A17"/>
<path d="M107.188 155.735C107.379 156.495 106.908 157.266 106.141 157.457C105.369 157.648 104.587 157.191 104.396 156.424C104.201 155.664 104.668 154.888 105.437 154.697C106.211 154.509 106.995 154.975 107.188 155.735Z" fill="#FAF8F0"/>
<path d="M106.502 62.3957C110.031 76.0244 111.524 86.5601 109.983 93.9897C107.517 105.868 101.202 114.16 84.0707 113.395L84.3534 128.153C84.3534 128.153 85.32 139.622 74.5755 139.145C63.3773 138.651 64.5281 127.693 64.5281 127.693L66.321 112.029C66.321 112.029 52.6 104.239 48.8628 95.7571C48.8628 95.7571 34.4469 102.968 32.9017 86.4063C31.4068 70.3775 48.979 73.4837 50.1232 87.5262C50.1232 87.5262 40.8867 45.9445 74.3937 37.4688C89.1449 33.7367 101.823 44.3286 106.502 62.3957Z" fill="#E8A385"/>
<path d="M109.481 76.3298C105.282 81.1471 93.849 82.9818 93.849 82.9818C70.7073 87.1081 53.3917 80.298 49.0343 78.3313L48.8633 95.7593C48.8633 95.7593 52.6727 104.655 66.3214 112.031C66.3214 112.031 77.855 113.558 84.0711 113.395C84.0711 113.395 91.2539 113.958 97.0754 111.662C97.0754 111.662 108.431 108.06 110.31 91.9904C110.31 91.9904 111.2 85.8171 109.869 78.3919L109.481 76.3298Z" fill="#7F7E7F"/>
<path d="M80.9111 90.2792L105.111 84.1558C105.111 84.1558 108.737 98.8156 95.8509 102.075C82.9649 105.333 80.9111 90.2792 80.9111 90.2792Z" fill="#1F1E1D"/>
<path d="M80.7178 90.3269C80.7178 90.3269 82.7804 105.465 95.7562 102.186C100.436 101.005 102.959 98.3282 104.263 95.3889C104.263 95.3889 100.655 87.8965 80.7178 90.3269Z" fill="#CD7380"/>
<path d="M82.3352 95.2459C81.1845 92.6337 80.7549 90.3203 80.7549 90.3203L105.076 84.1644C105.076 84.1644 105.665 86.4063 105.56 89.3738L82.3352 95.2459Z" fill="white"/>
<path d="M105.85 89.6055L82.1602 95.5968L82.0594 95.3672C80.913 92.7528 80.4769 90.4655 80.4572 90.3723L80.4111 90.1016L105.295 83.807L105.365 84.0886C105.396 84.1796 105.964 86.4041 105.859 89.3803L105.85 89.6055ZM82.511 94.8972L105.267 89.142C105.319 86.9586 104.999 85.1933 104.859 84.5262L81.1037 90.5348C81.2484 91.1889 81.6802 92.9521 82.511 94.8972Z" fill="white"/>
<path d="M83.4665 76.4555C83.8698 78.0042 82.9251 79.5876 81.3513 79.9839C79.7885 80.3782 78.1841 79.4424 77.783 77.8937L76.8142 74.1486C76.4087 72.5999 77.36 71.0208 78.925 70.6245C80.5009 70.2259 82.0922 71.1638 82.4977 72.7125L83.4665 76.4555Z" fill="#262324"/>
<path d="M104.39 71.1638C104.793 72.7082 103.848 74.2916 102.272 74.6901C100.705 75.0908 99.1093 74.1486 98.7104 72.5999L97.7394 68.8548C97.3383 67.3039 98.2873 65.7248 99.8479 65.3285C101.426 64.9299 103.017 65.87 103.425 67.4165L104.39 71.1638Z" fill="#262324"/>
<path d="M66.3197 112.031C66.3197 112.031 75.9486 113.551 84.0694 113.395L84.2622 125.439C84.2622 125.439 72.7528 127.364 65.3662 121.024L66.3197 112.031Z" fill="#D9967D"/>
<path d="M49.8605 87.3529L54.2004 85.5702C54.2004 85.5702 49.0956 69.3812 57.4247 65.961C65.7516 62.5429 64.1537 55.6376 64.1537 55.6376C64.1537 55.6376 93.5049 48.8622 101.582 43.2521C104.986 40.8889 108.068 34.9778 106.141 27.3576C106.141 27.3576 95.311 31.8912 97.4349 30.8948C117.284 21.5808 98.4848 -2.57068 96.4442 0.223521C78.5411 24.702 53.819 25.8392 34.1296 37.2153C22.9861 43.6572 20.3516 65.9718 32.8912 83.5125C32.8912 83.5125 38.1604 64.0093 49.8605 87.3529Z" fill="#262324"/>
<path d="M87.7729 59.5624C88.459 61.0224 87.808 62.753 86.3263 63.4223L71.9038 70.6071C70.4265 71.2786 68.6752 70.6396 67.9979 69.1775C67.3163 67.7154 67.9629 65.9869 69.4446 65.3133L83.8648 58.1307C85.3443 57.4592 87.0956 58.0982 87.7729 59.5624Z" fill="#262324"/>
<path d="M91.5298 62.6924C91.9572 64.2455 93.577 65.1574 95.1464 64.735L106.005 62.2614C107.574 61.8368 108.504 60.2361 108.074 58.683C107.642 57.13 106.025 56.2181 104.451 56.6426L93.5945 59.1163C92.0251 59.5408 91.098 61.1394 91.5298 62.6924Z" fill="#262324"/>
<path fill-rule="evenodd" clip-rule="evenodd" d="M113.398 64.6787C113.067 64.7848 113.017 64.5595 112.918 64.3256C111.836 61.813 109.841 60.639 107.123 61.1848C103.824 61.8455 100.655 62.961 97.7025 64.592C96.3676 65.3263 95.4229 66.4028 95.1884 67.9949C95.0218 69.1342 95.5588 70.0656 95.9797 71.0273C96.2536 71.6555 96.6219 72.2533 97.0164 72.8187C99.2631 76.0526 102.682 77.1356 106.577 75.8706C111.527 74.2613 113.789 70.7263 113.195 65.5451C113.166 65.3025 112.945 64.9386 113.425 64.8389C114.382 69.0584 112.804 73.4945 108.502 75.5306C107.024 76.2324 105.462 76.7934 103.848 76.815C101.554 76.8389 99.4954 76.1024 97.7989 74.4259C96.3522 72.9898 95.4404 71.3133 94.9188 69.3963C94.7347 68.714 94.3708 68.5169 93.6606 68.6469C91.7208 68.9999 89.86 69.5826 88.0364 70.3082C87.5235 70.514 87.4248 70.7869 87.5629 71.2959C88.032 72.9421 88.2534 74.6252 88.0627 76.3342C87.6681 79.763 85.7546 82.0201 82.5326 83.2244C81.0596 83.7702 79.5363 84.067 77.9516 84.0106C74.3613 83.8829 70.9091 81.3789 69.6532 78.002C69.6006 77.8569 69.4713 77.6858 69.662 77.5818C69.9229 77.4367 69.9666 77.6858 70.0412 77.8461C70.554 79.0266 71.2533 80.0901 72.1651 81.0063C74.9773 83.859 78.3637 84.2034 81.9781 82.9861C86.3157 81.5284 88.1569 78.2316 87.6681 73.6634C87.2122 69.4115 84.7332 68.6187 81.5901 69.0194C78.6815 69.3898 75.8058 69.9876 73.0703 71.0425C70.0522 72.2078 69.0856 74.6078 69.7278 76.8757C69.8483 77.3089 69.6248 77.3847 69.3113 77.4475C69.0286 77.5038 68.7173 77.7703 68.5376 77.2612C68.268 76.4836 67.652 76.0179 66.9068 75.7082C66.0673 75.3573 66.2733 74.4974 66.0344 73.8714C65.8591 73.4122 66.4378 73.345 66.7205 73.1761C70.53 70.8671 74.5652 69.0996 78.9927 68.3155C81.7348 67.8281 84.5119 67.618 87.1969 68.4454C88.089 68.7183 88.6917 68.4649 89.4567 68.3155C91.6836 67.8757 93.3735 66.6909 95.081 65.2483C98.6077 62.2743 102.902 60.9076 107.436 60.1733C108.747 59.9588 110.069 59.831 111.377 59.6318C112.261 59.4953 113.216 59.5516 114.141 59.5776C114.242 59.5798 114.334 59.5646 114.426 59.6643C114.784 60.0563 114.878 61.5444 114.569 62.0166C114.227 62.5408 113.953 63.1278 114.084 63.7408C114.218 64.3819 113.9 64.5617 113.398 64.6787Z" fill="#151515"/>
<path d="M66.1968 73.4187L39.877 75.8966C39.877 75.8966 40.7208 75.6519 42.757 77.1919L66.9026 75.7082L66.1968 73.4187Z" fill="#151515"/>
<path d="M184.649 249.183C186.058 251.557 174.86 254.734 174.86 254.734C174.86 254.734 198.716 256.478 198.666 257.52C198.602 258.937 192.57 261.698 181.083 261.051C181.083 261.051 196.055 262.225 200.575 262.511C200.575 262.511 205.296 269.464 175.91 265.099C175.91 265.099 199.518 269.175 199.444 269.407C197.798 274.649 189.447 271.467 176.723 270.029C176.723 270.029 184.682 272.511 189.598 272.786C189.598 272.786 190.51 278.398 175.903 274.727C159.219 270.536 151.284 261.56 151.284 261.56L155.637 251.481C155.637 251.481 184.12 248.293 184.649 249.183Z" fill="#F9B893"/>
<path d="M24.6127 126.953C-3.61849 131.681 39.3507 212.912 52.103 229.207C66.2186 247.246 155.103 267.202 155.103 267.202L159.379 250.955C159.379 250.955 84.2992 233.388 73.4123 218.596C65.469 207.807 35.927 140.683 35.927 140.683C35.927 140.683 29.8008 126.084 24.6127 126.953Z" fill="#FAF8F0"/>
<path d="M351.827 145.111C344.232 141.87 340.756 145.572 339.074 148.279C327.151 167.449 317.191 210.335 308.669 217.188C297.015 226.565 259.205 233.247 242.479 229.647C236.618 227.42 223.351 222.458 222.882 222.919C221.271 224.498 229.413 229.301 229.413 229.301C229.413 229.301 210.276 225.766 210.094 226.595C209.849 227.724 214.011 231.135 223.184 232.989C223.184 232.989 211.162 230.834 207.543 230.126C207.543 230.126 202.364 234.627 226.402 237.239C226.402 237.239 206.969 235.591 206.978 235.788C207.17 240.252 214.41 239.466 224.727 240.95C224.727 240.95 217.941 241.264 214.013 240.471C214.013 240.471 212.113 244.699 224.379 244.816C232.822 244.898 239.112 242.96 242.79 241.404C247.472 241.719 303.996 245.182 319.747 231.493C332.486 220.42 373.219 154.24 351.827 145.111Z" fill="#CE907A"/>
<path d="M314.228 201.14C314.228 201.14 326.651 211.37 338.384 208.301C338.384 208.301 372.204 154.076 353.913 144.528C335.62 134.98 332.17 162.604 314.228 201.14Z" fill="#F7B31C"/>
<path d="M218.099 224.765C224.823 222.991 232.758 221.002 233.087 221.395C234.617 223.223 225.536 227.446 225.536 227.446" fill="#F9B893"/>
</svg>
