<svg width="508" height="420" viewBox="0 0 508 420" fill="none" xmlns="http://www.w3.org/2000/svg">
<path d="M189.023 244.933H180.858V390.833H189.023V244.933Z" fill="#E6E0CA"/>
<path d="M189.263 245.145H180.689V280.246H189.263V245.145Z" fill="#AAAAAA"/>
<path d="M201.268 244.519C201.268 246.71 199.444 248.489 197.195 248.489H172.759C170.51 248.489 168.687 246.71 168.687 244.519V244.102C168.687 241.91 170.51 240.133 172.759 240.133H197.195C199.444 240.133 201.268 241.91 201.268 244.102V244.519Z" fill="#AAAAAA"/>
<path d="M213.272 233.446C213.272 238.061 209.433 241.803 204.698 241.803H141.253C136.517 241.803 132.679 238.063 132.679 233.446V163.244C132.679 158.628 136.517 154.887 141.253 154.887H204.698C209.433 154.887 213.272 158.627 213.272 163.244V233.446Z" fill="#E1DDD9"/>
<path d="M189.266 238.459H253.57C258.305 238.459 261.286 241.364 261.286 245.981V249.323C261.286 253.939 258.305 258.516 253.57 258.516H190.123C185.386 258.516 180.548 254.357 180.548 249.743C180.548 249.743 182.406 240.653 163.544 240.969V238.459H189.266Z" fill="#E1DDD9"/>
<path d="M167.932 402.77V397.248C167.932 392.632 172.525 390.169 177.261 390.169H230.418C235.153 390.169 238.688 392.423 238.688 397.039V402.77" stroke="#E6E0CA" stroke-width="5" stroke-miterlimit="10"/>
<path d="M139.356 402.77V397.248C139.356 392.632 143.375 390.169 148.11 390.169H201.268C206.004 390.169 208.754 392.423 208.754 397.039V402.77" stroke="#E6E0CA" stroke-width="5" stroke-miterlimit="10"/>
<path d="M149.825 408.948C149.825 413.564 145.986 417.305 141.251 417.305H137.822C133.087 417.305 129.248 413.565 129.248 408.948V405.604C129.248 400.988 133.085 397.247 137.822 397.247H141.251C145.986 397.247 149.825 400.987 149.825 405.604V408.948Z" fill="#000009"/>
<path d="M178.976 408.948C178.976 413.564 175.138 417.305 170.402 417.305H166.971C162.236 417.305 158.397 413.565 158.397 408.948V405.604C158.397 400.988 162.236 397.247 166.971 397.247H170.402C175.137 397.247 178.976 400.987 178.976 405.604V408.948Z" fill="#000009"/>
<path d="M220.131 408.948C220.131 413.564 216.292 417.305 211.557 417.305H208.128C203.392 417.305 199.554 413.565 199.554 408.948V405.604C199.554 400.988 203.391 397.247 208.128 397.247H211.557C216.292 397.247 220.131 400.987 220.131 405.604V408.948Z" fill="#000009"/>
<path d="M249.281 408.948C249.281 413.564 245.444 417.305 240.707 417.305H237.278C232.543 417.305 228.704 413.565 228.704 408.948V405.604C228.704 400.988 232.543 397.247 237.278 397.247H240.707C245.442 397.247 249.281 400.987 249.281 405.604V408.948Z" fill="#000009"/>
<path d="M265.777 91.7587L246.57 85.046C246.57 85.046 248.342 85.5541 249.094 87.4056L265.589 93.6634L265.777 91.7587Z" fill="#151515"/>
<path d="M298.687 210.687C315.707 212.968 324.967 224.314 316.589 228.407C308.241 232.488 305.253 223.67 305.253 223.67C303.777 220.423 300.433 219.442 294.973 219.075L298.687 210.687Z" fill="#E8A385"/>
<path d="M297.201 221.221C273.726 220.015 250.147 208.413 232.665 193.161C215.181 177.906 225.324 157.571 225.35 149.097C225.379 140.622 224.72 125.977 235.775 127.972C246.833 129.967 246.826 136.558 246.141 141.148C245.643 144.487 244.024 149.418 240.865 153.942C237.837 158.272 245.612 159.415 244.671 177.813C244.373 183.589 250.273 187.78 251.337 188.647C258.004 194.066 284.683 208.799 301.134 210.749L297.201 221.221Z" fill="#E1DDD9"/>
<path d="M165.761 219.762C165.759 219.722 165.758 219.683 165.755 219.646C165.306 212.111 167.821 203.226 172.876 192.017C185.197 164.683 178.445 132.052 190.742 126.686C201.068 122.179 218.632 124.883 218.632 124.883C253.454 128.487 242.445 141.338 239.431 148.161C231.635 165.823 227.667 201.766 224.452 219.577C224.445 219.634 224.433 219.69 224.423 219.746L165.761 219.762Z" fill="#FAF8F0"/>
<path d="M211.551 90.0783C212.915 80.0205 201.937 76.4672 199.176 86.383C195.784 98.563 207.723 97.5271 207.723 97.5271C207.847 104.546 215.263 113.949 215.263 113.949L210.476 122.364L209.512 124.056L209.313 124.408C209.313 124.408 205.224 131.754 213.03 135.323C220.522 138.746 223.261 130.433 223.261 130.433L225.141 125.771L225.774 124.204L227.466 120.013C239.403 125.475 246.369 121.48 251.665 113.866C254.98 109.105 257.065 101.295 258.629 90.7308C260.701 76.7258 254.854 65.656 243.266 64.0312C221.016 60.905 213.382 83.1162 211.551 90.0783Z" fill="#E8A385"/>
<path d="M266.098 213.453C282.223 215.615 290.992 226.363 283.062 230.24C275.15 234.105 272.316 225.753 272.316 225.753C270.92 222.676 267.754 221.747 262.579 221.401L266.098 213.453Z" fill="#E8A385"/>
<path d="M207.996 236.594C262.85 232.992 267.042 247.685 267.042 247.685C276.594 260.895 214.963 305.036 214.963 305.036L224.206 315.55C291.693 262.095 290.157 246.124 278.135 235.972C264.268 224.255 222.993 223.767 222.993 223.767C222.993 223.767 218.964 234.115 206.688 236.671L207.996 236.594Z" fill="#262324"/>
<path d="M209.353 320.996C209.381 321.087 211.335 316.968 215.499 318.697C218.373 319.891 217.491 322.229 217.491 322.229C217.486 322.233 217.486 322.237 217.485 322.244C215.525 326.838 219.399 343.243 219.399 343.243C218.259 348.889 214.752 347.812 213.562 346.632C199.945 333.139 198.272 311.317 198.272 311.317L201.978 308.746C209.949 304.875 211.148 309.301 211.148 309.301C211.148 309.301 206.26 311.616 209.353 320.996Z" fill="#262324"/>
<path d="M216.203 306.67C216.203 306.67 214.656 308.138 211.149 309.299C207.637 310.461 207.268 317.984 209.354 320.994C209.354 320.994 216.146 315.721 217.493 322.228C217.493 322.228 217.046 316.653 222.612 313.47L216.203 306.67Z" fill="#E6C4A5"/>
<path d="M198.273 311.316C198.273 311.316 196.002 312.15 195.13 313.112C195.13 313.112 197.137 341.915 212.904 349.035C216.804 350.794 220.546 348.674 219.389 343.252C219.389 343.252 219.498 346.711 214.519 345.25C213.172 344.854 203.143 340.574 198.273 311.316Z" fill="#E1DDD9"/>
<path d="M185.161 390.042C185.161 390.042 183.506 391.77 183.159 393.009C183.159 393.009 198.029 417.978 215.399 417.564C219.696 417.463 222.09 413.944 218.594 409.581C218.594 409.581 220.257 412.639 215.131 413.472C213.744 413.698 202.803 414.186 185.161 390.042Z" fill="#FAF8F0"/>
<path d="M199.137 378.147C199.137 378.147 198.413 380.13 195.795 382.682C193.176 385.235 196.258 392.147 199.494 393.948C199.494 393.948 203.191 386.29 207.352 391.543C207.352 391.543 204.422 386.735 207.965 381.482L199.137 378.147Z" fill="#E6C4A5"/>
<path d="M199.492 393.949C199.56 394.018 199.441 389.481 203.96 389.234C207.078 389.068 207.351 391.545 207.351 391.545C207.351 391.551 207.351 391.554 207.351 391.561C207.678 396.527 218.596 409.569 218.596 409.569C220.137 415.125 216.504 415.671 214.9 415.125C196.563 408.892 185.161 390.043 185.161 390.043L187.321 386.143C192.715 379.234 195.795 382.685 195.795 382.685C195.795 382.685 192.461 386.872 199.492 393.949Z" fill="#3F3F3F"/>
<path d="M165.761 219.77C166.444 230.553 173.226 238.572 187.354 246.693C211.39 260.503 243.132 275.809 225.874 312.457L192.9 375.692L209.541 381.998L241.899 313.959C241.899 313.959 269.632 264.404 200.297 237.833C200.297 237.833 221.099 237.833 224.335 220.26C224.362 220.101 224.394 219.921 224.423 219.756" fill="#3F3F3F"/>
<path d="M204.422 218.543C204.422 219.248 205.008 219.82 205.735 219.82C206.455 219.82 207.043 219.248 207.043 218.543L219.337 135.705C219.337 135.001 218.75 134.43 218.029 134.43C217.304 134.43 216.717 135.001 216.717 135.705L204.422 218.543Z" fill="#E1DDD9"/>
<path d="M268.6 212.77C224.013 211.161 204.329 185.768 204.329 185.768C204.742 169.311 194.086 158.696 195.247 152.81C196.517 146.377 199.376 137.921 199.376 137.921C199.376 137.921 203.504 126.251 190.705 125.042C177.911 123.834 168.878 137.839 175.088 151.113C179.211 159.931 164.979 182.724 189.88 198.283C212.475 212.4 239.389 224.925 266.261 224.036L268.6 212.77Z" fill="#FAF8F0"/>
<path d="M256.679 101.165C252.257 103.333 243.497 101.511 243.497 101.511C225.823 97.7473 215.554 87.9959 213.048 85.3644L207.722 97.5284C207.722 97.5284 207.773 104.855 215.261 113.95C215.261 113.95 223.001 118.336 227.464 120.013C227.464 120.013 232.053 122.425 237.218 122.538C241.815 122.638 246.098 123.134 252.494 112.564C255.177 108.129 256.679 101.165 256.679 101.165Z" fill="#7F7E7F"/>
<path d="M232.124 102.905L251.143 105.577C251.143 105.577 249.341 116.892 239.216 115.469C229.087 114.044 232.124 102.905 232.124 102.905Z" fill="#1F1E1D"/>
<path d="M231.973 102.883C231.973 102.883 228.917 114.084 239.116 115.516C242.792 116.036 245.383 114.886 247.187 113.202C247.187 113.202 246.858 106.914 231.973 102.883Z" fill="#CD7380"/>
<path d="M231.652 106.797C231.615 104.636 232.002 102.89 232.002 102.89L251.114 105.573C251.114 105.573 250.864 107.313 249.901 109.363L231.652 106.797Z" fill="white"/>
<path d="M250.037 109.608L231.422 106.992L231.418 106.8C231.387 104.64 231.758 102.911 231.773 102.839L231.818 102.638L251.377 105.384L251.342 105.601C251.335 105.674 251.074 107.397 250.112 109.452L250.037 109.608ZM231.881 106.602L249.765 109.114C250.453 107.599 250.754 106.27 250.852 105.762L232.184 103.138C232.096 103.64 231.872 105 231.881 106.602Z" fill="white"/>
<path d="M238.067 93.9539C237.889 95.1569 236.747 95.9925 235.51 95.8201C234.283 95.6463 233.421 94.5269 233.601 93.3278L234.029 90.4245C234.205 89.2228 235.355 88.3898 236.584 88.5636C237.818 88.7373 238.671 89.8528 238.495 91.0518L238.067 93.9539Z" fill="#262324"/>
<path d="M254.509 96.2657C254.335 97.4634 253.19 98.3017 251.952 98.1306C250.723 97.9582 249.869 96.8387 250.047 95.6397L250.473 92.7363C250.655 91.5346 251.798 90.7003 253.027 90.8728C254.267 91.0465 255.116 92.162 254.944 93.3623L254.509 96.2657Z" fill="#262324"/>
<path d="M215.263 113.95C215.263 113.95 221.651 117.785 227.466 120.013L224.005 128.503C224.005 128.503 215.256 126.542 211.9 119.974L215.263 113.95Z" fill="#D9967D"/>
<path d="M210.941 91.0757H214.557C214.557 91.0757 215.765 78.6875 222.702 78.6875C229.637 78.6875 230.566 73.6009 230.566 73.6009C230.566 73.6009 253.439 77.4023 260.85 75.7947C263.975 75.1183 267.928 71.9178 268.835 66.0234C268.835 66.0234 259.788 66.1123 261.596 66.0248C278.478 65.2064 272.334 42.8944 270.051 44.2645C250.025 56.2641 232.122 49.9546 214.739 52.2638C204.901 53.5716 196.366 68.0302 200.038 83.9266C200.038 83.9266 209.602 72.5067 210.941 91.0757Z" fill="#262324"/>
<path d="M246.171 83.3563C246.221 84.5765 245.242 85.6018 243.99 85.6456L231.598 86.5302C230.348 86.5767 229.295 85.6243 229.248 84.4028C229.201 83.1838 230.181 82.1586 231.432 82.1135L243.818 81.2288C245.072 81.185 246.126 82.136 246.171 83.3563Z" fill="#262324"/>
<path d="M247.903 86.6311C247.745 87.842 248.622 88.9482 249.865 89.1021L258.315 90.4921C259.558 90.6473 260.695 89.7918 260.855 88.5808C261.014 87.3698 260.135 86.2637 258.891 86.1098L250.44 84.7185C249.197 84.5659 248.06 85.4201 247.903 86.6311Z" fill="#262324"/>
<path d="M209.503 124.075L221.522 139.441L218.089 144L201.202 124.322C201.202 124.322 206.01 123.9 209.503 124.075Z" fill="#E1DDD9"/>
<path d="M225.208 125.753L213.624 138.797L218.087 144L230.928 126.95C230.928 126.95 226.345 125.845 225.208 125.753Z" fill="#E1DDD9"/>
<path d="M209.901 122.367C209.798 122.37 199.572 122.524 198.313 132.41C197.398 139.602 192.845 176.632 192.845 176.632L194.547 176.831C194.547 176.831 199.099 139.805 200.014 132.616C200.97 125.114 207.79 124.174 209.512 124.056L210.476 122.364L209.901 122.367Z" fill="#221A17"/>
<path d="M225.592 125.883C225.94 125.969 234.108 128.116 233.032 136.558L230.375 157.435L232.077 157.64L234.734 136.763C235.994 126.877 226.118 124.288 226.018 124.264L225.775 124.204L225.143 125.771L225.592 125.883Z" fill="#221A17"/>
<path d="M220.832 178.098C218.443 175.627 217.161 172.184 217.624 168.556C218.447 162.088 224.493 157.496 231.128 158.301C237.767 159.102 242.475 164.995 241.653 171.462C241.139 175.504 238.584 178.814 235.12 180.533" stroke="#221A17" stroke-width="0.9336" stroke-miterlimit="10" stroke-linecap="round" stroke-linejoin="round"/>
<path d="M237.448 180.814C237.301 181.966 236.222 182.781 235.038 182.638C233.857 182.498 233.017 181.448 233.164 180.294C233.31 179.142 234.39 178.32 235.57 178.463C236.755 178.607 237.595 179.662 237.448 180.814Z" fill="#221A17"/>
<path d="M223.275 179.099C223.13 180.252 222.052 181.068 220.867 180.924C219.684 180.781 218.842 179.733 218.992 178.581C219.137 177.427 220.217 176.606 221.4 176.749C222.58 176.891 223.424 177.945 223.275 179.099Z" fill="#221A17"/>
<path d="M231.754 153.405L236.512 159.359L225.647 158.043L231.754 153.405Z" fill="#221A17"/>
<path d="M232.219 156.781C232.159 157.254 231.714 157.598 231.225 157.538C230.737 157.48 230.393 157.039 230.453 156.567C230.513 156.09 230.958 155.749 231.446 155.809C231.935 155.867 232.28 156.301 232.219 156.781Z" fill="white"/>
<path d="M198.47 178.548C198.142 181.118 195.737 182.939 193.103 182.618C190.467 182.301 188.592 179.962 188.92 177.392C189.248 174.821 191.654 172.997 194.287 173.315C196.922 173.635 198.799 175.976 198.47 178.548Z" fill="#221A17"/>
<path fill-rule="evenodd" clip-rule="evenodd" d="M263.923 95.4646C263.641 95.4421 263.676 95.263 263.675 95.0587C263.653 92.8756 262.528 91.4033 260.323 90.9828C257.644 90.4709 254.92 90.3329 252.197 90.6433C250.967 90.7826 249.921 91.2905 249.244 92.3954C248.76 93.1859 248.87 94.0374 248.884 94.8757C248.891 95.4235 248.978 95.9752 249.095 96.5124C249.76 99.5829 251.978 101.419 255.293 101.665C259.506 101.977 262.313 100.052 263.498 96.0442C263.554 95.8559 263.502 95.5203 263.895 95.5933C263.283 98.9994 260.704 101.798 256.841 101.998C255.515 102.069 254.169 102.009 252.952 101.534C251.227 100.859 249.915 99.689 249.176 97.9356C248.544 96.4368 248.386 94.9221 248.603 93.3477C248.681 92.7867 248.47 92.532 247.895 92.4126C246.331 92.085 244.753 91.9498 243.158 91.9338C242.71 91.9299 242.55 92.101 242.496 92.5188C242.329 93.8769 241.966 95.1874 241.283 96.3917C239.91 98.8044 237.765 99.892 234.972 99.8031C233.698 99.7607 232.462 99.5166 231.296 98.9954C228.647 97.8122 226.849 94.9155 226.972 92.0386C226.979 91.9153 226.935 91.7508 227.109 91.7309C227.352 91.7031 227.305 91.9007 227.308 92.04C227.323 93.0679 227.514 94.064 227.904 95.019C229.115 97.9794 231.541 99.258 234.63 99.4556C238.337 99.6943 240.755 97.8176 241.824 94.2948C242.82 91.016 241.216 89.6803 238.735 89.0225C236.439 88.4124 234.098 87.9839 231.715 87.9335C229.091 87.8792 227.609 89.358 227.377 91.2269C227.331 91.5837 227.139 91.5731 226.886 91.524C226.656 91.4802 226.341 91.5824 226.368 91.15C226.407 90.4934 226.093 89.9629 225.634 89.5079C225.116 88.9933 225.538 88.4216 225.557 87.8871C225.57 87.4945 226.024 87.6205 226.289 87.5821C229.869 87.0316 233.446 86.9494 237.009 87.712C239.217 88.1842 241.363 88.8713 243.114 90.2971C243.694 90.7693 244.226 90.7653 244.848 90.886C246.651 91.2362 248.292 90.8727 250.025 90.3263C253.603 89.1989 257.247 89.4907 260.873 90.3236C261.921 90.5637 262.954 90.8701 263.997 91.1195C264.701 91.2866 265.398 91.6182 266.082 91.9166C266.157 91.9498 266.232 91.9657 266.268 92.0665C266.411 92.4644 266.017 93.5931 265.636 93.8478C265.212 94.1303 264.823 94.4818 264.731 94.9738C264.63 95.4951 264.335 95.5309 263.923 95.4646Z" fill="#151515"/>
<path d="M225.821 87.6072L206.615 80.8946C206.615 80.8946 208.387 81.4025 209.139 83.2541L225.634 89.5119L225.821 87.6072Z" fill="#151515"/>
<path d="M198.571 78.0004C198.4 78.0004 198.241 78.0363 198.075 78.0495C200.261 79.226 201.761 81.4689 201.761 84.0712V93.869C201.761 96.4713 200.259 98.7142 198.075 99.8907C198.241 99.9039 198.4 99.9397 198.571 99.9397C202.01 99.9397 204.799 97.222 204.799 93.869V84.0712C204.797 80.7181 202.009 78.0004 198.571 78.0004Z" fill="#151515"/>
<path d="M192.343 84.0712V93.869C192.343 96.0668 193.551 97.9727 195.345 99.0378C197.988 98.7129 200.049 96.5323 200.049 93.869V84.0712C200.049 81.4065 197.99 79.226 195.345 78.9024C193.551 79.9674 192.343 81.8734 192.343 84.0712Z" fill="#151515"/>
<path d="M260.535 75.5215C260.953 77.7431 261.172 80.043 261.172 82.4C261.172 82.4 262.689 112.755 247.188 110.594" stroke="#151515" stroke-miterlimit="10"/>
<path d="M229.871 45.7607C211.192 45.7607 195.997 62.1969 195.997 82.4H199.727H201.141C201.141 67.5501 210.5 55.0916 223.058 51.7107C225.246 51.1231 227.518 50.7756 229.87 50.7756C232.49 50.7756 235.02 51.1974 237.435 51.9256C240.917 51.9521 244.443 51.8699 248.026 51.4932C242.775 47.8696 236.548 45.7607 229.871 45.7607Z" fill="#151515"/>
<path d="M250.101 110.555C250.101 111.893 248.988 112.98 247.614 112.98H246.761C245.387 112.98 244.273 111.893 244.273 110.555C244.273 109.216 245.387 108.129 246.761 108.129H247.614C248.988 108.129 250.101 109.216 250.101 110.555Z" fill="#151515"/>
<path d="M201.762 93.869V84.0712C201.762 81.4689 200.26 79.226 198.076 78.0495C197.08 78.1278 196.153 78.4222 195.345 78.9024C197.989 79.2273 200.049 81.4079 200.049 84.0712V93.869C200.049 96.5336 197.99 98.7142 195.345 99.0378C196.153 99.518 197.081 99.8137 198.076 99.8906C200.261 98.7142 201.762 96.4713 201.762 93.869Z" fill="#7F7E7F"/>
<path d="M197.238 92.4286C197.238 94.7935 195.272 96.7127 192.844 96.7127C190.415 96.7127 188.449 94.7935 188.449 92.4286V85.5129C188.449 83.148 190.415 81.2288 192.844 81.2288C195.272 81.2288 197.238 83.148 197.238 85.5129V92.4286Z" fill="#151515"/>
<path d="M426.76 203.454C426.76 208.478 422.58 212.553 417.427 212.553H310.917C305.763 212.553 301.584 208.478 301.584 203.454V139.75C301.584 134.726 305.763 130.652 310.917 130.652H417.427C422.58 130.652 426.76 134.726 426.76 139.75V203.454Z" fill="#DCD9D8"/>
<path d="M426.759 203.434C426.759 208.46 422.144 212.553 417.475 212.553H321.13C316.462 212.553 311.869 208.46 311.869 203.434V139.749C311.869 134.723 316.462 130.65 321.13 130.65H417.475C422.145 130.65 426.759 134.723 426.759 139.749V203.434Z" fill="#EDF0EF"/>
<path d="M361.599 174.11H387.658L393.879 211.23C395.124 219.646 399.324 219.238 399.324 219.238H402.753V227.595H342.736V220.91H355.923C355.923 220.91 361.599 222.767 361.599 212.988C361.599 203.207 361.599 174.11 361.599 174.11Z" fill="#E1DDD9"/>
<path d="M471.343 227.595H42.6523V239.295H471.343V227.595Z" fill="#C4954A"/>
<path d="M124.96 239.295H75.2324V247.654H124.96V239.295Z" fill="#B08138"/>
<path d="M65.9237 417.142L100.405 247.055L93.175 245.234L58.2451 417.174L65.9237 417.142Z" fill="#B08138"/>
<path d="M136.107 417.142L101.625 247.055L108.856 245.234L143.997 417L136.107 417.142Z" fill="#B08138"/>
<path d="M442.193 239.295H392.464V247.654H442.193V239.295Z" fill="#B08138"/>
<path d="M383.549 417.142L418.032 247.055L410.8 245.234L376.032 417.025L383.549 417.142Z" fill="#B08138"/>
<path d="M453.733 417.142L419.251 247.055L426.482 245.234L461.627 417.166L453.733 417.142Z" fill="#B08138"/>
<path d="M337.593 225.173C337.593 227.434 335.713 229.268 333.393 229.268H242.337C240.017 229.268 238.138 227.434 238.138 225.173V225.003C238.138 222.743 240.018 220.91 242.337 220.91H333.393C335.713 220.91 337.593 222.743 337.593 225.003V225.173Z" fill="#EDF0EF"/>
<path d="M1.5 417.569H506.5" stroke="#EDF0EF" stroke-width="3" stroke-miterlimit="10" stroke-linecap="square" stroke-linejoin="bevel"/>
<path d="M84.8749 294.694H103.688C110.526 294.694 116.089 300.12 116.089 306.784V308.385C116.089 311.477 114.369 314.225 111.243 315.226C111.243 315.226 106.441 315.233 103.687 315.233V309.26C105.065 309.26 109.944 309.244 109.944 309.244V306.784C109.944 303.422 107.135 300.684 103.687 300.684H84.8736C81.4255 300.684 78.621 303.422 78.621 306.784V309.26C78.621 309.26 83.4979 309.26 84.8736 309.26V315.217C82.1235 315.217 77.3215 315.226 77.3215 315.226C74.1973 314.225 72.4746 311.477 72.4746 308.385V306.784C72.4773 300.119 78.04 294.694 84.8749 294.694Z" fill="#37627A"/>
<path d="M84.1672 293.145H104.4C111.753 293.145 117.735 298.976 117.735 306.146V307.87C117.735 311.191 115.886 314.15 112.525 315.227C112.525 315.227 107.361 315.234 104.4 315.234V308.811C105.882 308.811 111.126 308.797 111.126 308.797V306.146C111.126 302.529 108.109 299.588 104.4 299.588H84.1672C80.4578 299.588 77.4384 302.53 77.4384 306.146V308.811C77.4384 308.811 82.6853 308.811 84.1672 308.811V315.216C81.2089 315.216 76.0436 315.227 76.0436 315.227C72.6813 314.15 70.832 311.191 70.832 307.87V306.146C70.832 298.976 76.8138 293.145 84.1672 293.145Z" fill="#EDF0EF"/>
<path d="M134.156 310.762C134.156 308.459 132.242 306.59 129.877 306.59H58.0582C55.696 306.59 53.7773 308.459 53.7773 310.762V320.179C53.7773 322.483 55.6946 324.353 58.0582 324.353H129.877C132.242 324.353 134.156 322.484 134.156 320.179V310.762Z" fill="#37627A"/>
<path d="M134.156 311.569C134.156 309.264 132.242 307.397 129.877 307.397H58.0582C55.696 307.397 53.7773 309.263 53.7773 311.569V320.986C53.7773 323.292 55.6946 325.161 58.0582 325.161H129.877C132.242 325.161 134.156 323.292 134.156 320.986V311.569Z" fill="#407796"/>
<path d="M164.599 400.843C164.991 400.843 165.376 400.869 165.761 400.9V326.438C165.376 326.468 164.991 326.495 164.599 326.495C156.91 326.495 150.673 320.416 150.673 312.921C150.673 312.351 150.721 311.796 150.789 311.246H37.1479C37.2159 311.796 37.2649 312.351 37.2649 312.921C37.2649 320.416 31.0273 326.495 23.3365 326.495C22.9446 326.495 22.5595 326.468 22.1758 326.438V400.9C22.5595 400.869 22.9446 400.843 23.3365 400.843C31.0273 400.843 37.2649 406.921 37.2649 414.419C37.2649 414.987 37.2159 415.545 37.1479 416.094H150.789C150.721 415.545 150.673 414.987 150.673 414.419C150.673 406.921 156.91 400.843 164.599 400.843Z" fill="#EDF0EF"/>
<path d="M58.6438 311.246H48.9092V416.094H58.6438V311.246Z" fill="#4889B3"/>
<path d="M58.6438 311.246V389.051C58.6438 391.672 56.4639 393.794 53.7765 393.794C51.0877 393.794 48.9092 391.671 48.9092 389.051V311.246H58.6438Z" fill="#407796"/>
<path d="M37.2643 312.921C37.2643 312.351 37.2153 311.796 37.1473 311.246H27.0425C24.3523 311.246 22.1738 313.371 22.1738 315.987V326.438C22.5576 326.468 22.9426 326.495 23.3345 326.495C31.0267 326.495 37.2643 320.416 37.2643 312.921Z" fill="#4889B3"/>
<path d="M164.599 326.495C164.991 326.495 165.376 326.468 165.761 326.438V315.987C165.761 313.369 163.58 311.246 160.892 311.246H150.788C150.719 311.796 150.672 312.351 150.672 312.921C150.673 320.416 156.909 326.495 164.599 326.495Z" fill="#4889B3"/>
<path d="M165.761 411.351V400.9C165.376 400.869 164.99 400.842 164.599 400.842C156.909 400.842 150.673 406.921 150.673 414.419C150.673 414.987 150.72 415.545 150.789 416.094H160.893C163.581 416.094 165.761 413.971 165.761 411.351Z" fill="#4889B3"/>
<path d="M23.3345 400.842C22.9426 400.842 22.5576 400.869 22.1738 400.9V411.351C22.1738 413.972 24.3523 416.094 27.0425 416.094H37.1473C37.2153 415.545 37.2643 414.987 37.2643 414.419C37.2643 406.921 31.0267 400.842 23.3345 400.842Z" fill="#4889B3"/>
<path d="M60.472 365.893C60.472 368.267 58.4962 370.196 56.0578 370.196H51.4953C49.0582 370.196 47.0811 368.267 47.0811 365.893V361.444C47.0811 359.069 49.0596 357.143 51.4953 357.143H56.0578C58.4962 357.143 60.472 359.069 60.472 361.444V365.893Z" stroke="#37627A" stroke-width="4" stroke-miterlimit="10" stroke-linecap="round" stroke-linejoin="round"/>
<path d="M55.603 360.7C55.603 361.683 54.7852 362.48 53.7769 362.48C52.7686 362.48 51.9521 361.683 51.9521 360.7V353.584C51.9521 352.602 52.77 351.804 53.7769 351.804C54.7852 351.804 55.603 352.602 55.603 353.584V360.7Z" fill="#37627A"/>
<path d="M55.0738 344.455C55.0738 345.151 54.4941 345.718 53.777 345.718C53.0586 345.718 52.4775 345.151 52.4775 344.455C52.4775 343.755 53.0586 343.188 53.777 343.188C54.4941 343.188 55.0738 343.755 55.0738 344.455Z" fill="#76A9DA"/>
<path d="M55.0738 336.864C55.0738 337.562 54.4941 338.128 53.777 338.128C53.0586 338.128 52.4775 337.562 52.4775 336.864C52.4775 336.165 53.0586 335.599 53.777 335.599C54.4941 335.599 55.0738 336.165 55.0738 336.864Z" fill="#76A9DA"/>
<path d="M55.0738 329.276C55.0738 329.975 54.4941 330.542 53.777 330.542C53.0586 330.542 52.4775 329.975 52.4775 329.276C52.4775 328.577 53.0586 328.012 53.777 328.012C54.4941 328.012 55.0738 328.577 55.0738 329.276Z" fill="#76A9DA"/>
<path d="M139.023 311.246H129.287V416.094H139.023V311.246Z" fill="#4889B3"/>
<path d="M139.022 311.246V389.051C139.022 391.672 136.842 393.794 134.156 393.794C131.466 393.794 129.286 391.671 129.286 389.051V311.246H139.022Z" fill="#407796"/>
<path d="M140.85 365.893C140.85 368.267 138.875 370.196 136.436 370.196H131.871C129.435 370.196 127.458 368.267 127.458 365.893V361.444C127.458 359.069 129.434 357.143 131.871 357.143H136.436C138.875 357.143 140.85 359.069 140.85 361.444V365.893Z" stroke="#37627A" stroke-width="4" stroke-miterlimit="10" stroke-linecap="round" stroke-linejoin="round"/>
<path d="M135.981 360.7C135.981 361.683 135.163 362.48 134.158 362.48C133.148 362.48 132.33 361.683 132.33 360.7V353.584C132.33 352.602 133.148 351.804 134.158 351.804C135.164 351.804 135.981 352.602 135.981 353.584V360.7Z" fill="#37627A"/>
<path d="M135.453 344.455C135.453 345.151 134.873 345.718 134.156 345.718C133.437 345.718 132.856 345.151 132.856 344.455C132.856 343.755 133.437 343.188 134.156 343.188C134.873 343.188 135.453 343.755 135.453 344.455Z" fill="#76A9DA"/>
<path d="M135.453 336.864C135.453 337.562 134.873 338.128 134.156 338.128C133.437 338.128 132.856 337.562 132.856 336.864C132.856 336.165 133.437 335.599 134.156 335.599C134.873 335.599 135.453 336.165 135.453 336.864Z" fill="#76A9DA"/>
<path d="M135.453 329.276C135.453 329.975 134.873 330.542 134.156 330.542C133.437 330.542 132.856 329.975 132.856 329.276C132.856 328.577 133.437 328.012 134.156 328.012C134.873 328.012 135.453 328.577 135.453 329.276Z" fill="#76A9DA"/>
<path d="M108.971 356.979H100.555V348.768H86.818V356.979H78.3965V370.362H86.818V378.569H100.555V370.362H108.971V356.979Z" fill="#D43E00"/>
<path d="M403.251 70.5304L372.131 122.571L341.007 70.5304H403.251Z" fill="white"/>
<path d="M407.705 53.7294C407.705 72.8794 391.776 88.4031 372.131 88.4031C352.484 88.4031 336.558 72.8794 336.558 53.7294C336.558 34.5808 352.482 19.0558 372.131 19.0558C391.776 19.0558 407.705 34.5808 407.705 53.7294Z" fill="white"/>
<path d="M361.116 5.36777C361.116 8.33217 358.649 10.7382 355.608 10.7382C352.566 10.7382 350.099 8.33217 350.099 5.36777C350.099 2.40468 352.566 0 355.608 0C358.648 0 361.116 2.40336 361.116 5.36777Z" fill="white"/>
<path d="M377.64 5.36777C377.64 8.33217 375.173 10.7382 372.131 10.7382C369.088 10.7382 366.621 8.33217 366.621 5.36777C366.621 2.40468 369.088 0 372.131 0C375.175 0 377.64 2.40336 377.64 5.36777Z" fill="white"/>
<path d="M394.163 5.36777C394.163 8.33217 391.696 10.7382 388.656 10.7382C385.613 10.7382 383.146 8.33217 383.146 5.36777C383.146 2.40468 385.613 0 388.656 0C391.695 0 394.163 2.40336 394.163 5.36777Z" fill="white"/>
<path d="M399.621 53.7294C399.621 68.5276 387.312 80.5245 372.132 80.5245C356.948 80.5245 344.643 68.5276 344.643 53.7294C344.643 38.9313 356.948 26.9357 372.132 26.9357C387.312 26.9357 399.621 38.9313 399.621 53.7294Z" fill="#4889B3"/>
<mask id="mask0_36715_2491" style="mask-type:luminance" maskUnits="userSpaceOnUse" x="344" y="26" width="56" height="55">
<path d="M399.621 53.7294C399.621 68.5276 387.312 80.5245 372.132 80.5245C356.948 80.5245 344.643 68.5276 344.643 53.7294C344.643 38.9313 356.948 26.9357 372.132 26.9357C387.312 26.9357 399.621 38.9313 399.621 53.7294Z" fill="white"/>
</mask>
<g mask="url(#mask0_36715_2491)">
<path d="M366.703 60.7472C364.857 58.3054 360.524 61.7287 360.524 61.7287L350.403 70.3009L353.514 75.7164C357.546 72.7905 368.78 63.4954 366.703 60.7472Z" fill="#DCD9D8"/>
<path d="M372.22 58.698C374.556 58.6436 379.938 59.0216 381.696 60.7379C381.696 60.7379 378.222 70.3394 378.222 72.6924C378.222 79.5602 380.961 81.9344 381.329 88.7174C381.329 88.7174 367.47 95.0481 358.355 89.5119C358.355 89.5119 363.789 80.738 363.789 75.6846C363.789 73.9882 358.92 72.073 362.811 65.3974C366.193 59.5959 364.261 59.9514 364.261 59.9514C364.261 59.9514 369.781 58.755 372.22 58.698Z" fill="#DCD9D8"/>
<path d="M382.689 36.7799C383.539 38.8079 386.133 48.7768 382.347 57.3318C382.347 57.3318 369.271 61.7207 360.891 55.207C360.891 55.207 359.228 48.1627 362.256 40.0507C363.232 37.4417 364.161 34.6975 366.914 32.9494C371.448 30.0698 373.192 33.85 373.234 33.8022C375.814 30.8365 381.199 33.2279 382.689 36.7799Z" fill="#FFD78F"/>
<path d="M362.669 46.7621C364.842 33.3725 376.726 37.6526 378.209 43.0575C379.299 47.0273 379.093 52.3434 378.286 58.2881C373.931 59.0362 366.905 59.4036 361.53 55.6725C361.807 53.0265 362 50.8777 362.669 46.7621Z" fill="#E8BF7E"/>
<path d="M363.828 42.3493C362.669 45.7845 362.094 48.4651 362.358 50.3989C362.79 53.4894 364.284 55.7256 368.755 55.8251L368.42 59.6092C368.42 59.6092 368.099 62.3415 370.766 62.5975C373.557 62.868 373.586 59.832 373.586 59.832L373.398 55.78C373.398 55.78 377.109 54.0159 378.228 51.9044C378.228 51.9044 382.53 54.0584 382.551 49.7795C382.572 45.9875 378.6 46.1878 378.049 49.7729C378.049 49.7729 381.198 39.2589 372.628 36.5067C368.858 35.2931 365.37 37.7932 363.828 42.3493Z" fill="#E8A385"/>
<path d="M369.992 49.9466L363.799 47.9598C363.799 47.9598 362.596 51.659 365.892 52.7161C369.185 53.7745 369.992 49.9466 369.992 49.9466Z" fill="#1F1E1D"/>
<path d="M370.041 49.9612C370.041 49.9612 369.233 53.8117 365.913 52.7453C364.714 52.3619 364.108 51.6338 363.821 50.8552C363.821 50.8552 364.895 48.9957 370.041 49.9612Z" fill="#CD7380"/>
<path d="M369.528 51.1974C369.873 50.5462 370.029 49.9599 370.029 49.9599L363.809 47.9611C363.809 47.9611 363.616 48.5274 363.594 49.2888L369.528 51.1974Z" fill="white"/>
<path d="M363.513 49.2861C363.537 48.5221 363.729 47.9611 363.737 47.9359L363.762 47.8643L370.122 49.9095L370.107 49.9758C370.097 50.001 369.948 50.582 369.599 51.2306L369.569 51.2876L363.514 49.3431V49.2861H363.513ZM369.933 50.0077L363.864 48.0579C363.813 48.2277 363.694 48.676 363.672 49.2357L369.492 51.1046C369.741 50.6204 369.885 50.1735 369.933 50.0077Z" fill="white"/>
<path d="M370.923 47.1215L371.299 46.006C371.454 45.5445 371.194 45.0444 370.725 44.8932C370.25 44.7394 369.736 44.9901 369.583 45.4543L369.202 46.5684" stroke="#262324" stroke-width="0.75" stroke-miterlimit="10" stroke-linecap="round" stroke-linejoin="round"/>
<path d="M365.673 45.1028L365.993 44.1584C366.124 43.7658 365.906 43.3467 365.506 43.2167C365.102 43.0894 364.673 43.3003 364.539 43.6915L364.219 44.6359" stroke="#262324" stroke-width="0.75" stroke-miterlimit="10" stroke-linecap="round" stroke-linejoin="round"/>
<path d="M377.748 46.8045C377.748 46.8045 373.137 46.3933 372.658 40.7112C372.658 40.7112 372.546 43.791 368.309 43.4077C368.309 43.4077 369.45 40.7815 369.329 39.8491C369.31 39.7165 369.271 39.8491 369.271 39.8491C369.271 39.8491 367.616 42.4421 364.521 42.1901C364.521 42.1901 364.644 40.316 365.597 37.2401C366.543 34.1776 370.999 33.3526 374.817 34.8209C383.255 38.0612 377.748 46.8045 377.748 46.8045Z" fill="#FFD78F"/>
<path d="M373.398 55.7786C373.398 55.7786 370.868 56.0028 368.755 55.8237L368.491 58.9115C368.491 58.9115 371.449 59.6025 373.489 58.1024L373.398 55.7786Z" fill="#D9967D"/>
<path d="M378.58 60.1079C381.289 58.6197 383.797 63.4755 383.797 63.4755L390.307 76.6316L385.189 80.3269C382.748 76.0441 375.528 61.7817 378.58 60.1079Z" fill="#DCD9D8"/>
</g>
</svg>
