<svg width="546" height="350" viewBox="0 0 546 350" fill="none" xmlns="http://www.w3.org/2000/svg">
<path d="M528.063 340.359C531.615 333.593 540.258 313.659 545.112 272.674C551.327 220.188 523.015 185.656 516.106 167.008C509.197 148.359 531.302 108.99 499.531 70.3146C467.768 31.639 414.593 32.3325 384.893 47.5219C355.194 62.7114 317.215 78.6028 286.83 49.594C256.446 20.5852 235.194 6.7574 186.29 0.761121C135.077 -5.51425 53.6314 27.0805 59.3988 96.1265C65.0901 164.234 17.0651 155.235 3.68674 220.188C-12.1694 297.15 27.8726 333.829 32.2193 340.359H528.055H528.063Z" fill="#A3B094"/>
<path d="M435.709 210.614H48.7692V343.09H435.709V210.614Z" fill="#65BFCE"/>
<path d="M442.576 343.09H434.677V210.614H49.8009V343.09H41.9109V202.715H442.576V343.09Z" fill="#91D3E2"/>
<path d="M438.627 270.12H45.8601V278.019H438.627V270.12Z" fill="#91D3E2"/>
<path d="M175.119 206.664H167.221V340.359H175.119V206.664Z" fill="#91D3E2"/>
<path d="M317.266 206.664H309.368V340.359H317.266V206.664Z" fill="#91D3E2"/>
<path d="M72.1855 342.667C72.1855 342.667 32.7017 256.783 47.5092 229.144C62.3167 201.505 124.498 208.415 138.325 234.083C152.143 259.751 172.87 342.676 172.87 342.676H72.1855V342.667Z" fill="#0055AA"/>
<path d="M138.316 234.075C136.287 230.311 133.217 226.954 129.403 224.044C117.893 219.401 94.6547 212.762 80.2024 227.216C64.1941 243.226 97.3186 314.352 114.088 342.667H172.861C172.861 342.667 152.134 259.743 138.316 234.075Z" fill="#1A78C6"/>
<path d="M490.702 342.667C490.702 342.667 530.186 256.783 515.379 229.144C500.571 201.505 438.39 208.415 424.572 234.083C410.754 259.751 390.027 342.676 390.027 342.676H490.711L490.702 342.667Z" fill="#1A78C6"/>
<path d="M438.948 220.45C432.597 224.053 427.498 228.645 424.572 234.075C410.754 259.743 390.027 342.667 390.027 342.667H455.117C468.724 313.337 495.142 251.624 485.747 233.28C479.032 220.179 457.46 218.868 438.956 220.45H438.948Z" fill="#0055AA"/>
<path d="M291.271 292.304C291.271 292.304 299.008 293.987 303.051 293.987C307.093 293.987 318.653 287.855 320.911 290.113C323.169 292.371 312.133 295.331 314.492 297.683C316.852 300.042 336.361 300.88 334.509 302.732C332.657 304.584 321.723 303.738 321.723 303.738C321.723 303.738 335.346 305.083 335.346 306.935C335.346 308.787 321.883 307.612 321.883 307.612C321.883 307.612 333.765 309.312 332.15 310.935C330.526 312.559 320.902 310.935 320.902 310.935C320.902 310.935 329.41 312.204 327.27 314.344C326.594 315.02 313.308 314.513 307.414 311.823C301.528 309.134 298.949 306.106 297.884 306.106C296.818 306.106 285.545 304.085 285.545 304.085L291.262 292.304H291.271Z" fill="#B56167"/>
<path d="M216.354 196.422C216.354 196.422 225.673 258.728 238.73 267.431C251.778 276.133 293.418 287.94 293.418 287.94C293.418 287.94 295.905 302.859 285.96 310.935C285.96 310.935 238.73 301.615 221.952 289.8C205.174 277.994 185.284 206.521 187.77 199.061C190.256 191.602 216.354 196.422 216.354 196.422Z" fill="#F0EDF2"/>
<path d="M227.381 184.531C227.034 184.531 226.823 184.489 226.797 184.481L227.186 182.671C227.237 182.671 228.413 182.874 229.732 181.563C232.438 178.882 236.167 169.638 230.738 137.821L232.556 137.508C237.893 168.733 234.62 179.465 230.933 182.975C229.529 184.312 228.142 184.523 227.389 184.523L227.381 184.531Z" fill="#39657D"/>
<path d="M250.248 144.24C250.941 136.84 250.924 128.924 250.273 122.108C248.895 107.705 233.588 104.322 233.588 104.322C233.588 104.322 207.102 92.2614 195.973 114.936C184.844 137.61 194.967 153.045 194.163 158.195C193.36 163.346 187.821 177.656 187.821 177.656L211.618 190.122C211.618 190.122 213.732 180.709 214.383 176.522C215.034 172.336 219.795 171.431 219.795 171.431C228.506 174.772 238.459 177.047 245.224 164.8C246.62 162.272 247.736 158.914 248.599 155.074C249.901 154.998 252.59 154.711 253.546 153.755C254.552 152.749 251.575 146.761 250.239 144.224L250.248 144.24Z" fill="#F4B3BD"/>
<path d="M246.011 158.829L238.468 156.69C238.468 156.69 238.755 163.811 241.106 163.811C243.457 163.811 246.019 158.829 246.019 158.829H246.011Z" fill="white"/>
<path d="M244.658 142.329C245.994 142.329 247.076 141.246 247.076 139.91C247.076 138.574 245.994 137.492 244.658 137.492C243.322 137.492 242.239 138.574 242.239 139.91C242.239 141.246 243.322 142.329 244.658 142.329Z" fill="#39657D"/>
<path d="M238.468 134.591C238.468 134.591 243.559 133.61 248.819 134.591C248.819 134.591 249.825 130.514 245.766 130.514C241.707 130.514 238.468 134.591 238.468 134.591Z" fill="#39657D"/>
<path d="M252.015 99.2472C257.089 98.3677 262.019 101.294 263.508 106.225C264.522 109.582 265.157 113.43 264.59 117.092C263.076 126.751 252.734 129.034 244.421 127.19C237.647 125.685 231.956 120.78 231.956 120.78C231.956 120.78 232.142 130.447 227.11 134.109C222.079 137.771 223.981 142.278 221.732 141.932C219.474 141.576 222.975 132.468 217.191 130.895C211.474 129.339 210.003 139.893 213.817 143.234L212.514 147.387C212.514 147.387 206.823 155.675 200.176 155.954C193.538 156.233 190.18 153.045 186.299 139.902C182.417 126.759 181.022 111.646 188.21 101.548C195.398 91.458 204.261 95.4753 204.514 93.8684C204.768 92.2615 214.011 83.7026 227.203 90.4685C235.347 94.638 242.772 100.846 252.015 99.2557V99.2472Z" fill="#0055AA"/>
<g style="mix-blend-mode:multiply" opacity="0.5">
<path d="M211.001 158.254C208.362 161.434 214.392 176.539 214.392 176.539C215.043 172.353 219.804 171.448 219.804 171.448C219.804 171.448 208.802 163.016 211.001 158.254Z" fill="#F7BFC5"/>
</g>
<g style="mix-blend-mode:multiply" opacity="0.5">
<path d="M264.446 117.811C245.808 125.025 224.261 113.041 220.793 109.134C220.066 115.037 219.939 120.585 212.65 128.273C200.793 140.257 189.884 133.906 183.66 127.867C184.219 131.927 185.14 135.995 186.299 139.893C190.18 153.036 193.538 156.225 200.176 155.945C206.815 155.666 212.514 147.378 212.514 147.378L213.817 143.226C210.003 139.885 211.483 129.33 217.191 130.886C222.975 132.468 219.483 141.568 221.732 141.923C223.99 142.278 222.087 137.771 227.11 134.1C232.134 130.43 231.956 120.771 231.956 120.771C231.956 120.771 237.647 125.677 244.421 127.182C252.514 128.983 262.544 126.861 264.455 117.811H264.446Z" fill="#0055AA"/>
</g>
<path d="M270.163 279.981C267.956 279.981 265.664 279.753 263.271 279.262C231.449 272.733 226.561 193.149 226.113 184.303C216.311 180.827 215.212 142.194 215.11 137.694L216.954 137.652C217.208 149.746 219.533 181.402 227.144 182.671L227.88 182.798L227.914 183.542C227.948 184.413 232.049 270.974 263.634 277.453C286.67 282.18 299.879 261.84 311.524 243.885C315.905 237.136 320.04 230.768 324.302 226.497C339.634 211.164 349.224 210.935 349.621 210.927V212.771C349.545 212.771 340.31 213.092 325.604 227.799C321.478 231.927 317.393 238.219 313.072 244.883C302.814 260.682 290.298 279.973 270.154 279.973L270.163 279.981Z" fill="#39657D"/>
<path d="M218.265 137.669C218.265 138.904 217.267 139.902 216.032 139.902C214.798 139.902 213.8 138.904 213.8 137.669C213.8 136.434 214.798 135.436 216.032 135.436C217.267 135.436 218.265 136.434 218.265 137.669Z" fill="white"/>
<path d="M183.491 175.516C183.491 175.516 206.163 181.148 222.324 204.144C235.99 223.596 236.26 342.515 236.26 342.515L136.329 343.031C136.329 343.031 145.885 315.629 149.978 289.623C154.426 261.316 155.145 217.642 162.417 200.279C173.496 173.816 183.5 175.524 183.5 175.524L183.491 175.516Z" fill="white"/>
<path d="M198.806 324.552C188.802 325.465 178.35 316.365 177.893 323.638C177.648 327.554 175.559 335.563 174.891 342.828L236.26 342.515C236.26 342.515 234.882 226.302 221.216 206.859C215.652 198.934 199.982 191.822 194.214 188.43C180.21 191.458 176.878 191.111 171.077 201.81C171.077 201.81 166.079 210.445 183.804 237.72C201.529 264.995 222.442 281.36 226.983 289.547C231.533 297.733 230.163 311.367 221.072 313.642C211.982 315.917 184.252 285.453 186.07 294.097C187.889 302.732 208.802 323.647 198.798 324.552H198.806Z" fill="#F0EDF2"/>
<path d="M183.491 175.516C183.491 175.516 195.221 182.899 202.679 197.201C210.138 211.494 207.026 212.737 207.026 212.737L221.943 217.084L209.512 224.543L235.127 298.867C235.127 298.867 233.123 232.62 227.533 214.597C221.943 196.575 190.248 168.606 190.248 168.606L183.491 175.516Z" fill="#F0EDF2"/>
<path d="M282.467 314.521C282.467 314.521 280.514 314.234 284.252 320.501C287.989 326.768 292.48 329.592 293.833 328.916C295.186 328.239 297.85 324.239 295.448 319.3C293.046 314.361 282.467 314.521 282.467 314.521Z" fill="#3B3A36"/>
<path d="M296.158 326.015C296.158 326.015 290.493 328.78 289.562 329.575C288.632 330.379 286.712 334.125 281.114 337.263C276.235 340.003 272.269 343.065 270.941 341.509C269.605 339.961 274.814 336.916 276.311 335.622C277.808 334.328 278.23 332.011 278.23 332.011C278.23 332.011 274.966 331.757 270.823 332.899C266.679 334.041 262.036 340.917 260.328 340.232C257.723 339.183 264.987 331.233 264.987 331.233C264.987 331.233 257.571 338.701 256.421 337.365C255.262 336.02 262.78 328.121 262.78 328.121C262.78 328.121 266.839 324.197 271.025 322.573C275.203 320.957 280.108 320.678 285.478 319.147C290.848 317.617 297.757 310.453 297.757 310.453C297.757 310.453 308.319 317.092 306.188 320.086C305.165 321.532 296.175 326.006 296.175 326.006L296.158 326.015Z" fill="#DF9296"/>
<path d="M365.198 192.811C365.198 192.811 349.19 197.979 342.577 222.733C335.964 247.497 332.116 272.124 326.425 279.753C320.733 287.382 282.459 314.53 282.459 314.53C282.459 314.53 288.057 316.306 292.065 320.966C296.074 325.626 293.824 328.924 293.824 328.924C293.824 328.924 339.033 311.155 349.122 291.653C359.211 272.15 366.509 216.297 367.312 205.48C368.124 194.663 365.19 192.811 365.19 192.811H365.198Z" fill="#3B3A36"/>
<g style="mix-blend-mode:multiply">
<path d="M349.131 291.644C356.665 277.089 362.636 242.278 365.519 221.059C358.365 221.126 351.887 222.404 351.887 222.404C351.887 222.404 351.321 266.982 344.953 280.616C339.583 292.118 303.6 314.665 292.471 321.439C295.913 325.837 293.841 328.907 293.841 328.907C293.841 328.907 339.05 311.138 349.139 291.636L349.131 291.644Z" fill="#3B3A36"/>
</g>
<path d="M379.101 186.68C379.101 186.68 384.115 184.261 385.697 182.671C387.278 181.081 386.559 161.51 386.559 161.51H411.464C411.464 161.51 409.248 180.607 411.464 182.823C413.68 185.039 416.098 184.844 416.098 184.844C416.098 184.844 420.961 199.12 404.293 205.218C387.625 211.316 376.014 200.829 376.014 194.147C376.014 187.466 379.109 186.671 379.109 186.671L379.101 186.68Z" fill="#F7BFC5"/>
<g style="mix-blend-mode:multiply" opacity="0.5">
<path d="M411.396 162.077C411.439 161.722 411.456 161.51 411.456 161.51H386.551C386.551 161.51 387.008 174.01 386.382 179.838C394.12 178.73 407.709 174.949 411.388 162.069L411.396 162.077Z" fill="#F7BFC5"/>
</g>
<path d="M379.101 186.68C379.101 186.68 372.513 201.336 392.564 202.833C412.614 204.339 416.098 184.844 416.098 184.844C416.098 184.844 435.464 186.595 442.956 203.138C450.457 219.689 440.673 343.082 440.673 343.082H333.342C333.342 343.082 349.131 302.664 349.122 278.163C349.122 253.662 350.813 214.081 356.471 199.366C358.509 194.054 379.092 186.671 379.092 186.671L379.101 186.68Z" fill="#3B3A36"/>
<g style="mix-blend-mode:multiply">
<path d="M423.667 224.087V269.714C423.667 286.857 402.449 290.705 404.132 296.346C405.815 301.987 416.944 305.506 414.576 312.821C412.2 320.137 386.407 320.357 386.407 334.929C386.407 337.601 387.202 340.359 388.623 343.082H440.69C440.69 343.082 447.489 257.248 445.4 219.156C438.246 217.008 430.762 218.124 423.684 224.078L423.667 224.087Z" fill="#3B3A36"/>
</g>
<path d="M380.496 186.037C380.496 186.037 377.587 184.345 375.168 188.219C372.75 192.092 371.05 204.449 388.251 206.385C405.451 208.322 413.443 199.602 415.134 196.456C416.826 193.31 419.007 187.737 418.525 185.555C418.043 183.373 414.103 184.396 414.103 184.396C414.103 184.396 415.261 201.751 393.705 201.996C372.149 202.241 380.488 186.045 380.488 186.045L380.496 186.037Z" fill="white"/>
<path d="M389.342 305.032C389.342 305.032 378.416 306.318 371.634 305.48C364.851 304.643 363.498 304.127 354.856 306.935C346.213 309.751 330.509 319.63 333.858 321.11C337.207 322.581 347.414 315.722 347.414 315.722C347.414 315.722 335.625 323.968 336.843 325.533C338.061 327.097 350.154 319.24 350.154 319.24C350.154 319.24 341.122 328.011 343.904 328.358C346.687 328.704 354.112 321.499 354.112 321.499C354.112 321.499 347.38 328.789 349.993 329.11C352.598 329.432 358.526 322.928 358.526 322.928C358.526 322.928 367.388 322.615 370.323 320.331C373.257 318.048 375.278 317.092 377.367 317.346C379.456 317.608 392.961 318.547 392.961 318.547L389.342 305.032Z" fill="#DF9296"/>
<path d="M430.491 189.69C430.491 189.69 445.789 195.264 454.136 221.38C462.601 247.877 467.218 303.349 458.077 313.312C448.935 323.275 385.291 323.427 385.291 323.427C385.291 323.427 382.297 312.094 381.942 303.738C381.942 303.738 434.382 296.245 437.172 293.2C439.963 290.164 422.17 227.47 421.527 212.559C420.885 197.649 430.491 189.69 430.491 189.69Z" fill="#3B3A36"/>
<g style="mix-blend-mode:multiply">
<path d="M439.159 195.721C439.278 196.304 439.413 196.896 439.582 197.522C439.582 197.522 452.504 258.584 454.364 280.624C456.233 302.664 453.874 309.21 432.699 312.83C417.502 315.426 394.931 315.223 383.388 314.893C384.301 319.672 385.291 323.427 385.291 323.427C385.291 323.427 448.935 323.275 458.077 313.312C467.218 303.349 462.601 247.877 454.136 221.38C449.959 208.297 444.03 200.372 439.159 195.721Z" fill="#3B3A36"/>
</g>
<path d="M381.942 304.195C381.722 304.195 381.528 304.034 381.485 303.806C381.443 303.552 381.612 303.315 381.866 303.273C382.314 303.197 426.593 295.771 436.453 293.141C443.819 291.179 449.358 294.765 451.87 296.913C451.092 295.331 449.493 293.031 446.339 291.331C444.986 290.604 444.403 290.02 444.445 289.437C444.462 289.242 444.563 288.878 445.113 288.667C446.787 288.041 452.132 289.09 454.229 291.196C454.407 291.373 454.407 291.669 454.229 291.847C454.052 292.025 453.756 292.025 453.578 291.847C451.565 289.834 446.288 289.056 445.4 289.538C445.493 289.673 445.798 289.986 446.779 290.519C452.453 293.589 453.417 298.368 453.46 298.571C453.502 298.774 453.392 298.985 453.206 299.07C453.02 299.163 452.792 299.112 452.656 298.951C452.597 298.875 446.263 291.483 436.69 294.037C426.787 296.676 382.466 304.11 382.018 304.186C381.993 304.186 381.968 304.186 381.942 304.186V304.195Z" fill="#3B3A36"/>
<path d="M425.925 237.39C425.722 237.39 425.544 237.263 425.485 237.06C417.265 209.286 422.686 200.795 422.923 200.448C423.067 200.237 423.354 200.186 423.565 200.321C423.777 200.465 423.836 200.753 423.692 200.964C423.642 201.049 418.314 209.557 426.373 236.798C426.449 237.043 426.305 237.297 426.06 237.373C426.018 237.39 425.976 237.39 425.933 237.39H425.925Z" fill="#3B3A36"/>
<path d="M367.498 116.399C367.498 116.399 359.515 143.014 368.691 164.809C374.12 177.698 384.411 175.634 393.959 173.004C404.462 170.112 416.842 160.656 422.661 144.452C428.479 128.248 428.969 110.326 410.618 102.656C392.268 94.9847 371.904 104.643 367.498 116.399Z" fill="#F7BFC5"/>
<path d="M373.595 144.689C373.638 145.957 372.64 147.015 371.38 147.048C370.111 147.091 369.054 146.093 369.02 144.833C368.978 143.564 369.976 142.507 371.236 142.473C372.505 142.431 373.562 143.429 373.595 144.689Z" fill="#482320"/>
<path d="M365.283 139.91C365.283 139.91 370.078 138.828 375.084 139.606C375.084 139.606 375.921 135.715 372.073 135.834C368.226 135.952 365.283 139.91 365.283 139.91Z" fill="#482320"/>
<path d="M387.211 145.222C387.253 146.49 388.31 147.48 389.57 147.437C390.838 147.395 391.828 146.338 391.786 145.078C391.743 143.818 390.686 142.82 389.426 142.862C388.158 142.904 387.168 143.961 387.211 145.222Z" fill="#482320"/>
<path d="M395.202 139.927C395.202 139.927 390.348 139.149 385.401 140.232C385.401 140.232 384.327 136.4 388.175 136.282C392.022 136.164 395.202 139.927 395.202 139.927Z" fill="#482320"/>
<path d="M374.669 154.465C374.669 154.465 378.568 155.649 382.348 154.465C382.348 154.465 380.691 156.25 377.697 156.25C374.703 156.25 374.661 154.465 374.661 154.465H374.669Z" fill="#B56167"/>
<path d="M375.456 159.853L386.433 159.312C386.433 159.312 382.221 166.263 378.509 164.53C374.805 162.788 375.456 159.853 375.456 159.853Z" fill="white"/>
<path d="M401.595 120.331C401.595 120.331 386.822 129.085 370.001 120.856C370.001 120.856 364.877 123.461 364.877 129.846C364.877 134.844 355.355 122.454 358.374 110.885C361.393 99.3149 391.32 91.8724 401.942 93.3947C412.563 94.9255 413.908 100.795 415.769 103.966C415.769 103.966 424.174 104.787 426.601 114.817C428.817 123.96 429.24 141.83 419.591 155.176C418.272 157.003 415.363 156.368 415.033 154.136C414.855 152.926 414.771 148.588 415.532 148.74C419.498 149.509 425.012 139.978 421.587 136.181C416.758 130.819 412.792 137.508 412.792 141.83C412.792 146.152 408.792 137.965 408.47 133.466C408.149 128.966 402.559 128.408 401.595 120.331Z" fill="#482320"/>
<path d="M363.084 198.41H358.602V225.313H363.084C368.04 225.313 372.048 219.291 372.048 211.866C372.048 204.44 368.031 198.418 363.084 198.418V198.41Z" fill="#E4DFE8"/>
<path d="M358.602 225.304C363.553 225.304 367.566 219.284 367.566 211.857C367.566 204.43 363.553 198.41 358.602 198.41C353.651 198.41 349.638 204.43 349.638 211.857C349.638 219.284 353.651 225.304 358.602 225.304Z" fill="#B1A9B9"/>
<path d="M356.758 203.002H350.856V220.721H356.758C360.023 220.721 362.661 216.754 362.661 211.866C362.661 206.977 360.014 203.011 356.758 203.011V203.002Z" fill="#E4DFE8"/>
<path d="M350.847 220.712C354.107 220.712 356.75 216.748 356.75 211.857C356.75 206.967 354.107 203.002 350.847 203.002C347.587 203.002 344.945 206.967 344.945 211.857C344.945 216.748 347.587 220.712 350.847 220.712Z" fill="#B1A9B9"/>
<path d="M311.355 225.964C311.355 225.964 320.683 224.577 324.767 221.126C328.852 217.676 334.492 207.941 339.515 206.064C344.539 204.178 357.401 198.85 357.714 201.353C358.027 203.857 347.042 208.889 347.042 208.889C347.042 208.889 360.851 204.491 360.226 207.637C359.6 210.775 347.363 213.912 347.363 213.912C347.363 213.912 361.486 214.225 358.661 216.424C355.837 218.623 347.676 217.997 347.676 217.997C347.676 217.997 358.035 220.509 355.524 221.761C353.012 223.012 347.05 222.074 347.05 222.074C347.05 222.074 338.577 231.8 328.852 231.487L315.989 238.388L311.363 225.964H311.355Z" fill="#B56167"/>
<path d="M172.599 195.306C170.282 199.679 170.392 204.939 172.557 209.396C180.083 224.873 214.73 266.289 234.992 268.056C252.506 269.587 320.75 244.435 320.75 244.435C320.75 244.435 322.602 227.03 313.292 224.543L239.339 239.462C239.339 239.462 205.445 196.854 198.383 189.792C192.667 184.075 178.045 185.03 172.591 195.298L172.599 195.306Z" fill="white"/>
<path d="M311.355 239.242C305.089 242.608 240.666 256.182 235.136 261.713C232.108 264.741 233.115 266.788 234.645 268.014C234.764 268.023 234.882 268.048 234.992 268.056C252.506 269.587 320.75 244.435 320.75 244.435C320.75 244.435 321.934 233.297 317.638 227.571C317.19 230.869 315.778 236.857 311.347 239.234L311.355 239.242Z" fill="#F0EDF2"/>
<path d="M97.733 286.299H94.4687V278.611C94.4687 276.539 92.7858 274.848 90.7055 274.848H70.3928C68.3209 274.848 66.6296 276.539 66.6296 278.611V286.299H63.3654V278.611C63.3654 274.738 66.5197 271.583 70.3928 271.583H90.7055C94.5786 271.583 97.733 274.738 97.733 278.611V286.299Z" fill="#B1A9B9"/>
<path d="M105.674 284.464H34.9512V336.054H105.674V284.464Z" fill="white"/>
<path d="M105.674 336.054H126.46V284.464H105.674V336.054Z" fill="#B1A9B9"/>
<path d="M70.3166 327.385C79.7743 327.385 87.4412 319.717 87.4412 310.259C87.4412 300.8 79.7743 293.133 70.3166 293.133C60.859 293.133 53.192 300.8 53.192 310.259C53.192 319.717 60.859 327.385 70.3166 327.385Z" fill="#ED1C24"/>
<path d="M76.0164 298.706H65.0144V321.82H76.0164V298.706Z" fill="white"/>
<path d="M82.0629 315.765V304.761H58.951V315.765H82.0629Z" fill="white"/>
<path d="M142.747 259.261C148.794 259.261 153.699 264.166 153.699 270.213V336.054H131.796V270.213C131.796 264.166 136.701 259.261 142.747 259.261Z" fill="#B1A9B9"/>
<path d="M146.747 259.261C152.794 259.261 157.699 264.166 157.699 270.213V336.054H135.796V270.213C135.796 264.166 140.701 259.261 146.747 259.261Z" fill="#E4DFE8"/>
<path d="M151.221 265.629H142.747V336.054H151.221V265.629Z" fill="white"/>
<path d="M144.777 267.042H144.312V336.054H144.777V267.042Z" fill="#39657D"/>
<path d="M149.191 268.555H145.665V269.021H149.191V268.555Z" fill="#39657D"/>
<path d="M147.788 269.824H145.665V270.289H147.788V269.824Z" fill="#39657D"/>
<path d="M147.788 271.084H145.665V271.549H147.788V271.084Z" fill="#39657D"/>
<path d="M147.788 272.344H145.665V272.81H147.788V272.344Z" fill="#39657D"/>
<path d="M147.788 273.604H145.665V274.07H147.788V273.604Z" fill="#39657D"/>
<path d="M149.191 274.907H145.665V275.372H149.191V274.907Z" fill="#39657D"/>
<path d="M147.788 276.167H145.665V276.632H147.788V276.167Z" fill="#39657D"/>
<path d="M147.788 277.427H145.665V277.892H147.788V277.427Z" fill="#39657D"/>
<path d="M147.788 278.696H145.665V279.161H147.788V278.696Z" fill="#39657D"/>
<path d="M147.788 279.956H145.665V280.421H147.788V279.956Z" fill="#39657D"/>
<path d="M149.191 281.25H145.665V281.715H149.191V281.25Z" fill="#39657D"/>
<path d="M147.788 282.519H145.665V282.984H147.788V282.519Z" fill="#39657D"/>
<path d="M147.788 283.779H145.665V284.244H147.788V283.779Z" fill="#39657D"/>
<path d="M147.788 285.039H145.665V285.504H147.788V285.039Z" fill="#39657D"/>
<path d="M147.788 286.299H145.665V286.764H147.788V286.299Z" fill="#39657D"/>
<path d="M149.191 287.601H145.665V288.067H149.191V287.601Z" fill="#39657D"/>
<path d="M147.788 288.862H145.665V289.327H147.788V288.862Z" fill="#39657D"/>
<path d="M147.788 290.122H145.665V290.587H147.788V290.122Z" fill="#39657D"/>
<path d="M147.788 291.39H145.665V291.855H147.788V291.39Z" fill="#39657D"/>
<path d="M147.788 292.65H145.665V293.116H147.788V292.65Z" fill="#39657D"/>
<path d="M149.191 293.944H145.665V294.41H149.191V293.944Z" fill="#39657D"/>
<path d="M147.788 295.205H145.665V295.67H147.788V295.205Z" fill="#39657D"/>
<path d="M147.788 296.473H145.665V296.938H147.788V296.473Z" fill="#39657D"/>
<path d="M147.788 297.733H145.665V298.199H147.788V297.733Z" fill="#39657D"/>
<path d="M147.788 298.994H145.665V299.459H147.788V298.994Z" fill="#39657D"/>
<path d="M149.191 300.296H145.665V300.761H149.191V300.296Z" fill="#39657D"/>
<path d="M147.788 301.556H145.665V302.021H147.788V301.556Z" fill="#39657D"/>
<path d="M147.788 302.816H145.665V303.281H147.788V302.816Z" fill="#39657D"/>
<path d="M147.788 304.076H145.665V304.542H147.788V304.076Z" fill="#39657D"/>
<path d="M147.788 305.345H145.665V305.81H147.788V305.345Z" fill="#39657D"/>
<path d="M149.191 306.639H145.665V307.104H149.191V306.639Z" fill="#39657D"/>
<path d="M147.788 307.899H145.665V308.364H147.788V307.899Z" fill="#39657D"/>
<path d="M147.788 309.168H145.665V309.633H147.788V309.168Z" fill="#39657D"/>
<path d="M147.788 310.428H145.665V310.893H147.788V310.428Z" fill="#39657D"/>
<path d="M147.788 311.688H145.665V312.153H147.788V311.688Z" fill="#39657D"/>
<path d="M149.191 312.99H145.665V313.456H149.191V312.99Z" fill="#39657D"/>
<path d="M147.788 314.251H145.665V314.716H147.788V314.251Z" fill="#39657D"/>
<path d="M147.788 315.511H145.665V315.976H147.788V315.511Z" fill="#39657D"/>
<path d="M147.788 316.771H145.665V317.236H147.788V316.771Z" fill="#39657D"/>
<path d="M147.788 318.04H145.665V318.505H147.788V318.04Z" fill="#39657D"/>
<path d="M149.191 319.334H145.665V319.799H149.191V319.334Z" fill="#39657D"/>
<path d="M147.788 320.594H145.665V321.059H147.788V320.594Z" fill="#39657D"/>
<path d="M147.788 321.862H145.665V322.327H147.788V321.862Z" fill="#39657D"/>
<path d="M147.788 323.122H145.665V323.588H147.788V323.122Z" fill="#39657D"/>
<path d="M147.788 324.383H145.665V324.848H147.788V324.383Z" fill="#39657D"/>
<path d="M149.191 325.685H145.665V326.15H149.191V325.685Z" fill="#39657D"/>
<path d="M147.788 326.945H145.665V327.41H147.788V326.945Z" fill="#39657D"/>
<path d="M147.788 328.205H145.665V328.67H147.788V328.205Z" fill="#39657D"/>
<path d="M147.788 329.465H145.665V329.931H147.788V329.465Z" fill="#39657D"/>
<path d="M147.788 330.734H145.665V331.199H147.788V330.734Z" fill="#39657D"/>
<path d="M193.681 327.402H131.796V336.054H193.681V327.402Z" fill="#0055AA"/>
<path d="M181.36 327.402H131.796V336.054H181.36V327.402Z" fill="#1A78C6"/>
<path d="M538.085 336.054H15.5686C11.7209 336.054 8.59192 339.175 8.59192 343.031C8.59192 346.888 11.7124 350.008 15.5686 350.008H538.085C541.932 350.008 545.061 346.888 545.061 343.031C545.061 339.175 541.941 336.054 538.085 336.054Z" fill="#482320"/>
<path d="M152.532 81.7236H79.6104V181.461H152.532V81.7236Z" fill="#253E96" fill-opacity="0.5"/>
<path d="M148.219 87.6099H83.9148V175.567H148.219V87.6099Z" fill="white"/>
<path d="M126.781 83.6772C125.234 83.4489 124.261 81.8843 124.726 80.3873C125.242 78.7466 124.016 77.072 122.299 77.072H109.826C108.101 77.072 106.874 78.7466 107.399 80.3873C107.872 81.8843 106.891 83.4404 105.344 83.6772L100.524 84.3961V89.386H131.593V84.3961L126.773 83.6772H126.781Z" fill="#253E96"/>
<path d="M106.392 97.8095H91.2213V112.982H106.392V97.8095Z" fill="#75DECB"/>
<path d="M92.5237 102.512H94.5194L98.8069 107.409L105.606 98.9174L98.8069 109.303L92.5237 102.512Z" fill="white"/>
<path d="M140.912 99.8308H109.039V100.381H140.912V99.8308Z" fill="#3B3A36"/>
<path d="M109.039 105.666V105.117H140.912V105.666" fill="#3B3A36"/>
<path d="M140.912 110.403H109.039V110.952H140.912V110.403Z" fill="#3B3A36"/>
<path d="M106.392 116.517H91.2213V131.69H106.392V116.517Z" fill="#75DECB"/>
<path d="M92.5237 121.228H94.5194L98.8069 126.125L105.606 117.625L98.8069 128.019L92.5237 121.228Z" fill="white"/>
<path d="M140.912 118.547H109.039V119.097H140.912V118.547Z" fill="#3B3A36"/>
<path d="M140.912 123.833V124.383H109.039V123.833" fill="#3B3A36"/>
<path d="M140.912 129.119H109.039V129.668H140.912V129.119Z" fill="#3B3A36"/>
<path d="M106.392 135.233H91.2213V150.406H106.392V135.233Z" fill="#75DECB"/>
<path d="M92.5237 139.944H94.5194L98.8069 144.841L105.606 136.341L98.8069 146.735L92.5237 139.944Z" fill="white"/>
<path d="M140.912 137.263H109.039V137.813H140.912V137.263Z" fill="#3B3A36"/>
<path d="M140.912 142.549V143.099H109.039V142.549" fill="#3B3A36"/>
<path d="M140.912 147.835H109.039V148.385H140.912V147.835Z" fill="#3B3A36"/>
<path d="M106.392 153.95H91.2213V169.122H106.392V153.95Z" fill="#75DECB"/>
<path d="M92.5237 158.652H94.5194L98.8069 163.549L105.606 155.057L98.8069 165.452L92.5237 158.652Z" fill="white"/>
<path d="M140.912 155.971H109.039V156.521H140.912V155.971Z" fill="#3B3A36"/>
<path d="M140.912 161.257V161.815H109.039V161.257" fill="#3B3A36"/>
<path d="M140.912 166.543H109.039V167.092H140.912V166.543Z" fill="#3B3A36"/>
<path d="M465.654 64.5297C461.747 56.5713 451.531 54.2033 444.529 59.6329L442.973 60.8338L441.417 59.6329C434.415 54.2033 424.191 56.5798 420.293 64.5297C417.916 69.3758 418.542 75.1691 421.899 79.3978L442.973 97.6742L464.047 79.3978C467.404 75.1691 468.03 69.3843 465.654 64.5297Z" fill="#ED1C24"/>
<path d="M450.407 88.295C450.102 88.295 449.832 88.0835 449.756 87.7875L444.394 66.458L437.84 84.4976C437.739 84.7851 437.451 84.9627 437.155 84.9374C436.851 84.912 436.605 84.6921 436.546 84.3961L433.832 70.2892L430.914 77.4441C430.813 77.6979 430.567 77.867 430.288 77.867H409.13C408.758 77.867 408.453 77.5625 408.453 77.1904C408.453 76.8183 408.758 76.5138 409.13 76.5138H429.832L433.434 67.6759C433.544 67.3968 433.823 67.2276 434.128 67.2615C434.424 67.2868 434.669 67.5152 434.72 67.8027L437.4 81.7489L443.87 63.9377C443.971 63.6586 444.242 63.481 444.538 63.4979C444.834 63.5148 445.087 63.7178 445.155 64.0054L450.398 84.8782L454.347 69.2405C454.424 68.9445 454.686 68.733 454.999 68.733C455.303 68.733 455.574 68.936 455.65 69.232L457.612 76.5307H476.783C477.155 76.5307 477.459 76.8352 477.459 77.2073C477.459 77.5795 477.155 77.8839 476.783 77.8839H457.096C456.791 77.8839 456.521 77.6809 456.445 77.3849L455.024 72.0822L451.049 87.8044C450.973 88.1004 450.703 88.3119 450.398 88.3119L450.407 88.295Z" fill="white"/>
<path d="M491.731 156.485C494.525 144.503 487.078 132.525 475.098 129.73C463.118 126.935 451.14 134.383 448.346 146.364C445.551 158.346 452.998 170.324 464.978 173.119C476.959 175.914 488.936 168.466 491.731 156.485Z" fill="#75DECB"/>
<path d="M477.476 136.4H463.159V166.466H477.476V136.4Z" fill="white"/>
<path d="M485.341 158.593V144.274H455.278V158.593H485.341Z" fill="white"/>
<path d="M205.505 52.3287C207.788 38.1247 198.125 24.7595 183.922 22.4768C169.719 20.194 156.355 29.8581 154.073 44.0622C151.79 58.2662 161.454 71.6314 175.656 73.9141C189.859 76.1969 203.223 66.5328 205.505 52.3287Z" fill="#75DECB"/>
<path d="M174.003 27.1566C170.003 27.1566 166.756 30.4042 166.756 34.4046V44.7733H181.25V34.4046C181.25 30.4042 178.003 27.1566 174.003 27.1566Z" fill="#253E96"/>
<path d="M174.003 62.3816C170.003 62.3816 166.756 59.1339 166.756 55.1336V44.7648H181.25V55.1336C181.25 59.1339 178.003 62.3816 174.003 62.3816Z" fill="white"/>
<path d="M195.846 42.6251C193.073 39.7327 188.489 39.6397 185.597 42.4052L178.113 49.5771L188.142 60.0473L195.627 52.8755C198.519 50.1014 198.612 45.5175 195.846 42.6251Z" fill="#253E96"/>
<path d="M170.417 67.0077C167.644 64.1153 167.745 59.5314 170.637 56.7574L178.121 49.5855L188.151 60.0558L180.667 67.2276C177.775 70.0016 173.191 69.9002 170.417 67.0077Z" fill="white"/>
<path d="M310.45 137.897C324.452 137.897 335.803 126.546 335.803 112.542C335.803 98.539 324.452 87.187 310.45 87.187C296.448 87.187 285.097 98.539 285.097 112.542C285.097 126.546 296.448 137.897 310.45 137.897Z" fill="#253E96"/>
<path d="M339.428 83.2383L321.561 101.107L321.89 101.436L339.757 83.5672L339.428 83.2383Z" fill="#75DECB"/>
<path d="M295.996 138.835L284.156 126.995L281.142 130.009L292.982 141.85L295.996 138.835Z" fill="white"/>
<path d="M325.379 101.044L321.935 97.5994L288.353 131.185L291.797 134.629L325.379 101.044Z" fill="#B1A9B9"/>
<path d="M324.52 105.788L317.201 98.4682L294.598 121.074L301.917 128.393L324.52 105.788Z" fill="white"/>
<path d="M302.946 127.368L295.627 120.048L294.604 121.071L301.924 128.391L302.946 127.368Z" fill="#B1A9B9"/>
<path d="M304.184 130.643L292.344 118.802L289.33 121.816L301.17 133.657L304.184 130.643Z" fill="white"/>
<path d="M316.973 100.934L316.602 101.305L319.436 104.139L319.807 103.769L316.973 100.934Z" fill="#39657D"/>
<path d="M315.959 101.95L315.588 102.321L317.298 104.032L317.669 103.661L315.959 101.95Z" fill="#39657D"/>
<path d="M314.944 102.963L314.573 103.334L316.284 105.044L316.654 104.673L314.944 102.963Z" fill="#39657D"/>
<path d="M313.929 103.984L313.559 104.354L315.269 106.065L315.64 105.694L313.929 103.984Z" fill="#39657D"/>
<path d="M312.915 104.988L312.544 105.358L314.254 107.069L314.625 106.698L312.915 104.988Z" fill="#39657D"/>
<path d="M311.879 106.046L311.509 106.417L314.343 109.252L314.714 108.881L311.879 106.046Z" fill="#39657D"/>
<path d="M310.868 107.057L310.497 107.427L312.208 109.138L312.578 108.767L310.868 107.057Z" fill="#39657D"/>
<path d="M309.845 108.069L309.474 108.44L311.184 110.15L311.555 109.779L309.845 108.069Z" fill="#39657D"/>
<path d="M308.83 109.081L308.459 109.452L310.17 111.163L310.54 110.792L308.83 109.081Z" fill="#39657D"/>
<path d="M307.815 110.094L307.445 110.465L309.155 112.175L309.526 111.804L307.815 110.094Z" fill="#39657D"/>
<path d="M306.772 111.144L306.401 111.515L309.235 114.35L309.606 113.979L306.772 111.144Z" fill="#39657D"/>
<path d="M305.754 112.152L305.384 112.523L307.094 114.233L307.465 113.862L305.754 112.152Z" fill="#39657D"/>
<path d="M304.74 113.173L304.369 113.544L306.079 115.254L306.45 114.883L304.74 113.173Z" fill="#39657D"/>
<path d="M303.725 114.194L303.354 114.565L305.064 116.275L305.435 115.904L303.725 114.194Z" fill="#39657D"/>
<path d="M302.71 115.198L302.339 115.568L304.049 117.279L304.42 116.908L302.71 115.198Z" fill="#39657D"/>
<path d="M301.672 116.242L301.301 116.613L304.136 119.447L304.507 119.077L301.672 116.242Z" fill="#39657D"/>
<path d="M300.661 117.264L300.29 117.635L302 119.345L302.371 118.975L300.661 117.264Z" fill="#39657D"/>
<path d="M299.646 118.285L299.275 118.656L300.986 120.366L301.356 119.996L299.646 118.285Z" fill="#39657D"/>
<path d="M298.631 119.281L298.261 119.651L299.971 121.362L300.342 120.991L298.631 119.281Z" fill="#39657D"/>
<path d="M297.617 120.31L297.246 120.681L298.956 122.391L299.327 122.02L297.617 120.31Z" fill="#39657D"/>
</svg>
