<svg width="572" height="164" viewBox="0 0 572 164" fill="none" xmlns="http://www.w3.org/2000/svg">
<g filter="url(#filter0_n_37914_3046)">
<path d="M1.09446 35.6436V2.18901H23.9311V8.75577H9.1804V15.6166H22.4773V22.1997H9.1804V35.6436H1.09446ZM38.8096 36.1173C36.185 36.1173 33.9199 35.6 32.0141 34.5654C30.1192 33.52 28.6599 32.0335 27.6363 30.1059C26.6235 28.1675 26.1171 25.8642 26.1171 23.1961C26.1171 20.6043 26.6289 18.3391 27.6526 16.4007C28.6763 14.4513 30.1192 12.9376 31.9814 11.8595C33.8437 10.7704 36.038 10.2259 38.5645 10.2259C40.3505 10.2259 41.984 10.5036 43.4651 11.059C44.9462 11.6144 46.2258 12.4366 47.3039 13.5257C48.382 14.6147 49.2205 15.9596 49.8195 17.5605C50.4185 19.1504 50.7179 20.9745 50.7179 23.0328V25.0257H28.9104V20.3865H43.2854C43.2745 19.537 43.0731 18.7802 42.681 18.1159C42.289 17.4516 41.7499 16.9343 41.0638 16.564C40.3886 16.1829 39.61 15.9923 38.7279 15.9923C37.8349 15.9923 37.0345 16.1937 36.3266 16.5967C35.6187 16.9887 35.0579 17.5278 34.6441 18.2139C34.2303 18.8891 34.0124 19.6568 33.9907 20.5171V25.238C33.9907 26.2617 34.1921 27.1601 34.5951 27.9333C34.998 28.6956 35.5697 29.2892 36.3103 29.7139C37.0508 30.1386 37.9329 30.3509 38.9566 30.3509C39.6644 30.3509 40.307 30.2529 40.8841 30.0569C41.4613 29.8609 41.9568 29.5723 42.3706 29.1911C42.7845 28.81 43.0948 28.3417 43.3017 27.7863L50.6363 27.9987C50.3313 29.6431 49.6616 31.0751 48.627 32.2948C47.6034 33.5036 46.2584 34.4456 44.5922 35.1208C42.926 35.7851 40.9985 36.1173 38.8096 36.1173ZM67.4464 36.1173C64.8218 36.1173 62.5567 35.6 60.6509 34.5654C58.756 33.52 57.2967 32.0335 56.2731 30.1059C55.2603 28.1675 54.7539 25.8642 54.7539 23.1961C54.7539 20.6043 55.2657 18.3391 56.2894 16.4007C57.3131 14.4513 58.756 12.9376 60.6182 11.8595C62.4804 10.7704 64.6748 10.2259 67.2013 10.2259C68.9873 10.2259 70.6208 10.5036 72.1019 11.059C73.583 11.6144 74.8626 12.4366 75.9407 13.5257C77.0188 14.6147 77.8573 15.9596 78.4563 17.5605C79.0553 19.1504 79.3547 20.9745 79.3547 23.0328V25.0257H57.5472V20.3865H71.9222C71.9113 19.537 71.7099 18.7802 71.3178 18.1159C70.9258 17.4516 70.3867 16.9343 69.7006 16.564C69.0254 16.1829 68.2468 15.9923 67.3647 15.9923C66.4717 15.9923 65.6713 16.1937 64.9634 16.5967C64.2555 16.9887 63.6947 17.5278 63.2809 18.2139C62.867 18.8891 62.6492 19.6568 62.6275 20.5171V25.238C62.6275 26.2617 62.8289 27.1601 63.2319 27.9333C63.6348 28.6956 64.2065 29.2892 64.9471 29.7139C65.6876 30.1386 66.5697 30.3509 67.5934 30.3509C68.3012 30.3509 68.9438 30.2529 69.5209 30.0569C70.0981 29.8609 70.5936 29.5723 71.0074 29.1911C71.4213 28.81 71.7316 28.3417 71.9385 27.7863L79.2731 27.9987C78.9681 29.6431 78.2984 31.0751 77.2638 32.2948C76.2402 33.5036 74.8952 34.4456 73.229 35.1208C71.5628 35.7851 69.6353 36.1173 67.4464 36.1173ZM92.3424 2.18901V35.6436H84.3545V2.18901H92.3424ZM109.15 35.6436V10.5526H116.745V15.1592H117.023C117.546 13.6346 118.428 12.4312 119.669 11.5491C120.911 10.667 122.392 10.2259 124.113 10.2259C125.855 10.2259 127.347 10.6724 128.588 11.5654C129.83 12.4584 130.619 13.6563 130.957 15.1592H131.218C131.687 13.6672 132.601 12.4748 133.963 11.5818C135.324 10.6779 136.93 10.2259 138.782 10.2259C141.156 10.2259 143.083 10.9883 144.564 12.5129C146.045 14.0266 146.786 16.1066 146.786 18.7529V35.6436H138.798V20.5825C138.798 19.3301 138.477 18.3772 137.834 17.7238C137.192 17.0595 136.359 16.7274 135.335 16.7274C134.235 16.7274 133.369 17.0867 132.738 17.8055C132.117 18.5133 131.806 19.4662 131.806 20.6642V35.6436H124.129V20.5008C124.129 19.3356 123.813 18.4153 123.181 17.7401C122.55 17.065 121.717 16.7274 120.682 16.7274C119.985 16.7274 119.37 16.8962 118.836 17.2338C118.303 17.5605 117.883 18.0287 117.579 18.6386C117.284 19.2484 117.137 19.9672 117.137 20.7948V35.6436H109.15ZM164.368 36.1173C161.732 36.1173 159.467 35.5782 157.572 34.5001C155.688 33.4111 154.235 31.8973 153.211 29.9589C152.198 28.0096 151.692 25.7499 151.692 23.1798C151.692 20.5988 152.198 18.3391 153.211 16.4007C154.235 14.4513 155.688 12.9376 157.572 11.8595C159.467 10.7704 161.732 10.2259 164.368 10.2259C167.003 10.2259 169.263 10.7704 171.147 11.8595C173.042 12.9376 174.496 14.4513 175.508 16.4007C176.532 18.3391 177.044 20.5988 177.044 23.1798C177.044 25.7499 176.532 28.0096 175.508 29.9589C174.496 31.8973 173.042 33.4111 171.147 34.5001C169.263 35.5782 167.003 36.1173 164.368 36.1173ZM164.417 30.0896C165.375 30.0896 166.186 29.7955 166.851 29.2075C167.515 28.6194 168.021 27.8026 168.37 26.7572C168.729 25.7117 168.909 24.5029 168.909 23.1308C168.909 21.7368 168.729 20.5171 168.37 19.4717C168.021 18.4262 167.515 17.6095 166.851 17.0214C166.186 16.4333 165.375 16.1393 164.417 16.1393C163.426 16.1393 162.587 16.4333 161.901 17.0214C161.226 17.6095 160.709 18.4262 160.349 19.4717C160.001 20.5171 159.827 21.7368 159.827 23.1308C159.827 24.5029 160.001 25.7117 160.349 26.7572C160.709 27.8026 161.226 28.6194 161.901 29.2075C162.587 29.7955 163.426 30.0896 164.417 30.0896ZM182.056 35.6436V10.5526H189.815V15.1265H190.077C190.534 13.4712 191.28 12.2406 192.314 11.4347C193.349 10.618 194.552 10.2096 195.925 10.2096C196.295 10.2096 196.676 10.2368 197.068 10.2913C197.46 10.3348 197.825 10.4056 198.162 10.5036V17.4461C197.781 17.3154 197.28 17.212 196.66 17.1357C196.05 17.0595 195.505 17.0214 195.026 17.0214C194.079 17.0214 193.224 17.2338 192.461 17.6585C191.71 18.0723 191.117 18.6549 190.681 19.4063C190.256 20.1469 190.044 21.0181 190.044 22.02V35.6436H182.056ZM212.763 36.1173C210.139 36.1173 207.874 35.6 205.968 34.5654C204.073 33.52 202.614 32.0335 201.59 30.1059C200.577 28.1675 200.071 25.8642 200.071 23.1961C200.071 20.6043 200.583 18.3391 201.606 16.4007C202.63 14.4513 204.073 12.9376 205.935 11.8595C207.797 10.7704 209.992 10.2259 212.518 10.2259C214.304 10.2259 215.938 10.5036 217.419 11.059C218.9 11.6144 220.179 12.4366 221.258 13.5257C222.336 14.6147 223.174 15.9596 223.773 17.5605C224.372 19.1504 224.672 20.9745 224.672 23.0328V25.0257H202.864V20.3865H217.239C217.228 19.537 217.027 18.7802 216.635 18.1159C216.243 17.4516 215.704 16.9343 215.017 16.564C214.342 16.1829 213.564 15.9923 212.682 15.9923C211.789 15.9923 210.988 16.1937 210.28 16.5967C209.572 16.9887 209.012 17.5278 208.598 18.2139C208.184 18.8891 207.966 19.6568 207.944 20.5171V25.238C207.944 26.2617 208.146 27.1601 208.549 27.9333C208.952 28.6956 209.523 29.2892 210.264 29.7139C211.004 30.1386 211.887 30.3509 212.91 30.3509C213.618 30.3509 214.261 30.2529 214.838 30.0569C215.415 29.8609 215.91 29.5723 216.324 29.1911C216.738 28.81 217.049 28.3417 217.255 27.7863L224.59 27.9987C224.285 29.6431 223.615 31.0751 222.581 32.2948C221.557 33.5036 220.212 34.4456 218.546 35.1208C216.88 35.7851 214.952 36.1173 212.763 36.1173ZM252.203 36.1173C249.578 36.1173 247.313 35.6 245.407 34.5654C243.512 33.52 242.053 32.0335 241.03 30.1059C240.017 28.1675 239.51 25.8642 239.51 23.1961C239.51 20.6043 240.022 18.3391 241.046 16.4007C242.07 14.4513 243.512 12.9376 245.375 11.8595C247.237 10.7704 249.431 10.2259 251.958 10.2259C253.744 10.2259 255.377 10.5036 256.858 11.059C258.339 11.6144 259.619 12.4366 260.697 13.5257C261.775 14.6147 262.614 15.9596 263.213 17.5605C263.812 19.1504 264.111 20.9745 264.111 23.0328V25.0257H242.304V20.3865H256.679C256.668 19.537 256.466 18.7802 256.074 18.1159C255.682 17.4516 255.143 16.9343 254.457 16.564C253.782 16.1829 253.003 15.9923 252.121 15.9923C251.228 15.9923 250.428 16.1937 249.72 16.5967C249.012 16.9887 248.451 17.5278 248.037 18.2139C247.624 18.8891 247.406 19.6568 247.384 20.5171V25.238C247.384 26.2617 247.585 27.1601 247.988 27.9333C248.391 28.6956 248.963 29.2892 249.704 29.7139C250.444 30.1386 251.326 30.3509 252.35 30.3509C253.058 30.3509 253.7 30.2529 254.277 30.0569C254.855 29.8609 255.35 29.5723 255.764 29.1911C256.178 28.81 256.488 28.3417 256.695 27.7863L264.03 27.9987C263.725 29.6431 263.055 31.0751 262.02 32.2948C260.997 33.5036 259.652 34.4456 257.986 35.1208C256.319 35.7851 254.392 36.1173 252.203 36.1173ZM277.099 21.3339V35.6436H269.111V10.5526H276.707V15.1592H276.985C277.54 13.6237 278.487 12.4203 279.827 11.5491C281.166 10.667 282.762 10.2259 284.613 10.2259C286.377 10.2259 287.907 10.6234 289.203 11.4184C290.51 12.2025 291.523 13.3024 292.242 14.7181C292.971 16.123 293.331 17.7674 293.32 19.6514V35.6436H285.332V21.2195C285.343 19.8256 284.989 18.7366 284.27 17.9525C283.562 17.1684 282.577 16.7764 281.313 16.7764C280.475 16.7764 279.734 16.9615 279.092 17.3318C278.46 17.6911 277.97 18.2084 277.622 18.8836C277.284 19.5588 277.11 20.3756 277.099 21.3339ZM310.914 36.1173C308.289 36.1173 306.024 35.6 304.118 34.5654C302.224 33.52 300.764 32.0335 299.741 30.1059C298.728 28.1675 298.221 25.8642 298.221 23.1961C298.221 20.6043 298.733 18.3391 299.757 16.4007C300.781 14.4513 302.224 12.9376 304.086 11.8595C305.948 10.7704 308.142 10.2259 310.669 10.2259C312.455 10.2259 314.088 10.5036 315.569 11.059C317.051 11.6144 318.33 12.4366 319.408 13.5257C320.486 14.6147 321.325 15.9596 321.924 17.5605C322.523 19.1504 322.822 20.9745 322.822 23.0328V25.0257H301.015V20.3865H315.39C315.379 19.537 315.177 18.7802 314.785 18.1159C314.393 17.4516 313.854 16.9343 313.168 16.564C312.493 16.1829 311.714 15.9923 310.832 15.9923C309.939 15.9923 309.139 16.1937 308.431 16.5967C307.723 16.9887 307.162 17.5278 306.748 18.2139C306.335 18.8891 306.117 19.6568 306.095 20.5171V25.238C306.095 26.2617 306.297 27.1601 306.699 27.9333C307.102 28.6956 307.674 29.2892 308.415 29.7139C309.155 30.1386 310.037 30.3509 311.061 30.3509C311.769 30.3509 312.411 30.2529 312.989 30.0569C313.566 29.8609 314.061 29.5723 314.475 29.1911C314.889 28.81 315.199 28.3417 315.406 27.7863L322.741 27.9987C322.436 29.6431 321.766 31.0751 320.731 32.2948C319.708 33.5036 318.363 34.4456 316.697 35.1208C315.03 35.7851 313.103 36.1173 310.914 36.1173ZM327.822 35.6436V10.5526H335.581V15.1265H335.843C336.3 13.4712 337.046 12.2406 338.081 11.4347C339.115 10.618 340.318 10.2096 341.691 10.2096C342.061 10.2096 342.442 10.2368 342.834 10.2913C343.226 10.3348 343.591 10.4056 343.929 10.5036V17.4461C343.547 17.3154 343.046 17.212 342.426 17.1357C341.816 17.0595 341.271 17.0214 340.792 17.0214C339.845 17.0214 338.99 17.2338 338.228 17.6585C337.476 18.0723 336.883 18.6549 336.447 19.4063C336.022 20.1469 335.81 21.0181 335.81 22.02V35.6436H327.822ZM358.497 45.5754C356.112 45.5754 354.07 45.2432 352.371 44.5789C350.672 43.9146 349.338 43.0053 348.369 41.8509C347.4 40.6966 346.817 39.3898 346.621 37.9305L354.184 37.5058C354.326 38.0176 354.587 38.4641 354.968 38.8453C355.36 39.2264 355.867 39.5204 356.487 39.7274C357.119 39.9343 357.86 40.0377 358.709 40.0377C360.049 40.0377 361.154 39.711 362.025 39.0576C362.907 38.4151 363.348 37.288 363.348 35.6762V31.2657H363.071C362.755 32.0389 362.276 32.7304 361.633 33.3403C360.991 33.9501 360.19 34.4293 359.232 34.7778C358.284 35.1263 357.195 35.3005 355.965 35.3005C354.135 35.3005 352.458 34.8758 350.933 34.0264C349.42 33.166 348.205 31.8374 347.291 30.0406C346.387 28.2328 345.935 25.9078 345.935 23.0654C345.935 20.136 346.403 17.7238 347.34 15.8289C348.276 13.9231 349.501 12.5129 351.015 11.5981C352.54 10.6833 354.179 10.2259 355.932 10.2259C357.25 10.2259 358.377 10.4546 359.313 10.912C360.261 11.3585 361.04 11.9357 361.649 12.6436C362.259 13.3514 362.722 14.0865 363.038 14.8488H363.267V10.5526H371.222V35.7416C371.222 37.8651 370.688 39.6566 369.621 41.1159C368.554 42.5751 367.062 43.6805 365.145 44.4319C363.228 45.1942 361.012 45.5754 358.497 45.5754ZM358.742 29.4852C359.711 29.4852 360.539 29.2293 361.225 28.7174C361.911 28.2056 362.439 27.4705 362.809 26.5122C363.179 25.5538 363.365 24.4049 363.365 23.0654C363.365 21.7042 363.179 20.5335 362.809 19.5534C362.45 18.5624 361.922 17.8 361.225 17.2664C360.539 16.7328 359.711 16.466 358.742 16.466C357.751 16.466 356.912 16.7383 356.226 17.2828C355.54 17.8273 355.017 18.595 354.658 19.586C354.309 20.5661 354.135 21.7259 354.135 23.0654C354.135 24.4049 354.315 25.5538 354.674 26.5122C355.034 27.4705 355.551 28.2056 356.226 28.7174C356.912 29.2293 357.751 29.4852 358.742 29.4852ZM377.234 35.6436V10.5526H385.222V35.6436H377.234ZM381.236 7.62864C380.115 7.62864 379.151 7.25837 378.345 6.51784C377.539 5.76642 377.136 4.86254 377.136 3.8062C377.136 2.76074 377.539 1.86775 378.345 1.12722C379.151 0.375798 380.115 8.67844e-05 381.236 8.67844e-05C382.369 8.67844e-05 383.333 0.375798 384.128 1.12722C384.934 1.86775 385.337 2.76074 385.337 3.8062C385.337 4.86254 384.934 5.76642 384.128 6.51784C383.333 7.25837 382.369 7.62864 381.236 7.62864ZM413.132 18.2139L405.798 18.4099C405.721 17.8872 405.514 17.4243 405.177 17.0214C404.839 16.6076 404.398 16.2863 403.854 16.0576C403.32 15.818 402.699 15.6982 401.991 15.6982C401.066 15.6982 400.276 15.8834 399.623 16.2536C398.98 16.6239 398.665 17.1249 398.675 17.7565C398.665 18.2465 398.861 18.6713 399.264 19.0306C399.677 19.39 400.412 19.6786 401.469 19.8964L406.304 20.8112C408.809 21.2903 410.671 22.0853 411.891 23.1961C413.121 24.3069 413.742 25.7771 413.753 27.6066C413.742 29.3273 413.23 30.8247 412.217 32.0988C411.215 33.373 409.843 34.364 408.101 35.0718C406.358 35.7688 404.366 36.1173 402.122 36.1173C398.539 36.1173 395.713 35.3822 393.644 33.912C391.586 32.431 390.41 30.449 390.116 27.966L398.006 27.77C398.18 28.6847 398.632 29.3817 399.362 29.8609C400.091 30.3401 401.022 30.5796 402.155 30.5796C403.179 30.5796 404.012 30.3891 404.654 30.0079C405.297 29.6267 405.623 29.1204 405.634 28.4887C405.623 27.9224 405.373 27.4705 404.883 27.1329C404.393 26.7844 403.625 26.5122 402.58 26.3161L398.202 25.483C395.686 25.0257 393.813 24.1817 392.582 22.9511C391.352 21.7096 390.742 20.1305 390.753 18.2139C390.742 16.5368 391.188 15.1047 392.092 13.9177C392.996 12.7198 394.281 11.805 395.947 11.1734C397.614 10.5418 399.579 10.2259 401.844 10.2259C405.242 10.2259 407.921 10.9392 409.881 12.3659C411.842 13.7816 412.925 15.7309 413.132 18.2139ZM430.334 36.1173C427.71 36.1173 425.445 35.6 423.539 34.5654C421.644 33.52 420.185 32.0335 419.161 30.1059C418.148 28.1675 417.642 25.8642 417.642 23.1961C417.642 20.6043 418.154 18.3391 419.177 16.4007C420.201 14.4513 421.644 12.9376 423.506 11.8595C425.368 10.7704 427.563 10.2259 430.089 10.2259C431.875 10.2259 433.509 10.5036 434.99 11.059C436.471 11.6144 437.75 12.4366 438.829 13.5257C439.907 14.6147 440.745 15.9596 441.344 17.5605C441.943 19.1504 442.243 20.9745 442.243 23.0328V25.0257H420.435V20.3865H434.81C434.799 19.537 434.598 18.7802 434.206 18.1159C433.814 17.4516 433.275 16.9343 432.589 16.564C431.913 16.1829 431.135 15.9923 430.253 15.9923C429.36 15.9923 428.559 16.1937 427.851 16.5967C427.143 16.9887 426.583 17.5278 426.169 18.2139C425.755 18.8891 425.537 19.6568 425.515 20.5171V25.238C425.515 26.2617 425.717 27.1601 426.12 27.9333C426.523 28.6956 427.094 29.2892 427.835 29.7139C428.576 30.1386 429.458 30.3509 430.481 30.3509C431.189 30.3509 431.832 30.2529 432.409 30.0569C432.986 29.8609 433.482 29.5723 433.895 29.1911C434.309 28.81 434.62 28.3417 434.826 27.7863L442.161 27.9987C441.856 29.6431 441.186 31.0751 440.152 32.2948C439.128 33.5036 437.783 34.4456 436.117 35.1208C434.451 35.7851 432.523 36.1173 430.334 36.1173ZM456.406 36.0029C454.555 36.0029 452.873 35.5238 451.359 34.5654C449.845 33.6071 448.636 32.1696 447.732 30.2529C446.829 28.3363 446.377 25.9568 446.377 23.1144C446.377 20.1632 446.845 17.7347 447.781 15.8289C448.718 13.9231 449.943 12.5129 451.457 11.5981C452.981 10.6833 454.62 10.2259 456.374 10.2259C457.691 10.2259 458.819 10.4546 459.755 10.912C460.692 11.3585 461.465 11.9357 462.075 12.6436C462.685 13.3514 463.147 14.0865 463.463 14.8488H463.627V2.18901H471.615V35.6436H463.708V31.5761H463.463C463.126 32.3493 462.646 33.0735 462.026 33.7487C461.405 34.4239 460.626 34.9684 459.69 35.3822C458.764 35.796 457.67 36.0029 456.406 36.0029ZM459.183 29.7792C460.153 29.7792 460.98 29.507 461.666 28.9624C462.352 28.407 462.881 27.6284 463.251 26.6265C463.621 25.6246 463.806 24.4485 463.806 23.0981C463.806 21.7259 463.621 20.5444 463.251 19.5534C462.891 18.5624 462.363 17.8 461.666 17.2664C460.98 16.7328 460.153 16.466 459.183 16.466C458.192 16.466 457.354 16.7383 456.668 17.2828C455.982 17.8273 455.459 18.595 455.1 19.586C454.751 20.577 454.577 21.7477 454.577 23.0981C454.577 24.4485 454.757 25.6246 455.116 26.6265C455.475 27.6284 455.993 28.407 456.668 28.9624C457.354 29.507 458.192 29.7792 459.183 29.7792ZM482.078 36.1173C480.902 36.1173 479.895 35.7035 479.056 34.8758C478.229 34.0481 477.82 33.0463 477.831 31.8701C477.82 30.7158 478.229 29.7302 479.056 28.9134C479.895 28.0858 480.902 27.672 482.078 27.672C483.189 27.672 484.169 28.0858 485.019 28.9134C485.879 29.7302 486.315 30.7158 486.326 31.8701C486.315 32.6542 486.108 33.3675 485.705 34.01C485.313 34.6526 484.795 35.1644 484.153 35.5455C483.521 35.9267 482.83 36.1173 482.078 36.1173ZM0 67.7558V61.189H28.2763V67.7558H18.1321V94.6436H10.1605V67.7558H0ZM41.1332 80.3339V94.6436H33.1453V61.189H40.8719V74.1592H41.1496C41.7159 72.6128 42.6415 71.404 43.9266 70.5328C45.2225 69.6615 46.807 69.2259 48.6801 69.2259C50.4443 69.2259 51.9798 69.618 53.2867 70.4021C54.5935 71.1753 55.6063 72.2697 56.325 73.6855C57.0546 75.1012 57.414 76.7565 57.4031 78.6514V94.6436H49.4152V80.2195C49.4261 78.8256 49.0776 77.7366 48.3697 76.9525C47.6619 76.1684 46.6654 75.7764 45.3804 75.7764C44.5419 75.7764 43.8013 75.9615 43.1588 76.3318C42.5272 76.6911 42.0317 77.2084 41.6723 77.8836C41.3238 78.5588 41.1441 79.3756 41.1332 80.3339ZM63.3095 94.6436V69.5526H71.2974V94.6436H63.3095ZM67.3116 66.6286C66.1899 66.6286 65.2261 66.2584 64.4203 65.5178C63.6144 64.7664 63.2114 63.8625 63.2114 62.8062C63.2114 61.7607 63.6144 60.8677 64.4203 60.1272C65.2261 59.3758 66.1899 59.0001 67.3116 59.0001C68.4442 59.0001 69.4079 59.3758 70.2029 60.1272C71.0088 60.8677 71.4117 61.7607 71.4117 62.8062C71.4117 63.8625 71.0088 64.7664 70.2029 65.5178C69.4079 66.2584 68.4442 66.6286 67.3116 66.6286ZM85.2897 80.3339V94.6436H77.3017V69.5526H84.8976V74.1592H85.1753C85.7307 72.6237 86.6781 71.4203 88.0176 70.5491C89.3571 69.667 90.9525 69.2259 92.8039 69.2259C94.5681 69.2259 96.0981 69.6234 97.3941 70.4184C98.7009 71.2025 99.7137 72.3024 100.432 73.7181C101.162 75.123 101.521 76.7674 101.511 78.6514V94.6436H93.5226V80.2195C93.5335 78.8256 93.1796 77.7366 92.4608 76.9525C91.753 76.1684 90.7674 75.7764 89.5041 75.7764C88.6656 75.7764 87.9251 75.9615 87.2826 76.3318C86.6509 76.6911 86.1609 77.2084 85.8124 77.8836C85.4748 78.5588 85.3005 79.3756 85.2897 80.3339ZM114.58 88.0605L114.613 78.537H115.723L122.78 69.5526H131.83L121.343 82.4248H119.235L114.58 88.0605ZM107.376 94.6436V61.189H115.364V94.6436H107.376ZM122.96 94.6436L116.393 84.2217L121.653 78.5534L132.189 94.6436H122.96ZM146.411 94.6436V69.5526H154.007V74.1592H154.285C154.808 72.6346 155.69 71.4312 156.931 70.5491C158.173 69.667 159.654 69.2259 161.374 69.2259C163.117 69.2259 164.609 69.6724 165.85 70.5654C167.092 71.4584 167.881 72.6563 168.219 74.1592H168.48C168.949 72.6672 169.863 71.4748 171.225 70.5818C172.586 69.6779 174.192 69.2259 176.043 69.2259C178.417 69.2259 180.345 69.9883 181.826 71.5129C183.307 73.0266 184.048 75.1066 184.048 77.7529V94.6436H176.06V79.5825C176.06 78.3301 175.739 77.3772 175.096 76.7238C174.453 76.0595 173.62 75.7274 172.597 75.7274C171.497 75.7274 170.631 76.0867 169.999 76.8055C169.379 77.5133 169.068 78.4662 169.068 79.6642V94.6436H161.391V79.5008C161.391 78.3356 161.075 77.4153 160.443 76.7401C159.812 76.065 158.979 75.7274 157.944 75.7274C157.247 75.7274 156.632 75.8962 156.098 76.2338C155.565 76.5605 155.145 77.0287 154.84 77.6386C154.546 78.2484 154.399 78.9672 154.399 79.7948V94.6436H146.411ZM201.63 95.1173C198.994 95.1173 196.729 94.5782 194.834 93.5001C192.95 92.4111 191.496 90.8973 190.473 88.9589C189.46 87.0096 188.953 84.7499 188.953 82.1798C188.953 79.5988 189.46 77.3391 190.473 75.4007C191.496 73.4513 192.95 71.9376 194.834 70.8595C196.729 69.7704 198.994 69.2259 201.63 69.2259C204.265 69.2259 206.525 69.7704 208.409 70.8595C210.304 71.9376 211.757 73.4513 212.77 75.4007C213.794 77.3391 214.306 79.5988 214.306 82.1798C214.306 84.7499 213.794 87.0096 212.77 88.9589C211.757 90.8973 210.304 92.4111 208.409 93.5001C206.525 94.5782 204.265 95.1173 201.63 95.1173ZM201.679 89.0896C202.637 89.0896 203.448 88.7955 204.113 88.2075C204.777 87.6194 205.283 86.8026 205.632 85.7572C205.991 84.7117 206.171 83.5029 206.171 82.1308C206.171 80.7368 205.991 79.5171 205.632 78.4717C205.283 77.4262 204.777 76.6095 204.113 76.0214C203.448 75.4333 202.637 75.1393 201.679 75.1393C200.688 75.1393 199.849 75.4333 199.163 76.0214C198.488 76.6095 197.971 77.4262 197.611 78.4717C197.263 79.5171 197.088 80.7368 197.088 82.1308C197.088 83.5029 197.263 84.7117 197.611 85.7572C197.971 86.8026 198.488 87.6194 199.163 88.2075C199.849 88.7955 200.688 89.0896 201.679 89.0896ZM219.318 94.6436V69.5526H227.077V74.1265H227.338C227.796 72.4712 228.542 71.2406 229.576 70.4347C230.611 69.618 231.814 69.2096 233.186 69.2096C233.557 69.2096 233.938 69.2368 234.33 69.2913C234.722 69.3348 235.087 69.4056 235.424 69.5036V76.4461C235.043 76.3154 234.542 76.212 233.921 76.1357C233.312 76.0595 232.767 76.0214 232.288 76.0214C231.34 76.0214 230.486 76.2338 229.723 76.6585C228.972 77.0723 228.378 77.6549 227.943 78.4063C227.518 79.1469 227.306 80.0181 227.306 81.02V94.6436H219.318ZM250.025 95.1173C247.401 95.1173 245.135 94.6 243.23 93.5654C241.335 92.52 239.875 91.0335 238.852 89.1059C237.839 87.1675 237.333 84.8642 237.333 82.1961C237.333 79.6043 237.844 77.3391 238.868 75.4007C239.892 73.4513 241.335 71.9376 243.197 70.8595C245.059 69.7704 247.253 69.2259 249.78 69.2259C251.566 69.2259 253.2 69.5036 254.681 70.059C256.162 70.6144 257.441 71.4366 258.519 72.5257C259.597 73.6147 260.436 74.9596 261.035 76.5605C261.634 78.1504 261.933 79.9745 261.933 82.0328V84.0257H240.126V79.3865H254.501C254.49 78.537 254.289 77.7802 253.896 77.1159C253.504 76.4516 252.965 75.9343 252.279 75.564C251.604 75.1829 250.825 74.9923 249.943 74.9923C249.05 74.9923 248.25 75.1937 247.542 75.5967C246.834 75.9887 246.273 76.5278 245.86 77.2139C245.446 77.8891 245.228 78.6568 245.206 79.5171V84.238C245.206 85.2617 245.408 86.1601 245.811 86.9333C246.213 87.6956 246.785 88.2892 247.526 88.7139C248.266 89.1386 249.148 89.3509 250.172 89.3509C250.88 89.3509 251.522 89.2529 252.1 89.0569C252.677 88.8609 253.172 88.5723 253.586 88.1911C254 87.81 254.31 87.3417 254.517 86.7863L261.852 86.9987C261.547 88.6431 260.877 90.0751 259.842 91.2948C258.819 92.5036 257.474 93.4456 255.808 94.1208C254.142 94.7851 252.214 95.1173 250.025 95.1173ZM289.448 95.1173C286.802 95.1173 284.531 94.5728 282.637 93.4838C280.753 92.3947 279.304 90.881 278.291 88.9426C277.279 86.9932 276.772 84.739 276.772 82.1798C276.772 79.6097 277.279 77.3554 278.291 75.417C279.315 73.4677 280.769 71.9485 282.653 70.8595C284.548 69.7704 286.807 69.2259 289.432 69.2259C291.752 69.2259 293.772 69.6452 295.492 70.4838C297.224 71.3223 298.574 72.5093 299.543 74.0448C300.524 75.5695 301.041 77.3609 301.095 79.4191H293.63C293.478 78.1341 293.042 77.1267 292.323 76.3971C291.615 75.6675 290.69 75.3026 289.546 75.3026C288.621 75.3026 287.809 75.564 287.112 76.0867C286.415 76.5986 285.871 77.3609 285.479 78.3737C285.098 79.3756 284.907 80.617 284.907 82.0981C284.907 83.5792 285.098 84.8315 285.479 85.8552C285.871 86.868 286.415 87.6357 287.112 88.1585C287.809 88.6703 288.621 88.9262 289.546 88.9262C290.287 88.9262 290.94 88.7683 291.507 88.4525C292.084 88.1367 292.557 87.6739 292.928 87.064C293.298 86.4433 293.532 85.6918 293.63 84.8097H301.095C301.019 86.8789 300.502 88.6866 299.543 90.233C298.596 91.7794 297.262 92.9828 295.541 93.8431C293.832 94.6926 291.801 95.1173 289.448 95.1173ZM314.091 61.189V94.6436H306.103V61.189H314.091ZM331.824 95.1173C329.2 95.1173 326.934 94.6 325.029 93.5654C323.134 92.52 321.675 91.0335 320.651 89.1059C319.638 87.1675 319.132 84.8642 319.132 82.1961C319.132 79.6043 319.644 77.3391 320.667 75.4007C321.691 73.4513 323.134 71.9376 324.996 70.8595C326.858 69.7704 329.053 69.2259 331.579 69.2259C333.365 69.2259 334.999 69.5036 336.48 70.059C337.961 70.6144 339.24 71.4366 340.318 72.5257C341.397 73.6147 342.235 74.9596 342.834 76.5605C343.433 78.1504 343.733 79.9745 343.733 82.0328V84.0257H321.925V79.3865H336.3C336.289 78.537 336.088 77.7802 335.696 77.1159C335.304 76.4516 334.765 75.9343 334.078 75.564C333.403 75.1829 332.625 74.9923 331.742 74.9923C330.849 74.9923 330.049 75.1937 329.341 75.5967C328.633 75.9887 328.073 76.5278 327.659 77.2139C327.245 77.8891 327.027 78.6568 327.005 79.5171V84.238C327.005 85.2617 327.207 86.1601 327.61 86.9333C328.013 87.6956 328.584 88.2892 329.325 88.7139C330.065 89.1386 330.948 89.3509 331.971 89.3509C332.679 89.3509 333.322 89.2529 333.899 89.0569C334.476 88.8609 334.971 88.5723 335.385 88.1911C335.799 87.81 336.109 87.3417 336.316 86.7863L343.651 86.9987C343.346 88.6431 342.676 90.0751 341.642 91.2948C340.618 92.5036 339.273 93.4456 337.607 94.1208C335.941 94.7851 334.013 95.1173 331.824 95.1173ZM355.805 95.0683C354.205 95.0683 352.783 94.8015 351.542 94.2678C350.311 93.7233 349.337 92.9066 348.618 91.8176C347.91 90.7177 347.556 89.3401 347.556 87.6847C347.556 86.2908 347.801 85.1147 348.291 84.1563C348.781 83.198 349.456 82.4194 350.317 81.8204C351.177 81.2214 352.168 80.7695 353.29 80.4646C354.411 80.1488 355.609 79.9364 356.884 79.8275C358.31 79.6968 359.459 79.5607 360.33 79.4191C361.202 79.2667 361.833 79.0543 362.225 78.782C362.628 78.4989 362.83 78.1014 362.83 77.5896V77.5079C362.83 76.6694 362.541 76.0214 361.964 75.564C361.387 75.1066 360.608 74.8779 359.628 74.8779C358.572 74.8779 357.722 75.1066 357.08 75.564C356.437 76.0214 356.029 76.653 355.854 77.4589L348.487 77.1975C348.705 75.6729 349.266 74.3116 350.17 73.1137C351.085 71.9049 352.337 70.9575 353.927 70.2714C355.528 69.5744 357.45 69.2259 359.693 69.2259C361.294 69.2259 362.77 69.4165 364.12 69.7977C365.47 70.1679 366.647 70.7124 367.648 71.4312C368.65 72.1391 369.424 73.0103 369.968 74.0448C370.523 75.0794 370.801 76.261 370.801 77.5896V94.6436H363.287V91.1478H363.091C362.644 91.9972 362.073 92.716 361.376 93.3041C360.69 93.8921 359.878 94.3332 358.942 94.6272C358.016 94.9213 356.971 95.0683 355.805 95.0683ZM358.272 89.841C359.132 89.841 359.906 89.6668 360.592 89.3183C361.289 88.9698 361.844 88.4906 362.258 87.8808C362.672 87.26 362.879 86.5413 362.879 85.7245V83.3396C362.65 83.4594 362.372 83.5683 362.045 83.6663C361.73 83.7643 361.381 83.8569 361 83.944C360.619 84.0311 360.227 84.1073 359.824 84.1727C359.421 84.238 359.034 84.2979 358.664 84.3524C357.913 84.4722 357.27 84.6573 356.737 84.9078C356.214 85.1582 355.811 85.4849 355.528 85.8879C355.255 86.2799 355.119 86.7482 355.119 87.2927C355.119 88.1204 355.413 88.752 356.001 89.1876C356.6 89.6232 357.357 89.841 358.272 89.841ZM376.605 94.6436V69.5526H384.365V74.1265H384.626C385.083 72.4712 385.829 71.2406 386.864 70.4347C387.898 69.618 389.102 69.2096 390.474 69.2096C390.844 69.2096 391.225 69.2368 391.617 69.2913C392.01 69.3348 392.374 69.4056 392.712 69.5036V76.4461C392.331 76.3154 391.83 76.212 391.209 76.1357C390.599 76.0595 390.055 76.0214 389.576 76.0214C388.628 76.0214 387.773 76.2338 387.011 76.6585C386.26 77.0723 385.666 77.6549 385.23 78.4063C384.806 79.1469 384.593 80.0181 384.593 81.02V94.6436H376.605ZM404.875 61.189V94.6436H396.887V61.189H404.875ZM415.763 104.053C414.805 104.053 413.901 103.976 413.052 103.824C412.202 103.682 411.473 103.492 410.863 103.252L412.627 97.4532C413.411 97.7146 414.119 97.867 414.75 97.9106C415.393 97.9542 415.943 97.8507 416.4 97.6002C416.869 97.3606 417.228 96.9305 417.478 96.3097L417.789 95.5583L408.87 69.5526H417.233L421.856 87.4561H422.118L426.806 69.5526H435.218L425.76 97.0448C425.303 98.417 424.655 99.6258 423.817 100.671C422.989 101.728 421.916 102.555 420.598 103.154C419.292 103.753 417.68 104.053 415.763 104.053ZM442.121 95.1173C440.945 95.1173 439.938 94.7035 439.099 93.8758C438.272 93.0481 437.863 92.0463 437.874 90.8701C437.863 89.7158 438.272 88.7302 439.099 87.9134C439.938 87.0858 440.945 86.672 442.121 86.672C443.232 86.672 444.212 87.0858 445.062 87.9134C445.922 88.7302 446.358 89.7158 446.368 90.8701C446.358 91.6542 446.151 92.3675 445.748 93.01C445.356 93.6526 444.838 94.1644 444.196 94.5455C443.564 94.9267 442.873 95.1173 442.121 95.1173ZM19.1776 130.219C19.0687 129.021 18.584 128.09 17.7237 127.426C16.8743 126.75 15.66 126.413 14.081 126.413C13.0355 126.413 12.1643 126.549 11.4673 126.821C10.7704 127.093 10.2476 127.469 9.89915 127.948C9.55066 128.417 9.37098 128.956 9.36009 129.565C9.33831 130.066 9.43632 130.507 9.65412 130.889C9.88281 131.27 10.2095 131.607 10.6342 131.901C11.0698 132.185 11.5926 132.435 12.2024 132.653C12.8123 132.871 13.4983 133.061 14.2607 133.225L17.1357 133.878C18.791 134.237 20.2502 134.716 21.5135 135.315C22.7876 135.914 23.8549 136.628 24.7152 137.455C25.5864 138.283 26.2453 139.236 26.6918 140.314C27.1383 141.392 27.367 142.601 27.3778 143.94C27.367 146.053 26.8333 147.866 25.777 149.38C24.7206 150.894 23.2015 152.054 21.2195 152.859C19.2483 153.665 16.8688 154.068 14.081 154.068C11.2822 154.068 8.8428 153.649 6.76278 152.81C4.68277 151.972 3.06558 150.698 1.91122 148.988C0.756866 147.278 0.163352 145.117 0.130682 142.503H7.87358C7.93892 143.581 8.22751 144.479 8.73935 145.198C9.25118 145.917 9.9536 146.461 10.8466 146.832C11.7505 147.202 12.7959 147.387 13.983 147.387C15.072 147.387 15.9976 147.24 16.7599 146.946C17.5331 146.652 18.1267 146.244 18.5405 145.721C18.9543 145.198 19.1667 144.599 19.1776 143.924C19.1667 143.292 18.9706 142.753 18.5895 142.307C18.2083 141.85 17.6203 141.457 16.8253 141.131C16.0412 140.793 15.0393 140.483 13.8196 140.2L10.3239 139.383C7.42708 138.719 5.1456 137.646 3.4794 136.165C1.81321 134.673 0.985559 132.658 0.996449 130.121C0.985559 128.052 1.54096 126.238 2.66264 124.681C3.78433 123.124 5.33617 121.91 7.31818 121.038C9.30019 120.167 11.5599 119.732 14.0973 119.732C16.6892 119.732 18.938 120.173 20.8438 121.055C22.7604 121.926 24.2469 123.151 25.3033 124.73C26.3596 126.309 26.8987 128.139 26.9205 130.219H19.1776ZM48.5699 142.813V128.553H56.5414V153.644H48.9292V148.972H48.6679C48.1125 150.507 47.165 151.727 45.8255 152.631C44.4969 153.524 42.8906 153.97 41.0066 153.97C39.2969 153.97 37.7941 153.578 36.4981 152.794C35.2022 152.01 34.1949 150.916 33.4761 149.511C32.7574 148.095 32.3925 146.44 32.3816 144.545V128.553H40.3696V142.977C40.3805 144.338 40.7398 145.411 41.4477 146.195C42.1556 146.979 43.1193 147.371 44.339 147.371C45.134 147.371 45.8473 147.197 46.4789 146.848C47.1215 146.489 47.6279 145.971 47.9981 145.296C48.3793 144.61 48.5699 143.783 48.5699 142.813ZM62.5458 163.053V128.553H70.452V132.849H70.6971C71.0238 132.086 71.4866 131.351 72.0856 130.644C72.6954 129.936 73.4686 129.359 74.4052 128.912C75.3526 128.455 76.4852 128.226 77.8029 128.226C79.5453 128.226 81.1734 128.683 82.6871 129.598C84.2117 130.513 85.4423 131.923 86.3789 133.829C87.3154 135.735 87.7837 138.163 87.7837 141.114C87.7837 143.957 87.3318 146.336 86.4279 148.253C85.5349 150.17 84.3261 151.607 82.8015 152.565C81.2877 153.524 79.6052 154.003 77.7539 154.003C76.4906 154.003 75.3962 153.796 74.4705 153.382C73.5448 152.968 72.7662 152.424 72.1346 151.749C71.5138 151.073 71.0347 150.349 70.6971 149.576H70.5337V163.053H62.5458ZM70.3704 141.098C70.3704 142.448 70.55 143.625 70.9094 144.627C71.2797 145.628 71.8079 146.407 72.4939 146.962C73.1909 147.507 74.024 147.779 74.9932 147.779C75.9733 147.779 76.8064 147.507 77.4925 146.962C78.1786 146.407 78.6959 145.628 79.0444 144.627C79.4037 143.625 79.5834 142.448 79.5834 141.098C79.5834 139.748 79.4037 138.577 79.0444 137.586C78.6959 136.595 78.1786 135.827 77.4925 135.283C76.8173 134.738 75.9842 134.466 74.9932 134.466C74.0131 134.466 73.18 134.733 72.4939 135.266C71.8079 135.8 71.2797 136.562 70.9094 137.553C70.55 138.544 70.3704 139.726 70.3704 141.098ZM92.8896 163.053V128.553H100.796V132.849H101.041C101.368 132.086 101.83 131.351 102.429 130.644C103.039 129.936 103.812 129.359 104.749 128.912C105.696 128.455 106.829 128.226 108.147 128.226C109.889 128.226 111.517 128.683 113.031 129.598C114.556 130.513 115.786 131.923 116.723 133.829C117.659 135.735 118.128 138.163 118.128 141.114C118.128 143.957 117.676 146.336 116.772 148.253C115.879 150.17 114.67 151.607 113.145 152.565C111.632 153.524 109.949 154.003 108.098 154.003C106.834 154.003 105.74 153.796 104.814 153.382C103.889 152.968 103.11 152.424 102.478 151.749C101.858 151.073 101.378 150.349 101.041 149.576H100.878V163.053H92.8896ZM100.714 141.098C100.714 142.448 100.894 143.625 101.253 144.627C101.624 145.628 102.152 146.407 102.838 146.962C103.535 147.507 104.368 147.779 105.337 147.779C106.317 147.779 107.15 147.507 107.836 146.962C108.522 146.407 109.04 145.628 109.388 144.627C109.748 143.625 109.927 142.448 109.927 141.098C109.927 139.748 109.748 138.577 109.388 137.586C109.04 136.595 108.522 135.827 107.836 135.283C107.161 134.738 106.328 134.466 105.337 134.466C104.357 134.466 103.524 134.733 102.838 135.266C102.152 135.8 101.624 136.562 101.253 137.553C100.894 138.544 100.714 139.726 100.714 141.098ZM134.946 154.117C132.31 154.117 130.045 153.578 128.15 152.5C126.266 151.411 124.813 149.897 123.789 147.959C122.776 146.01 122.27 143.75 122.27 141.18C122.27 138.599 122.776 136.339 123.789 134.401C124.813 132.451 126.266 130.938 128.15 129.859C130.045 128.77 132.31 128.226 134.946 128.226C137.581 128.226 139.841 128.77 141.725 129.859C143.62 130.938 145.074 132.451 146.086 134.401C147.11 136.339 147.622 138.599 147.622 141.18C147.622 143.75 147.11 146.01 146.086 147.959C145.074 149.897 143.62 151.411 141.725 152.5C139.841 153.578 137.581 154.117 134.946 154.117ZM134.995 148.09C135.953 148.09 136.764 147.796 137.429 147.207C138.093 146.619 138.599 145.803 138.948 144.757C139.307 143.712 139.487 142.503 139.487 141.131C139.487 139.737 139.307 138.517 138.948 137.472C138.599 136.426 138.093 135.609 137.429 135.021C136.764 134.433 135.953 134.139 134.995 134.139C134.004 134.139 133.165 134.433 132.479 135.021C131.804 135.609 131.287 136.426 130.927 137.472C130.579 138.517 130.405 139.737 130.405 141.131C130.405 142.503 130.579 143.712 130.927 144.757C131.287 145.803 131.804 146.619 132.479 147.207C133.165 147.796 134.004 148.09 134.995 148.09ZM152.634 153.644V128.553H160.393V133.127H160.655C161.112 131.471 161.858 130.241 162.892 129.435C163.927 128.618 165.13 128.21 166.503 128.21C166.873 128.21 167.254 128.237 167.646 128.291C168.038 128.335 168.403 128.406 168.74 128.504V135.446C168.359 135.315 167.858 135.212 167.238 135.136C166.628 135.06 166.083 135.021 165.604 135.021C164.657 135.021 163.802 135.234 163.039 135.658C162.288 136.072 161.695 136.655 161.259 137.406C160.834 138.147 160.622 139.018 160.622 140.02V153.644H152.634ZM188.246 128.553V134.433H172.417V128.553H188.246ZM175.733 122.541H183.721V145.754C183.721 146.244 183.797 146.641 183.95 146.946C184.113 147.24 184.347 147.453 184.652 147.583C184.957 147.703 185.322 147.763 185.747 147.763C186.051 147.763 186.373 147.736 186.71 147.681C187.059 147.616 187.32 147.561 187.494 147.518L188.703 153.284C188.322 153.393 187.783 153.529 187.086 153.693C186.4 153.856 185.578 153.959 184.619 154.003C182.746 154.09 181.14 153.872 179.801 153.35C178.472 152.816 177.454 151.988 176.746 150.867C176.049 149.745 175.711 148.335 175.733 146.636V122.541ZM208.929 163.053C207.97 163.053 207.066 162.976 206.217 162.824C205.367 162.682 204.638 162.492 204.028 162.252L205.792 156.453C206.576 156.715 207.284 156.867 207.916 156.911C208.558 156.954 209.108 156.851 209.566 156.6C210.034 156.361 210.393 155.93 210.644 155.31L210.954 154.558L202.035 128.553H210.399L215.022 146.456H215.283L219.971 128.553H228.384L218.926 156.045C218.468 157.417 217.82 158.626 216.982 159.671C216.154 160.728 215.081 161.555 213.764 162.154C212.457 162.753 210.845 163.053 208.929 163.053ZM243.27 154.117C240.635 154.117 238.37 153.578 236.475 152.5C234.591 151.411 233.137 149.897 232.113 147.959C231.101 146.01 230.594 143.75 230.594 141.18C230.594 138.599 231.101 136.339 232.113 134.401C233.137 132.451 234.591 130.938 236.475 129.859C238.37 128.77 240.635 128.226 243.27 128.226C245.906 128.226 248.166 128.77 250.05 129.859C251.944 130.938 253.398 132.451 254.411 134.401C255.435 136.339 255.947 138.599 255.947 141.18C255.947 143.75 255.435 146.01 254.411 147.959C253.398 149.897 251.944 151.411 250.05 152.5C248.166 153.578 245.906 154.117 243.27 154.117ZM243.319 148.09C244.278 148.09 245.089 147.796 245.753 147.207C246.418 146.619 246.924 145.803 247.273 144.757C247.632 143.712 247.812 142.503 247.812 141.131C247.812 139.737 247.632 138.517 247.273 137.472C246.924 136.426 246.418 135.609 245.753 135.021C245.089 134.433 244.278 134.139 243.319 134.139C242.328 134.139 241.49 134.433 240.804 135.021C240.129 135.609 239.611 136.426 239.252 137.472C238.903 138.517 238.729 139.737 238.729 141.131C238.729 142.503 238.903 143.712 239.252 144.757C239.611 145.803 240.129 146.619 240.804 147.207C241.49 147.796 242.328 148.09 243.319 148.09ZM277.147 142.813V128.553H285.118V153.644H277.506V148.972H277.245C276.689 150.507 275.742 151.727 274.402 152.631C273.074 153.524 271.468 153.97 269.584 153.97C267.874 153.97 266.371 153.578 265.075 152.794C263.779 152.01 262.772 150.916 262.053 149.511C261.334 148.095 260.969 146.44 260.959 144.545V128.553H268.946V142.977C268.957 144.338 269.317 145.411 270.025 146.195C270.732 146.979 271.696 147.371 272.916 147.371C273.711 147.371 274.424 147.197 275.056 146.848C275.698 146.489 276.205 145.971 276.575 145.296C276.956 144.61 277.147 143.783 277.147 142.813ZM291.123 153.644V128.553H298.882V133.127H299.143C299.601 131.471 300.347 130.241 301.381 129.435C302.416 128.618 303.619 128.21 304.991 128.21C305.362 128.21 305.743 128.237 306.135 128.291C306.527 128.335 306.892 128.406 307.229 128.504V135.446C306.848 135.315 306.347 135.212 305.726 135.136C305.117 135.06 304.572 135.021 304.093 135.021C303.145 135.021 302.291 135.234 301.528 135.658C300.777 136.072 300.183 136.655 299.748 137.406C299.323 138.147 299.111 139.018 299.111 140.02V153.644H291.123ZM326.895 153.644L320.361 128.553H328.382L331.763 144.627H331.975L335.602 128.553H343.426L347.151 144.512H347.363L350.646 128.553H358.667L352.117 153.644H343.573L339.653 139.024H339.375L335.455 153.644H326.895ZM373.982 154.117C371.358 154.117 369.093 153.6 367.187 152.565C365.292 151.52 363.833 150.033 362.809 148.106C361.796 146.167 361.29 143.864 361.29 141.196C361.29 138.604 361.802 136.339 362.825 134.401C363.849 132.451 365.292 130.938 367.154 129.859C369.017 128.77 371.211 128.226 373.737 128.226C375.523 128.226 377.157 128.504 378.638 129.059C380.119 129.614 381.399 130.437 382.477 131.526C383.555 132.615 384.393 133.96 384.992 135.56C385.591 137.15 385.891 138.975 385.891 141.033V143.026H364.083V138.386H378.458C378.447 137.537 378.246 136.78 377.854 136.116C377.462 135.452 376.923 134.934 376.237 134.564C375.562 134.183 374.783 133.992 373.901 133.992C373.008 133.992 372.207 134.194 371.5 134.597C370.792 134.989 370.231 135.528 369.817 136.214C369.403 136.889 369.185 137.657 369.164 138.517V143.238C369.164 144.262 369.365 145.16 369.768 145.933C370.171 146.696 370.743 147.289 371.483 147.714C372.224 148.139 373.106 148.351 374.129 148.351C374.837 148.351 375.48 148.253 376.057 148.057C376.634 147.861 377.13 147.572 377.544 147.191C377.957 146.81 378.268 146.342 378.475 145.786L385.809 145.999C385.504 147.643 384.834 149.075 383.8 150.295C382.776 151.504 381.431 152.446 379.765 153.121C378.099 153.785 376.171 154.117 373.982 154.117ZM398.878 120.189V153.644H390.891V120.189H398.878ZM412.871 120.189V153.644H404.883V120.189H412.871ZM429.678 153.644V120.189H437.666V132.849H437.829C438.156 132.086 438.619 131.351 439.218 130.644C439.828 129.936 440.601 129.359 441.537 128.912C442.485 128.455 443.617 128.226 444.935 128.226C446.677 128.226 448.305 128.683 449.819 129.598C451.344 130.513 452.574 131.923 453.511 133.829C454.448 135.735 454.916 138.163 454.916 141.114C454.916 143.957 454.464 146.336 453.56 148.253C452.667 150.17 451.458 151.607 449.934 152.565C448.42 153.524 446.737 154.003 444.886 154.003C443.623 154.003 442.528 153.796 441.603 153.382C440.677 152.968 439.898 152.424 439.267 151.749C438.646 151.073 438.167 150.349 437.829 149.576H437.584V153.644H429.678ZM437.502 141.098C437.502 142.448 437.682 143.625 438.042 144.627C438.412 145.628 438.94 146.407 439.626 146.962C440.323 147.507 441.156 147.779 442.125 147.779C443.105 147.779 443.939 147.507 444.625 146.962C445.311 146.407 445.828 145.628 446.176 144.627C446.536 143.625 446.716 142.448 446.716 141.098C446.716 139.748 446.536 138.577 446.176 137.586C445.828 136.595 445.311 135.827 444.625 135.283C443.949 134.738 443.116 134.466 442.125 134.466C441.145 134.466 440.312 134.733 439.626 135.266C438.94 135.8 438.412 136.562 438.042 137.553C437.682 138.544 437.502 139.726 437.502 141.098ZM471.75 154.117C469.126 154.117 466.861 153.6 464.955 152.565C463.06 151.52 461.601 150.033 460.577 148.106C459.564 146.167 459.058 143.864 459.058 141.196C459.058 138.604 459.57 136.339 460.593 134.401C461.617 132.451 463.06 130.938 464.922 129.859C466.785 128.77 468.979 128.226 471.505 128.226C473.291 128.226 474.925 128.504 476.406 129.059C477.887 129.614 479.167 130.437 480.245 131.526C481.323 132.615 482.161 133.96 482.76 135.56C483.359 137.15 483.659 138.975 483.659 141.033V143.026H461.851V138.386H476.226C476.215 137.537 476.014 136.78 475.622 136.116C475.23 135.452 474.691 134.934 474.005 134.564C473.33 134.183 472.551 133.992 471.669 133.992C470.776 133.992 469.975 134.194 469.267 134.597C468.56 134.989 467.999 135.528 467.585 136.214C467.171 136.889 466.953 137.657 466.932 138.517V143.238C466.932 144.262 467.133 145.16 467.536 145.933C467.939 146.696 468.511 147.289 469.251 147.714C469.992 148.139 470.874 148.351 471.897 148.351C472.605 148.351 473.248 148.253 473.825 148.057C474.402 147.861 474.898 147.572 475.312 147.191C475.725 146.81 476.036 146.342 476.243 145.786L483.577 145.999C483.272 147.643 482.602 149.075 481.568 150.295C480.544 151.504 479.199 152.446 477.533 153.121C475.867 153.785 473.939 154.117 471.75 154.117ZM488.659 153.644V128.553H496.646V153.644H488.659ZM492.661 125.629C491.539 125.629 490.575 125.258 489.769 124.518C488.963 123.766 488.561 122.863 488.561 121.806C488.561 120.761 488.963 119.868 489.769 119.127C490.575 118.376 491.539 118 492.661 118C493.793 118 494.757 118.376 495.552 119.127C496.358 119.868 496.761 120.761 496.761 121.806C496.761 122.863 496.358 123.766 495.552 124.518C494.757 125.258 493.793 125.629 492.661 125.629ZM510.639 139.334V153.644H502.651V128.553H510.247V133.159H510.524C511.08 131.624 512.027 130.42 513.367 129.549C514.706 128.667 516.302 128.226 518.153 128.226C519.917 128.226 521.447 128.623 522.743 129.418C524.05 130.203 525.063 131.302 525.781 132.718C526.511 134.123 526.87 135.767 526.86 137.651V153.644H518.872V139.22C518.883 137.826 518.529 136.737 517.81 135.953C517.102 135.168 516.116 134.776 514.853 134.776C514.015 134.776 513.274 134.961 512.632 135.332C512 135.691 511.51 136.208 511.161 136.884C510.824 137.559 510.65 138.376 510.639 139.334ZM544.421 163.575C542.036 163.575 539.994 163.243 538.295 162.579C536.597 161.915 535.262 161.005 534.293 159.851C533.324 158.697 532.741 157.39 532.545 155.93L540.109 155.506C540.25 156.018 540.512 156.464 540.893 156.845C541.285 157.226 541.791 157.52 542.412 157.727C543.043 157.934 543.784 158.038 544.633 158.038C545.973 158.038 547.078 157.711 547.95 157.058C548.832 156.415 549.273 155.288 549.273 153.676V149.266H548.995C548.679 150.039 548.2 150.73 547.557 151.34C546.915 151.95 546.115 152.429 545.156 152.778C544.209 153.126 543.12 153.301 541.889 153.301C540.06 153.301 538.383 152.876 536.858 152.026C535.344 151.166 534.13 149.837 533.215 148.041C532.311 146.233 531.859 143.908 531.859 141.065C531.859 138.136 532.328 135.724 533.264 133.829C534.201 131.923 535.426 130.513 536.94 129.598C538.464 128.683 540.103 128.226 541.856 128.226C543.174 128.226 544.301 128.455 545.238 128.912C546.185 129.359 546.964 129.936 547.574 130.644C548.184 131.351 548.646 132.086 548.962 132.849H549.191V128.553H557.146V153.742C557.146 155.865 556.613 157.657 555.545 159.116C554.478 160.575 552.986 161.68 551.07 162.432C549.153 163.194 546.937 163.575 544.421 163.575ZM544.666 147.485C545.635 147.485 546.463 147.229 547.149 146.717C547.835 146.206 548.363 145.47 548.734 144.512C549.104 143.554 549.289 142.405 549.289 141.065C549.289 139.704 549.104 138.533 548.734 137.553C548.374 136.562 547.846 135.8 547.149 135.266C546.463 134.733 545.635 134.466 544.666 134.466C543.675 134.466 542.837 134.738 542.151 135.283C541.464 135.827 540.942 136.595 540.582 137.586C540.234 138.566 540.06 139.726 540.06 141.065C540.06 142.405 540.239 143.554 540.599 144.512C540.958 145.47 541.475 146.206 542.151 146.717C542.837 147.229 543.675 147.485 544.666 147.485ZM567.651 154.117C566.475 154.117 565.467 153.703 564.629 152.876C563.801 152.048 563.393 151.046 563.404 149.87C563.393 148.716 563.801 147.73 564.629 146.913C565.467 146.086 566.475 145.672 567.651 145.672C568.762 145.672 569.742 146.086 570.591 146.913C571.452 147.73 571.887 148.716 571.898 149.87C571.887 150.654 571.68 151.368 571.277 152.01C570.885 152.653 570.368 153.164 569.725 153.546C569.094 153.927 568.402 154.117 567.651 154.117Z" fill="#EDB984"/>
</g>
<defs>
<filter id="filter0_n_37914_3046" x="0" y="0" width="571.898" height="163.575" filterUnits="userSpaceOnUse" color-interpolation-filters="sRGB">
<feFlood flood-opacity="0" result="BackgroundImageFix"/>
<feBlend mode="normal" in="SourceGraphic" in2="BackgroundImageFix" result="shape"/>
<feTurbulence type="fractalNoise" baseFrequency="0.25 0.25" stitchTiles="stitch" numOctaves="3" result="noise" seed="2357" />
<feColorMatrix in="noise" type="luminanceToAlpha" result="alphaNoise" />
<feComponentTransfer in="alphaNoise" result="coloredNoise1">
<feFuncA type="discrete" tableValues="1 1 1 1 1 1 1 1 1 1 1 1 1 1 1 1 1 1 1 1 1 1 1 1 1 1 1 1 1 1 1 1 1 1 1 1 1 1 1 1 1 1 1 1 1 1 1 1 1 1 1 0 0 0 0 0 0 0 0 0 0 0 0 0 0 0 0 0 0 0 0 0 0 0 0 0 0 0 0 0 0 0 0 0 0 0 0 0 0 0 0 0 0 0 0 0 0 0 0 0 "/>
</feComponentTransfer>
<feComposite operator="in" in2="shape" in="coloredNoise1" result="noise1Clipped" />
<feFlood flood-color="rgba(0, 0, 0, 0.25)" result="color1Flood" />
<feComposite operator="in" in2="noise1Clipped" in="color1Flood" result="color1" />
<feMerge result="effect1_noise_37914_3046">
<feMergeNode in="shape" />
<feMergeNode in="color1" />
</feMerge>
</filter>
</defs>
</svg>
