<svg width="18" height="20" viewBox="0 0 18 20" fill="none" xmlns="http://www.w3.org/2000/svg">
<path opacity="0.2" d="M9 19.2877C4.02944 19.2877 1.00408e-06 14.9701 7.86806e-07 9.64391C5.69536e-07 4.31777 4.02944 7.54625e-05 9 7.52297e-05C13.9706 7.49969e-05 18 4.31777 18 9.64391C18 14.9701 13.9706 19.2877 9 19.2877Z" fill="#A3B094"/>
<g clip-path="url(#clip0_36614_2098)">
<path d="M11.3092 9.64429C11.3092 9.40824 11.2217 9.18186 11.0659 9.01492L7.49945 5.19329L6.68945 6.06123L10.0341 9.64429L6.68945 13.2273L7.49945 14.0953L11.0659 10.2737C11.2217 10.1067 11.3092 9.88034 11.3092 9.64429Z" fill="white"/>
</g>
<defs>
<clipPath id="clip0_36614_2098">
<rect width="8.902" height="8.30769" fill="white" transform="translate(4.8457 14.0953) rotate(-90)"/>
</clipPath>
</defs>
</svg>
