<svg width="40" height="40" viewBox="0 0 40 40" fill="none" xmlns="http://www.w3.org/2000/svg">
<path d="M20 28.3333V25.2C20 22.213 20 20.7195 19.4187 19.5787C18.9074 18.5751 18.0915 17.7592 17.0879 17.2479C15.9471 16.6666 14.4536 16.6666 11.4667 16.6666H5" stroke="white" stroke-width="2" stroke-linecap="round" stroke-linejoin="round"/>
<path d="M21.667 10C21.667 7.23858 23.9056 5 26.667 5H30.0003" stroke="white" stroke-width="2" stroke-linecap="round" stroke-linejoin="round"/>
<path d="M10 11.6667V8.33333C10 6.49238 11.4924 5 13.3333 5C15.1743 5 16.6667 6.49238 16.6667 8.33333C16.6667 9.25381 17.4129 10 18.3333 10H25C27.7984 10 29.1976 10 30.2803 10.5121C31.3957 11.0396 32.2937 11.9376 32.8213 13.053C33.3333 14.1357 33.3333 15.5349 33.3333 18.3333V19.4445C33.3333 23.9976 33.3333 26.2742 32.6497 28.0907C31.5677 30.9655 29.2988 33.2343 26.424 34.3163C24.6075 35 22.3309 35 17.7778 35C15.5012 35 14.3629 35 13.4547 34.6582C12.0173 34.1172 10.8828 32.9827 10.3418 31.5453C10 30.6371 10 29.4988 10 27.2222V21.6667" stroke="white" stroke-width="2" stroke-linecap="round" stroke-linejoin="round"/>
<path d="M11.667 16.6666H20.0003C21.2394 16.6666 21.8589 16.6666 22.3741 16.7691C24.4898 17.1899 26.1437 18.8438 26.5645 20.9595C26.667 21.4747 26.667 22.0942 26.667 23.3333" stroke="white" stroke-width="2" stroke-linecap="round" stroke-linejoin="round"/>
</svg>
