<svg width="60" height="38" viewBox="0 0 60 38" fill="none" xmlns="http://www.w3.org/2000/svg">
<g clip-path="url(#clip0_36968_3393)">
<path d="M29.9857 -0.000230473C38.0868 -0.000230473 46.188 -0.000230473 54.2891 -0.000230473C57.0229 -0.000230473 59.1126 1.48832 59.7853 3.92153C59.9284 4.45111 60 5.02363 60 5.56752C60 14.4273 60.0143 23.3013 60 32.161C60 35.3242 57.7672 37.6 54.604 37.7002C54.4036 37.7002 54.2032 37.7002 54.0029 37.7002C37.9294 37.7002 21.8559 37.7002 5.78244 37.7002C3.13454 37.7002 1.13073 36.412 0.343511 34.1505C0.128817 33.5065 0.014313 32.8051 0.014313 32.1181C0 23.3013 0 14.4559 0 5.61046C0 2.31847 2.29008 0.0140825 5.61069 -0.000230473C10.4485 -0.0145435 15.3006 -0.000230473 20.1384 -0.000230473C23.416 -0.000230473 26.6937 -0.000230473 29.9857 -0.000230473ZM29.9857 35.5675C38.0868 35.5675 46.188 35.5675 54.2891 35.5675C56.5506 35.5675 57.8531 34.2507 57.8531 31.9893C57.8531 23.2154 57.8531 14.4416 57.8531 5.66771C57.8531 3.49214 56.5363 2.14672 54.3607 2.14672C38.1155 2.14672 21.8559 2.14672 5.61069 2.14672C3.47805 2.14672 2.14695 3.49214 2.14695 5.62477C2.14695 14.4416 2.14695 23.2584 2.14695 32.0895C2.14695 32.3757 2.14695 32.6763 2.2042 32.9482C2.54771 34.5942 3.82157 35.5675 5.66794 35.5675C13.7691 35.5675 21.8702 35.5675 29.9714 35.5675H29.9857Z" fill="#525252"/>
<path d="M10.6916 18.3349C7.32807 15.229 8.15822 11.0925 10.1907 9.07438C12.5094 6.76999 16.2451 6.58392 18.6353 8.71656C20.0809 10.0047 20.7823 11.6507 20.7966 13.583C20.7966 15.5152 19.9951 17.061 18.621 18.2347C19.5657 18.9647 20.5676 19.5801 21.3691 20.3816C23.6735 22.6431 24.5323 25.4341 24.2317 28.6116C24.1315 29.6564 23.2441 30.4723 22.1277 30.4866C17.1325 30.5009 12.1372 30.5009 7.12769 30.4866C5.85383 30.4866 5.00937 29.5419 4.96643 28.2395C4.80898 23.7738 6.62673 20.4389 10.6916 18.3492V18.3349ZM7.09906 28.2967H22.1277C22.3996 25.3339 21.412 22.9437 19.0647 21.1832C16.6172 19.3511 13.2823 19.208 10.6916 20.8397C7.98646 22.5429 6.84143 25.062 7.09906 28.2967ZM10.5485 13.4398C10.5485 15.6584 12.3805 17.4761 14.5991 17.4761C16.8176 17.4761 18.6639 15.644 18.6783 13.4398C18.6783 11.2356 16.8605 9.41789 14.6134 9.41789C12.3662 9.41789 10.5485 11.207 10.5485 13.4255V13.4398Z" fill="#525252"/>
<path d="M48.3496 5.98292C49.7952 5.98292 51.2408 5.98292 52.7008 5.98292C54.0605 5.98292 54.9336 6.8417 54.9479 8.18712C54.9622 10.1766 54.9622 12.1518 54.9479 14.1413C54.9336 15.4581 54.0605 16.3169 52.7437 16.3169C49.8525 16.3169 46.947 16.3169 44.0557 16.3169C42.6817 16.3169 41.8086 15.4152 41.8086 14.0411C41.8086 12.0946 41.8086 10.1623 41.8086 8.21575C41.8086 6.87033 42.6817 5.99724 44.0271 5.98292C45.4727 5.96861 46.9183 5.98292 48.3783 5.98292H48.3496ZM52.7723 8.17281H43.9699V14.127H52.7723V8.17281Z" fill="#525252"/>
<path d="M41.9226 24.2177C38.1154 24.2177 34.2938 24.2177 30.4866 24.2177C30.2862 24.2177 30.0858 24.232 29.8854 24.2034C29.3129 24.0888 28.9551 23.731 28.9551 23.1442C28.9551 22.5574 29.2986 22.1995 29.8854 22.085C30.0572 22.0564 30.2432 22.0707 30.415 22.0707C38.1011 22.0707 45.8015 22.0707 53.4875 22.0707C53.6593 22.0707 53.8454 22.0564 54.0171 22.085C54.561 22.1995 54.8902 22.5287 54.9045 23.1013C54.9045 23.7024 54.5896 24.0602 54.0171 24.189C53.8024 24.232 53.5734 24.2177 53.3444 24.2177C49.5371 24.2177 45.7156 24.2177 41.9083 24.2177H41.9226Z" fill="#525252"/>
<path d="M41.9516 28.354C45.7445 28.354 49.5375 28.354 53.3304 28.354C53.5594 28.354 53.7741 28.354 54.0031 28.3683C54.5327 28.4399 54.8619 28.7548 54.9192 29.2843C54.9907 29.8426 54.7331 30.2433 54.1892 30.4151C53.9459 30.4866 53.6596 30.4866 53.402 30.4866C45.7732 30.4866 38.13 30.4866 30.5012 30.4866C30.3295 30.4866 30.1434 30.4866 29.9716 30.4866C29.3848 30.4151 28.9697 29.9571 28.9697 29.4132C28.9697 28.8406 29.3991 28.3826 30.0432 28.3683C30.9735 28.3397 31.9182 28.3683 32.8485 28.3683C35.8829 28.3683 38.9172 28.3683 41.9516 28.3683V28.354Z" fill="#525252"/>
<path d="M33.7642 9.48957C32.4331 9.48957 31.0877 9.48957 29.7566 9.48957C28.9551 9.48957 28.4971 9.0888 28.4971 8.43041C28.4971 7.77201 28.9551 7.35693 29.7423 7.35693C32.4618 7.35693 35.1812 7.35693 37.9007 7.35693C38.6879 7.35693 39.1459 7.78632 39.1316 8.45903C39.1316 9.10312 38.6736 9.48957 37.915 9.50388C36.5267 9.50388 35.1526 9.50388 33.7642 9.50388V9.48957Z" fill="#525252"/>
<path d="M33.8361 12.8245C35.1673 12.8245 36.5127 12.8245 37.8438 12.8245C38.6596 12.8245 39.1176 13.1966 39.1319 13.855C39.1463 14.542 38.6882 14.9571 37.8438 14.9571C35.1529 14.9571 32.4478 14.9571 29.7569 14.9571C28.9697 14.9571 28.5117 14.542 28.5117 13.8836C28.5117 13.2109 28.9697 12.8245 29.7713 12.8245C31.131 12.8245 32.4907 12.8245 33.8505 12.8245H33.8361Z" fill="#525252"/>
</g>
<defs>
<clipPath id="clip0_36968_3393">
<rect width="60" height="37.729" fill="white"/>
</clipPath>
</defs>
</svg>
