<svg width="21" height="20" viewBox="0 0 21 20" fill="none" xmlns="http://www.w3.org/2000/svg">
<path d="M17.457 10.8966L14.2116 14.8632L14.2116 14.8632C12.7713 16.6236 12.0511 17.5038 11.1854 17.8238C10.4261 18.1044 9.59149 18.1044 8.83219 17.8238C7.96647 17.5038 7.24631 16.6236 5.80597 14.8632L2.56055 10.8966C1.80823 9.97709 1.43207 9.51734 1.23756 9.02514C0.920849 8.22372 0.920849 7.33183 1.23756 6.53041C1.43207 6.03821 1.80823 5.57847 2.56054 4.65897L3.46333 3.55556C3.71975 3.24216 3.84796 3.08546 3.96167 2.97071C5.28954 1.63073 7.45531 1.63073 8.78318 2.97071C8.89689 3.08546 9.0251 3.24216 9.28152 3.55556C9.34562 3.63391 9.37767 3.67308 9.4061 3.70177C9.73807 4.03676 10.2795 4.03676 10.6115 3.70177C10.6399 3.67308 10.672 3.63391 10.7361 3.55556L10.7361 3.55551C10.9925 3.24214 11.1207 3.08545 11.2344 2.97071C12.5623 1.63073 14.728 1.63073 16.0559 2.97071C16.1696 3.08546 16.2978 3.24216 16.5542 3.55555L17.457 4.65897C18.2094 5.57846 18.5855 6.03821 18.78 6.53041C19.0967 7.33183 19.0967 8.22372 18.78 9.02514C18.5855 9.51734 18.2094 9.97709 17.457 10.8966Z" fill="#ED5E5E" stroke="#ED5E5E" stroke-width="2" stroke-linejoin="round"/>
</svg>
