<svg width="50" height="50" viewBox="0 0 50 50" fill="none" xmlns="http://www.w3.org/2000/svg">
<g clip-path="url(#clip0_36614_1474)">
<path d="M0 47.5566C0.159157 46.5977 0.311791 45.6363 0.480079 44.6787C0.867535 42.4831 2.07817 40.9268 4.1733 40.1454C5.72182 39.5674 7.30295 39.0743 8.88277 38.5812C9.24805 38.4677 9.45026 38.3177 9.55854 37.9446C9.98904 36.4678 10.0008 36.4717 8.84103 35.4489C8.7184 35.342 8.6062 35.2206 8.47444 35.128C7.10465 34.16 6.48629 32.8476 6.6611 31.1752C6.69502 30.8464 6.57369 30.699 6.26321 30.5777C4.96778 30.0702 4.17721 28.8831 4.1733 27.5107C4.16938 26.1161 4.96908 24.9211 6.28408 24.4084C6.57369 24.2962 6.66632 24.1592 6.66501 23.8487C6.66241 22.385 6.59587 20.9135 6.72633 19.4602C6.9742 16.6867 8.5188 14.7585 10.9349 13.4722C11.1605 13.3522 11.3849 13.21 11.5702 13.0352C13.4866 11.2297 16.4584 11.2141 18.393 12.9974C18.6044 13.1918 18.8522 13.3535 19.1053 13.4918C21.8149 14.9725 23.3021 17.2046 23.3321 20.3356C23.3439 21.5227 23.3426 22.7112 23.3282 23.8983C23.3256 24.1658 23.4052 24.2871 23.6609 24.3862C25.0137 24.9146 25.8382 26.1135 25.8369 27.5002C25.8343 28.8831 25.0124 30.0793 23.6543 30.6116C23.3843 30.7173 23.3139 30.8503 23.3308 31.1086C23.3491 31.3839 23.3347 31.6618 23.3347 31.9383C23.3321 33.0081 22.9303 33.8978 22.1228 34.601C21.5344 35.1137 20.9343 35.6159 20.3655 36.1495C20.2416 36.2656 20.1712 36.503 20.1764 36.6817C20.2129 37.8937 20.6956 38.5825 22.0328 38.8473C23.4482 39.1265 24.8011 39.7579 26.1539 40.3045C27.9437 41.0299 29.0422 42.3866 29.4075 44.2769C29.6566 45.5658 29.8497 46.8704 29.9723 48.1776C30.0741 49.2734 29.3305 49.9935 28.2229 49.9935C19.4041 49.9961 10.5865 49.9935 1.76768 49.9974C0.861012 49.9974 0.335273 49.503 0 48.7255C0 48.3354 0 47.944 0 47.554L0 47.5566ZM8.32442 24.1866C8.32442 24.3823 8.32442 24.5271 8.32442 24.6706C8.31659 25.559 8.16526 25.7038 7.27425 25.8695C6.96898 25.9256 6.64675 26.0678 6.40802 26.2635C5.86271 26.707 5.7166 27.3215 5.91489 27.9829C6.12753 28.6926 6.64936 29.0631 7.37861 29.1635C8.14439 29.2692 8.3192 29.4727 8.32442 30.2385C8.32833 30.759 8.33616 31.2795 8.32311 31.8001C8.30616 32.4628 8.54098 32.9898 9.05106 33.4242C10.1038 34.3205 11.1423 35.2337 12.1755 36.1495C12.5603 36.49 12.9908 36.6661 13.5048 36.6622C14.4963 36.657 15.4891 36.657 16.4806 36.6622C16.9932 36.6648 17.4264 36.4991 17.8125 36.1573C18.8718 35.2193 19.9416 34.2931 21.0113 33.3668C21.4575 32.9807 21.6779 32.5006 21.6727 31.9096C21.6675 31.2756 21.6636 30.6403 21.6766 30.0063C21.6871 29.5366 21.9362 29.2536 22.4098 29.1805C22.5703 29.1557 22.7333 29.1401 22.8912 29.1035C23.6178 28.9326 24.124 28.3077 24.1488 27.5602C24.1736 26.8101 23.7144 26.1356 23.0177 25.9139C22.8951 25.8747 22.7633 25.863 22.6342 25.8447C21.8684 25.7391 21.6753 25.516 21.6714 24.7241C21.6714 24.5519 21.6714 24.3797 21.6714 24.184H8.32442V24.1866ZM10.2239 48.3171C10.1338 48.1084 10.0738 47.961 10.006 47.8162C9.3185 46.3616 8.63882 44.9044 7.93566 43.4576C7.61865 42.8067 7.603 42.1857 7.9461 41.5465C8.13134 41.2007 8.28267 40.8368 8.44966 40.4819C8.41704 40.4467 8.38573 40.4115 8.35312 40.375C7.33295 40.7415 6.32191 41.1355 5.29131 41.4695C3.31229 42.1126 2.25429 43.4824 1.99468 45.5162C1.87727 46.4412 1.75594 47.3648 1.63462 48.2976H5.84314C5.84314 48.0354 5.83792 47.8097 5.84314 47.5853C5.85879 47.023 6.15884 46.6851 6.64545 46.6747C7.1464 46.6643 7.48167 47.0178 7.50385 47.5931C7.51298 47.8292 7.50515 48.0667 7.50515 48.3184H10.2226L10.2239 48.3171ZM22.4985 48.3145C22.4985 48.0054 22.4802 47.7444 22.5024 47.4874C22.5481 46.9761 22.8925 46.6603 23.3582 46.6747C23.8057 46.689 24.1175 46.9995 24.1514 47.4953C24.1696 47.764 24.1553 48.0367 24.1553 48.2976H28.3273C28.2255 46.7973 28.0625 45.3519 27.5785 43.9547C27.2993 43.1485 26.8153 42.5144 26.0521 42.1374C25.2824 41.7578 24.4984 41.4003 23.7 41.0872C23.019 40.8198 22.3067 40.628 21.4927 40.3658C21.7158 40.8355 21.8606 41.1799 22.0393 41.5047C22.4059 42.174 22.385 42.8158 22.0471 43.5007C21.3361 44.9409 20.6669 46.402 19.9807 47.8553C19.9142 47.9949 19.8581 48.1397 19.7837 48.3145H22.4972H22.4985ZM14.992 13.3405C13.1526 13.3457 11.6706 14.8264 11.6693 16.6619C11.6667 18.4896 13.1578 19.9938 14.9829 20.0055C16.8158 20.0172 18.3526 18.4792 18.3382 16.6476C18.3239 14.8173 16.825 13.3366 14.992 13.3405ZM21.6427 20.8248C20.4816 20.8248 19.3467 20.813 18.213 20.8339C17.9521 20.8391 17.6677 20.9135 17.4355 21.0348C16.0435 21.7614 14.5876 21.948 13.1657 21.2761C12.3268 20.8796 11.5076 20.8013 10.6309 20.8209C9.99687 20.8339 9.36155 20.8209 8.72753 20.8261C8.6036 20.8261 8.48097 20.8535 8.35703 20.8691V22.4542H21.6414V20.8248H21.6427ZM16.5093 41.6521C16.4792 39.9105 18.0525 39.737 19.0453 39.0143C18.8992 38.5499 18.7648 38.1207 18.6148 37.6419C17.502 38.5251 16.2196 38.3229 14.9803 38.3281C13.7436 38.3333 12.4703 38.5055 11.3758 37.6497C11.2245 38.1481 11.094 38.5786 10.957 39.0313C12.0124 39.7201 13.5035 39.9745 13.4787 41.6508H16.5093V41.6521ZM16.8524 48.3341C17.1602 48.3341 17.3937 48.3693 17.609 48.3224C17.7668 48.2884 17.9743 48.1815 18.0382 48.0484C18.8836 46.2925 19.7106 44.5287 20.5325 42.761C20.5886 42.641 20.6238 42.4623 20.5756 42.3527C20.3186 41.763 20.0303 41.1864 19.7367 40.5693C19.318 40.795 18.9292 40.9646 18.5887 41.202C18.4022 41.3312 18.2182 41.5569 18.166 41.7721C17.9508 42.6723 17.7825 43.5829 17.6038 44.4909C17.3559 45.7472 17.112 47.0061 16.8537 48.3341H16.8524ZM13.0965 48.2963C13.103 48.248 13.1096 48.231 13.1056 48.2167C12.6686 46.0068 12.2329 43.7955 11.7854 41.5869C11.7632 41.476 11.6667 41.3495 11.5689 41.2921C11.154 41.0468 10.7261 40.825 10.2643 40.5733C10.0008 41.1225 9.72943 41.6208 9.52723 42.1453C9.44634 42.3527 9.44374 42.654 9.53375 42.8536C10.2487 44.4335 10.9949 46.0002 11.7306 47.5709C11.9898 48.1241 12.4451 48.3663 13.0965 48.2976V48.2963ZM13.8453 43.3663C14.1715 44.9696 14.4872 46.539 14.8146 48.1045C14.8316 48.188 14.9399 48.2532 15.0051 48.3276C15.0729 48.2323 15.1812 48.1449 15.2034 48.0393C15.4082 47.0556 15.6013 46.0707 15.7943 45.0844C15.9052 44.5196 16.0083 43.9547 16.1205 43.3663H13.8466H13.8453ZM9.87554 16.3201C9.16456 17.0898 8.64925 18.0056 8.45487 19.1236H10.5004C10.293 18.1922 10.0882 17.2737 9.87554 16.3201ZM19.4941 19.1354H21.554C21.3309 18.0278 20.8652 17.0937 20.1242 16.3449C19.9142 17.2751 19.708 18.1896 19.4941 19.1354Z" fill="white"/>
<path d="M36.2282 0C37.4349 0.902758 38.6416 1.80291 39.8471 2.70827C40.1445 2.93135 40.4341 3.16748 40.8255 3.47405C40.8255 3.10617 40.819 2.82568 40.8255 2.54651C40.8516 1.56417 41.4947 0.874058 42.4705 0.849271C43.5925 0.82057 44.717 0.82057 45.8389 0.847966C46.8447 0.872753 47.4774 1.54852 47.484 2.58434C47.497 4.489 47.4957 6.39236 47.4814 8.29702C47.4788 8.62316 47.5714 8.84233 47.8375 9.0328C48.2602 9.33546 48.6516 9.68247 49.069 9.99165C49.7174 10.4717 50.1283 11.0692 49.9587 11.9067C49.7878 12.7495 49.2282 13.2165 48.3306 13.3418V13.9262C48.3306 19.1666 48.3306 24.4071 48.3306 29.6475C48.3306 30.5829 48.0749 30.8412 47.1461 30.8412C40.7994 30.8412 34.4514 30.8412 28.1047 30.8412C27.9586 30.8412 27.8098 30.8477 27.6663 30.8229C27.1993 30.7446 26.911 30.3846 26.9423 29.9332C26.9723 29.5027 27.2789 29.1922 27.7498 29.1844C28.8561 29.1674 29.9637 29.1766 31.07 29.174C31.2448 29.174 31.4196 29.174 31.6531 29.174V28.5504C31.6531 26.0769 31.6518 23.6022 31.6531 21.1287C31.6544 19.348 32.6563 18.3448 34.4292 18.3409C35.4063 18.3396 36.3821 18.3356 37.3593 18.3409C38.9717 18.3513 39.9906 19.378 39.9971 21.0191C40.0075 23.5252 39.9997 26.0313 39.9997 28.5386C39.9997 28.7304 39.9997 28.9209 39.9997 29.1413H46.6399V13.3731H24.9933C24.9933 13.7618 24.9972 14.161 24.9933 14.5602C24.9855 15.1851 24.6789 15.5439 24.1584 15.5426C23.6365 15.5413 23.3391 15.1877 23.3313 14.555C23.3274 14.1976 23.3287 13.8388 23.3261 13.4814C23.3261 13.45 23.3117 13.4187 23.2974 13.3626C23.2543 13.3444 23.1982 13.3105 23.1395 13.3C22.3829 13.1748 21.9054 12.7286 21.7214 11.9994C21.5375 11.2662 21.7723 10.6478 22.362 10.1782C24.2732 8.661 26.1896 7.15031 28.1047 5.63702C30.2233 3.96196 32.3393 2.28429 34.4657 0.618363C34.771 0.382237 35.1193 0.204816 35.4468 0C35.7077 0 35.9673 0 36.2282 0ZM48.3645 11.6145C48.191 11.4528 48.0971 11.351 47.9901 11.2662C44.0621 8.16135 40.1288 5.06301 36.2099 1.94641C35.9086 1.70767 35.7416 1.75333 35.4742 1.96598C32.0066 4.70947 28.53 7.44123 25.0559 10.1769C24.4884 10.6244 23.9249 11.0757 23.2465 11.6145H48.3645ZM38.2751 29.1466C38.3011 29.0592 38.3259 29.0148 38.3259 28.9691C38.3285 26.2713 38.3377 23.5748 38.3233 20.8769C38.3207 20.286 37.9933 20.0133 37.3775 20.0094C36.403 20.0016 35.4272 20.0055 34.4527 20.0081C33.5825 20.0094 33.3242 20.2677 33.3229 21.1457C33.3216 23.6478 33.3229 26.15 33.3229 28.6534C33.3229 28.81 33.3399 28.9678 33.3503 29.1479H38.2751V29.1466ZM42.4901 2.53216C42.4901 2.75915 42.5175 2.94049 42.4862 3.11008C42.2501 4.36116 42.7275 5.22347 43.8155 5.86793C44.5017 6.27495 45.0914 6.84504 45.7906 7.39557V2.53216H42.4901Z" fill="white"/>
<path d="M15.8202 16.7323C15.785 17.1941 15.3871 17.5255 14.9174 17.4837C14.4804 17.4459 14.1425 17.0571 14.1673 16.6201C14.1934 16.1687 14.6082 15.7995 15.0531 15.8335C15.5084 15.8674 15.8554 16.2744 15.8202 16.7323Z" fill="white"/>
</g>
<defs>
<clipPath id="clip0_36614_1474">
<rect width="50" height="50" fill="white"/>
</clipPath>
</defs>
</svg>
