<svg width="46" height="40" viewBox="0 0 46 40" fill="none" xmlns="http://www.w3.org/2000/svg">
<g clip-path="url(#clip0_36614_1710)">
<path d="M-0.00075706 35.9418C0.228887 35.6535 0.518335 35.5471 0.891507 35.5602C1.59001 35.5853 2.28971 35.5674 3.03486 35.5674C3.04442 35.3784 3.05878 35.2205 3.05878 35.0639C3.06117 33.9886 3.04921 32.9145 3.06237 31.8393C3.08748 29.8562 3.97018 28.3707 5.73318 27.4641C6.99144 26.817 8.27003 26.2034 9.57494 25.6604C10.1682 25.4128 10.1682 24.8997 10.3655 24.4631C10.3883 24.4117 10.2663 24.267 10.1837 24.2012C8.70899 23.0434 7.77247 21.5435 7.30242 19.7351C7.25816 19.5628 7.10626 19.3751 6.95197 19.283C5.78581 18.5845 5.41622 17.0954 6.11233 15.9232C6.24749 15.6972 6.31447 15.4089 6.33839 15.1422C6.40776 14.3719 6.36111 13.5837 6.49986 12.8278C6.80724 11.139 7.73061 9.7898 9.1013 8.78511C11.6393 6.92642 14.474 6.21716 17.5946 6.74103C17.7118 6.76017 17.8266 6.79486 17.9402 6.82954C19.1159 7.19793 20.0273 7.80673 20.0632 9.19775C20.3001 9.2444 20.5213 9.2731 20.733 9.33291C21.7509 9.61996 22.4625 10.511 22.4805 11.5684C22.5008 12.762 22.4781 13.9569 22.4984 15.1506C22.502 15.3694 22.5798 15.6182 22.7018 15.7988C23.5115 16.9973 23.1646 18.5486 21.9183 19.2937C21.7748 19.3787 21.642 19.5617 21.6002 19.7231C21.1349 21.5328 20.1936 23.029 18.7296 24.1988C18.6292 24.2789 18.5682 24.4966 18.5945 24.6294C18.7033 25.182 18.9975 25.5312 19.5705 25.7644C20.7833 26.2584 21.9506 26.8612 23.1287 27.4365C23.8631 27.7954 24.4839 28.3037 24.9599 28.9771C25.229 29.3574 25.2111 29.6983 24.9205 29.9327C24.625 30.1707 24.2303 30.1038 23.9564 29.727C23.1969 28.6781 22.0092 28.3073 20.8694 27.6925C20.8694 28.2941 20.855 28.8108 20.8813 29.3239C20.8861 29.4268 21.0213 29.5691 21.1289 29.6146C21.9662 29.965 22.441 30.5894 22.5211 31.4828C22.5678 32.0019 22.5558 32.527 22.5379 33.0485C22.5247 33.4252 22.3035 33.6609 21.9171 33.6848C21.5691 33.7063 21.3095 33.4193 21.2976 33.0114C21.2856 32.594 21.3059 32.1754 21.2892 31.7579C21.2629 31.0929 20.8837 30.7245 20.2498 30.7245C19.6063 30.7245 19.2499 31.075 19.2224 31.7579C19.2069 32.1598 19.226 32.5641 19.2128 32.9671C19.1973 33.4133 18.9425 33.692 18.5813 33.6896C18.2189 33.6872 17.9797 33.4085 17.9653 32.9576C17.9558 32.6299 17.9725 32.3009 17.9606 31.972C17.9187 30.7724 18.4115 29.9303 19.6159 29.5309C19.6159 28.8036 19.6255 28.074 19.6051 27.3444C19.6016 27.2344 19.4784 27.1016 19.3755 27.0287C19.2451 26.9354 19.0717 26.9055 18.9306 26.8254C18.671 26.677 18.4916 26.7213 18.2763 26.9474C17.2262 28.0501 16.1569 29.1338 15.0912 30.221C14.5888 30.7341 14.3185 30.7365 13.8234 30.2317C12.7577 29.1445 11.6884 28.0609 10.6347 26.9617C10.4301 26.7488 10.2687 26.6854 9.98399 26.8146C9.29506 27.1292 9.28788 27.1148 9.28788 27.8719C9.28788 28.4687 9.29865 29.0668 9.2831 29.6636C9.27712 29.9148 9.35367 30.0559 9.58212 30.1899C10.3452 30.6396 10.6634 31.4984 10.4062 32.3093C10.1514 33.1143 9.40749 33.6405 8.57383 33.607C7.7318 33.5724 7.02493 32.9636 6.84432 32.1156C6.68525 31.3716 7.03091 30.5834 7.74018 30.1791C7.97221 30.0476 8.04637 29.9064 8.03919 29.6552C8.02245 29.0584 8.03082 28.4616 8.02604 27.8647C8.02604 27.8408 7.99972 27.8157 7.96145 27.7499C6.51301 28.458 4.92105 28.9831 4.451 30.8166C4.40315 31.0032 4.34933 31.197 4.34813 31.3871C4.33976 32.7578 4.34335 34.1273 4.34335 35.5662H4.91387C10.3763 35.5662 15.8387 35.5662 21.3012 35.5662C21.9769 35.5662 22.2927 35.7707 22.2831 36.2001C22.2736 36.6295 21.965 36.8209 21.2796 36.8209C14.8173 36.8209 8.35495 36.8209 1.89261 36.8209C1.70005 36.8209 1.50748 36.8209 1.28382 36.8209V38.7406C1.48954 38.7406 1.67971 38.7406 1.86989 38.7406C8.27242 38.7406 14.675 38.7406 21.0775 38.743C21.2701 38.743 21.5105 38.7047 21.6432 38.8016C21.8358 38.9427 22.0415 39.1771 22.0738 39.3972C22.1169 39.6926 21.898 39.9259 21.5715 39.9785C21.4399 40 21.3036 39.9952 21.1696 39.9952C14.4238 39.9952 7.67798 39.994 0.932174 40.0012C0.553021 40.0012 0.226495 39.9462 -0.00195312 39.6149V35.943L-0.00075706 35.9418ZM14.5601 24.395C14.6522 24.3902 14.8771 24.3914 15.0996 24.3651C15.3208 24.3387 15.5433 24.3005 15.7574 24.2407C18.3349 23.535 19.7893 21.7684 20.4089 19.2471C20.5333 18.7388 20.6469 18.3453 21.2485 18.1922C21.8119 18.0486 22.0391 17.2975 21.7844 16.7318C21.5236 16.1517 20.9962 15.9794 20.4137 16.2844C19.8695 16.5691 19.5035 16.4064 19.3492 15.8024C19.1805 15.1386 19.025 14.47 18.8576 13.805C18.6196 12.8613 18.2775 12.5958 17.3219 12.7548C15.3017 13.0909 13.2732 13.2847 11.2243 13.2931C10.3141 13.2967 9.63115 13.9868 9.54862 14.8994C9.5247 15.1661 9.54265 15.4364 9.52949 15.7043C9.49839 16.3574 9.07857 16.5906 8.4913 16.2844C7.92078 15.9878 7.40767 16.1409 7.13975 16.6899C6.85748 17.2676 7.07636 18.0331 7.65526 18.191C8.22099 18.3453 8.42552 18.6813 8.48293 19.2016C8.50327 19.3775 8.55709 19.5521 8.60613 19.7231C9.40869 22.498 11.7637 24.3854 14.5589 24.3938L14.5601 24.395ZM21.2198 14.8803C21.2198 13.7141 21.2426 12.585 21.2091 11.4571C21.1947 10.9811 20.7438 10.5768 20.2678 10.5122C20.0477 10.4823 19.8216 10.4979 19.598 10.4931C19.0047 10.4799 18.8014 10.2742 18.7942 9.67618C18.793 9.52667 18.7846 9.37716 18.7942 9.22885C18.8229 8.80544 18.6268 8.50403 18.2679 8.32104C18.0048 8.18708 17.7249 8.07106 17.4403 7.99929C16.2753 7.70506 15.1008 7.76965 13.9382 8.00527C12.0149 8.39639 10.2651 9.14273 8.93624 10.6546C7.87653 11.8602 7.48422 13.2811 7.62894 14.8659H8.25329C8.27721 14.7547 8.30472 14.6566 8.32027 14.5561C8.54154 13.1675 9.65508 12.0803 11.0616 12.0528C13.1524 12.0121 15.2204 11.8112 17.2872 11.499C18.7631 11.2765 19.702 11.9846 20.0596 13.4498C20.1757 13.9258 20.2977 14.3994 20.4185 14.8803H21.2186H21.2198ZM11.4348 24.9774C11.4121 25.341 11.2578 25.7716 11.3965 25.9128C12.4216 26.9485 13.5052 27.9269 14.48 28.8383C15.3184 28.0477 16.2777 27.1555 17.2202 26.2465C17.7512 25.7333 17.7393 25.7202 17.3386 25.0336C15.4153 25.8649 13.4801 25.8625 11.4336 24.9774H11.4348ZM9.23167 31.7579C9.22688 31.435 8.98767 31.1934 8.66593 31.1874C8.33223 31.1814 8.04637 31.4493 8.0679 31.7747C8.09182 32.1191 8.29515 32.3237 8.63962 32.35C8.96614 32.3751 9.23645 32.0916 9.23167 31.7579Z" fill="white"/>
<path d="M28.2832 17.4948C28.2832 16.9937 28.264 16.5177 28.2867 16.044C28.4087 13.4785 30.5509 11.3566 33.1189 11.3255C34.3807 11.31 35.6748 11.2693 36.8996 11.5133C39.08 11.9475 40.617 13.9928 40.6612 16.2139C40.6696 16.6301 40.6612 17.0475 40.6612 17.4554C42.4984 18.0115 43.2041 18.7483 43.1502 20.0317C43.0976 21.2995 42.2831 22.0937 40.7019 22.3963C40.6624 22.7515 40.6421 23.1199 40.5799 23.4812C40.3527 24.7908 39.6984 25.8506 38.6279 26.6292C38.3397 26.8385 38.232 27.0478 38.2392 27.3959C38.2607 28.3659 38.256 28.3444 39.1554 28.751C40.4854 29.3514 41.8166 29.9543 43.118 30.6133C44.9539 31.5414 45.8593 33.0652 45.8498 35.1296C45.8438 36.4728 45.8498 37.816 45.8474 39.1592C45.8474 39.7895 45.6488 39.9928 45.0221 39.9928C37.9785 39.9952 30.9348 39.9952 23.8912 39.9928C23.2752 39.9928 23.0887 39.8027 23.0863 39.1903C23.0827 37.7717 23.0755 36.3544 23.0887 34.9359C23.1054 33.0353 23.9522 31.5917 25.6279 30.7209C27.1457 29.9315 28.7197 29.2474 30.2782 28.5381C30.5545 28.4125 30.6705 28.2869 30.6956 27.9616C30.7494 27.2739 30.5629 26.8086 29.9828 26.3493C28.8812 25.4786 28.331 24.255 28.282 22.8389C28.27 22.5004 28.2006 22.3557 27.8215 22.3138C26.6852 22.1882 25.8049 21.156 25.7858 20.003C25.7666 18.8069 26.6039 17.7699 27.7473 17.575C27.9064 17.5475 28.0655 17.5271 28.2808 17.4936L28.2832 17.4948ZM44.5963 38.7202C44.5963 37.4859 44.5915 36.2946 44.5975 35.1033C44.6059 33.5484 43.9265 32.4062 42.5343 31.722C41.2653 31.0977 39.9771 30.5128 38.6961 29.9136C38.4856 29.8155 38.2679 29.7342 38.0431 29.6397C37.6005 30.4949 36.9307 30.7963 36.0325 30.7628C34.8854 30.7209 33.736 30.746 32.5866 30.7544C31.9312 30.7592 31.4456 30.4721 31.0748 29.9519C31.0078 29.8574 30.9432 29.7617 30.8164 29.5775C29.1814 30.3824 27.5261 31.13 25.9389 32.0019C24.8756 32.5868 24.3672 33.6106 24.3493 34.8342C24.3302 36.0422 24.3433 37.2514 24.3445 38.4595C24.3445 38.5432 24.3708 38.6269 24.384 38.7142H28.0212C28.0212 38.5312 28.0212 38.371 28.0212 38.2107C28.0212 36.9728 28.0176 35.7336 28.0236 34.4957C28.026 34.0747 28.2652 33.8104 28.6193 33.796C28.9853 33.7817 29.2627 34.0615 29.2711 34.4933C29.2843 35.15 29.2747 35.8066 29.2759 36.4632C29.2759 37.2048 29.2759 37.9476 29.2759 38.7106H39.6685V38.2454C39.6685 37.0374 39.6673 35.8281 39.6685 34.6201C39.6685 34.0962 39.8886 33.8056 40.2785 33.7972C40.6816 33.7888 40.9196 34.0962 40.9208 34.6392C40.9232 35.504 40.9208 36.3699 40.9208 37.2347C40.9208 37.7227 40.9208 38.2107 40.9208 38.7178H44.5963V38.7202ZM29.5199 19.4576C29.5199 19.4576 29.5259 19.4576 29.5295 19.4576C29.5295 20.5771 29.4936 21.6966 29.5378 22.8137C29.6144 24.755 31.1788 26.2967 33.1177 26.3637C34.0267 26.396 34.9381 26.396 35.8471 26.3613C37.7847 26.2895 39.3779 24.6748 39.4018 22.736C39.4293 20.5735 39.4257 18.4086 39.4018 16.2462C39.3826 14.4592 38.0933 12.9175 36.3195 12.6544C35.3986 12.518 34.4465 12.5694 33.5088 12.5671C31.125 12.5599 29.5354 14.1518 29.5211 16.5476C29.5151 17.5176 29.5211 18.4876 29.5211 19.4564L29.5199 19.4576ZM31.9647 27.5645C31.9647 27.976 31.93 28.4353 31.9754 28.8874C32.0149 29.2845 32.2493 29.5117 32.7002 29.5057C33.876 29.4878 35.0541 29.4866 36.2298 29.5057C36.658 29.5129 36.9068 29.3036 36.951 28.934C37.0073 28.4604 36.9642 27.9748 36.9642 27.5633H31.9658L31.9647 27.5645ZM28.2341 21.0591V18.8285C27.5249 18.8249 27.044 19.2854 27.0416 19.9408C27.0393 20.5974 27.5261 21.0699 28.2341 21.0591ZM40.7007 18.8344V21.0687C41.4124 21.0579 41.9051 20.5759 41.898 19.9336C41.8896 19.2854 41.3777 18.8105 40.7007 18.8344Z" fill="white"/>
<path d="M30.2309 8.24809C30.2309 8.96693 30.2273 9.60802 30.2321 10.2479C30.2345 10.5792 30.1854 10.8878 29.8422 11.0313C29.5013 11.1749 29.2477 11.005 29.0109 10.7646C28.2885 10.0302 27.5469 9.31618 26.8352 8.57223C26.596 8.32225 26.3508 8.22656 26.0124 8.24092C25.461 8.26364 24.9084 8.25766 24.357 8.24451C23.2447 8.21819 22.5426 7.52208 22.5318 6.41094C22.5186 4.87399 22.5175 3.33705 22.5318 1.80011C22.5426 0.70212 23.2375 0.00601056 24.3307 0.0048145C29.0898 -0.00355796 33.849 -0.00355796 38.6081 0.0048145C39.6929 0.00720663 40.3867 0.724846 40.3926 1.81566C40.3998 3.2928 40.3962 4.76994 40.3938 6.24708C40.3926 7.56873 39.7109 8.24451 38.3737 8.2457C35.8524 8.24809 33.3311 8.2457 30.8098 8.2457C30.6339 8.2457 30.4581 8.2457 30.2285 8.2457L30.2309 8.24809ZM28.7741 8.96573C28.8422 8.91669 28.9092 8.86765 28.9774 8.81981C28.9774 8.54113 28.9774 8.26364 28.9774 7.98496C28.9786 7.11662 29.103 6.98983 29.9546 6.98864C32.7749 6.98864 35.5964 6.98864 38.4167 6.98864C38.998 6.98864 39.1404 6.84989 39.1404 6.28655C39.1428 4.82376 39.1439 3.36097 39.1404 1.89819C39.1392 1.39584 39.0064 1.25949 38.4993 1.25949C33.8131 1.2559 29.1269 1.2559 24.4407 1.25949C23.9204 1.25949 23.7889 1.38268 23.7865 1.88622C23.7793 3.37891 23.7793 4.8716 23.7865 6.36429C23.7889 6.82597 23.9491 6.97309 24.412 6.98864C24.546 6.99342 24.6811 6.98744 24.8151 6.98983C25.5447 7.00658 26.3496 6.83793 26.9812 7.09509C27.5971 7.34626 28.0409 8.02682 28.5444 8.53395C28.6545 8.64519 28.6987 8.82101 28.7741 8.96693V8.96573Z" fill="white"/>
<path d="M14.3082 22.5985C13.5858 22.5793 12.9064 22.1619 12.3778 21.4861C12.1685 21.2194 12.1996 20.9132 12.4495 20.6788C12.6971 20.4455 12.9902 20.4444 13.2629 20.6453C13.3932 20.741 13.4937 20.8773 13.6157 20.985C14.1647 21.467 14.7532 21.4634 15.2974 20.9754C15.4074 20.8761 15.4971 20.7517 15.6143 20.662C15.899 20.4444 16.204 20.436 16.4647 20.6872C16.7111 20.9252 16.7171 21.2146 16.5269 21.4993C16.125 22.1057 15.2089 22.5937 14.3082 22.5973V22.5985Z" fill="white"/>
<path d="M13.1681 17.7963C13.1705 18.1563 13.0078 18.4099 12.6478 18.4673C12.2615 18.5295 12.0091 18.3225 11.935 17.953C11.8835 17.6934 11.8225 17.4757 11.514 17.4781C11.2054 17.4805 11.1468 17.7066 11.0977 17.9613C11.0308 18.3178 10.7927 18.4996 10.4255 18.4744C10.0895 18.4505 9.85741 18.1575 9.86339 17.7879C9.87655 16.9231 10.6432 16.2067 11.5451 16.2175C12.4254 16.2282 13.1669 16.9507 13.1681 17.7975V17.7963Z" fill="white"/>
<path d="M17.3731 16.2163C18.2283 16.2115 18.9161 16.8119 19.0273 17.6635C19.0835 18.0917 18.8802 18.4146 18.5166 18.4721C18.1625 18.5283 17.9377 18.319 17.7882 17.9123C17.7248 17.7401 17.5227 17.6193 17.3827 17.4757C17.25 17.624 17.0598 17.7508 16.9952 17.9255C16.8469 18.3237 16.6005 18.545 16.2488 18.4685C15.8637 18.3847 15.7298 18.1168 15.7465 17.7389C15.7836 16.904 16.5084 16.2211 17.3731 16.2163Z" fill="white"/>
<path d="M27.5195 3.50445C27.6834 3.50445 27.8484 3.49249 28.0111 3.50685C28.3352 3.53555 28.535 3.71735 28.5708 4.04149C28.6091 4.38595 28.4512 4.65866 28.1139 4.70291C27.7204 4.75554 27.3102 4.74956 26.9167 4.70291C26.5961 4.66464 26.4335 4.39672 26.4562 4.08215C26.4801 3.75084 26.6763 3.53196 27.0279 3.50565C27.1906 3.49369 27.3556 3.50326 27.5195 3.50326V3.50445Z" fill="white"/>
<path d="M31.4841 3.50686C31.648 3.50686 31.813 3.49131 31.9745 3.50926C32.2974 3.54514 32.4888 3.73531 32.5163 4.06064C32.545 4.4075 32.3752 4.66585 32.0403 4.7101C31.6611 4.75914 31.2664 4.75675 30.8873 4.7101C30.5476 4.66824 30.3777 4.40272 30.4064 4.06303C30.4328 3.74847 30.6193 3.54155 30.9483 3.50926C31.1253 3.49251 31.3047 3.50567 31.4841 3.50567V3.50686Z" fill="white"/>
<path d="M35.4096 3.50327C35.5735 3.50327 35.7386 3.49131 35.9012 3.50566C36.2254 3.53317 36.4251 3.71378 36.461 4.03911C36.4993 4.38238 36.345 4.65627 36.0065 4.70173C35.6142 4.75435 35.2039 4.74957 34.8104 4.70173C34.4899 4.66345 34.332 4.40151 34.3523 4.08216C34.3739 3.74368 34.5688 3.53317 34.9193 3.50446C35.0819 3.49131 35.247 3.50207 35.4108 3.50207L35.4096 3.50327Z" fill="white"/>
</g>
<defs>
<clipPath id="clip0_36614_1710">
<rect width="45.8512" height="40" fill="white"/>
</clipPath>
</defs>
</svg>
