<svg width="58" height="42" viewBox="0 0 58 42" fill="none" xmlns="http://www.w3.org/2000/svg">
<g clip-path="url(#clip0_36827_1880)">
<path d="M32.8914 30.1087L37.6506 25.3496C39.0457 23.9743 40.155 22.3366 40.9144 20.5307C41.6738 18.7249 42.0684 16.7866 42.0755 14.8275C42.0825 12.8685 41.7018 10.9274 40.9554 9.11617C40.2089 7.3049 39.1115 5.65923 37.7262 4.27398C36.3409 2.88872 34.6953 1.79125 32.884 1.04481C31.0727 0.298359 29.1317 -0.0823142 27.1726 -0.0752828C25.2136 -0.0682513 23.2753 0.326346 21.4694 1.08578C19.6636 1.8452 18.0258 2.95445 16.6506 4.34962L11.8914 9.10875L32.8914 30.1087ZM30.1089 32.8912L9.10893 11.8912L4.3498 16.6504C2.95464 18.0257 1.84539 19.6634 1.08596 21.4693C0.326529 23.2751 -0.0680682 25.2134 -0.0750997 27.1724C-0.0821311 29.1315 0.298542 31.0726 1.04499 32.8838C1.79144 34.6951 2.8889 36.3408 4.27416 37.726C5.65942 39.1113 7.30509 40.2087 9.11635 40.9552C10.9276 41.7016 12.8687 42.0823 14.8277 42.0753C16.7868 42.0682 18.725 41.6736 20.5309 40.9142C22.3368 40.1548 23.9745 39.0455 25.3498 37.6504L30.1089 32.8912Z" fill="white"/>
</g>
<defs>
<clipPath id="clip0_36827_1880">
<rect width="42" height="42" fill="white"/>
</clipPath>
</defs>
</svg>
