<svg width="40" height="40" viewBox="0 0 40 40" fill="none" xmlns="http://www.w3.org/2000/svg">
<path d="M15.0732 0.000782664C15.9403 0.158065 16.8323 0.233967 17.6711 0.485931C23.2691 2.1636 26.6855 5.87264 27.8929 11.6013C27.9039 11.6522 27.9132 11.703 27.9242 11.7539C27.9406 11.8298 27.9578 11.9049 27.9665 11.9409C28.9109 12.207 29.8648 12.3869 30.749 12.7406C36.1764 14.9128 39.29 18.9114 39.9121 24.734C40.2869 28.2395 39.3001 31.429 37.2328 34.2781C37.0747 34.4964 37.0575 34.6842 37.1248 34.9221C37.4417 36.0387 37.9715 37.0434 38.6882 37.9527C38.761 38.045 38.8369 38.1342 38.9073 38.2273C39.3189 38.7751 39.1687 39.3252 38.5184 39.5552C36.3298 40.3291 34.2436 40.0897 32.2788 38.8635C32.0284 38.707 31.8484 38.6851 31.5761 38.8025C24.0383 42.06 15.4621 38.3596 12.6905 30.6442C12.3846 29.7928 12.2007 28.8976 11.9738 28.0737C10.8697 27.7301 9.74287 27.4242 8.65364 27.0181C8.2037 26.8506 7.90479 26.867 7.49398 27.1127C5.64885 28.2145 3.684 28.4133 1.64011 27.7403C0.768412 27.4531 0.612695 26.9249 1.18705 26.2191C1.96094 25.2684 2.53216 24.2152 2.86785 23.0336C2.93749 22.7895 2.90072 22.604 2.74578 22.3927C1.216 20.3136 0.323954 17.9865 0.0704248 15.416C0.0594698 15.3017 0.0242574 15.1898 0 15.0764C0 14.3995 0 13.7227 0 13.045C0.0766847 12.5458 0.149457 12.0458 0.230837 11.5481C1.10332 6.23103 5.48296 1.58143 10.7492 0.399856C11.5058 0.230054 12.2782 0.13146 13.0434 0C13.7203 0 14.3972 0 15.074 0L15.0732 0.000782664ZM3.07052 26.486C3.18007 26.5016 3.35378 26.5392 3.52985 26.5486C4.84992 26.6213 6.08 26.3154 7.11603 25.4914C7.67552 25.047 8.12154 25.0587 8.73971 25.356C11.1052 26.4961 13.6092 26.8311 16.1914 26.3788C22.9068 25.2027 27.3639 19.0061 26.4132 12.2124C25.4241 5.1457 18.4834 0.308304 11.5043 1.82322C2.59085 3.75755 -1.38424 14.1108 4.00169 21.4365C4.50484 22.1212 4.64099 22.7269 4.3632 23.4796C4.32252 23.5892 4.30608 23.7081 4.25913 23.8145C3.86788 24.7019 3.47116 25.5869 3.07052 26.486ZM26.1464 21.2479C26.3702 21.2479 26.5235 21.2479 26.6769 21.2479C28.2255 21.2479 29.7748 21.2495 31.3234 21.2479C31.6661 21.2479 31.9768 21.3661 32.0746 21.6908C32.145 21.9232 32.1176 22.2307 32.0214 22.4561C31.8938 22.7558 31.5753 22.8137 31.2561 22.8129C29.317 22.8082 27.3772 22.8168 25.4382 22.8043C25.162 22.8028 24.9875 22.8904 24.8146 23.0993C23.9734 24.1205 22.9913 24.9891 21.8951 25.7293C21.8278 25.7747 21.7675 25.8318 21.6376 25.9359H22.1494C25.1299 25.9359 28.1104 25.9359 31.091 25.9359C31.2209 25.9359 31.3523 25.928 31.4806 25.9445C31.8789 25.9938 32.1716 26.3248 32.1732 26.7137C32.1747 27.1018 31.8836 27.4359 31.4853 27.4876C31.3445 27.5056 31.1997 27.4977 31.0565 27.4977C27.3209 27.4977 23.586 27.504 19.8504 27.4938C18.913 27.4915 17.9802 27.4774 17.0788 27.7967C16.9215 27.8522 16.7494 27.8733 16.5819 27.8913C15.6147 27.9954 14.6468 28.0932 13.6569 28.1957C13.6655 28.2693 13.6687 28.3851 13.6929 28.4962C14.4574 31.958 16.2932 34.7053 19.3277 36.5411C23.2308 38.9026 27.3021 39.0693 31.44 37.1397C31.9243 36.9135 32.2788 36.9573 32.7287 37.2563C33.3273 37.653 33.9878 37.9863 34.6638 38.2266C35.4049 38.4895 36.1975 38.5208 36.9699 38.3408C36.66 37.7453 36.3267 37.1991 36.0849 36.6146C35.8376 36.0176 35.6725 35.3853 35.4855 34.7648C35.3642 34.3642 35.4604 34.0199 35.7257 33.6771C37.7688 31.0432 38.7266 28.0533 38.3447 24.7371C37.7375 19.4724 34.8642 15.9293 29.9063 14.0826C29.3444 13.8729 28.7435 13.7673 28.1151 13.6006C28.1636 16.362 27.5353 18.8644 26.1448 21.2479H26.1464Z" fill="white"/>
<path d="M26.7121 30.6223C28.22 30.6223 29.7279 30.6121 31.235 30.6332C31.4744 30.6363 31.7475 30.7318 31.9408 30.8734C32.1849 31.0526 32.2381 31.3523 32.1286 31.652C32.0097 31.9775 31.7694 32.1591 31.4259 32.1786C31.1536 32.1943 30.8805 32.1849 30.6074 32.1849C27.8648 32.1849 25.1221 32.1849 22.3802 32.1849C22.2636 32.1849 22.1463 32.1896 22.0297 32.1826C21.5641 32.1544 21.2347 31.8156 21.2464 31.3821C21.2581 30.9626 21.5813 30.634 22.0336 30.6277C22.9562 30.6152 23.8795 30.623 24.8021 30.623C25.439 30.623 26.076 30.623 26.7129 30.623L26.7121 30.6223Z" fill="white"/>
<path d="M18.8813 30.6245C19.3117 30.6135 19.6787 30.9719 19.6787 31.4023C19.6787 31.8178 19.3344 32.1699 18.9196 32.1809C18.4893 32.1918 18.123 31.8335 18.123 31.4015C18.123 30.9852 18.465 30.6347 18.8813 30.6237V30.6245Z" fill="white"/>
<path d="M16.7599 22.3279C16.5001 22.1369 16.5204 21.9546 16.8123 21.8145C16.8483 21.7973 16.8897 21.7418 16.8897 21.7042C16.8944 21.1259 16.8929 20.5477 16.8929 19.9585H15.7794V21.7707C15.8099 21.7801 15.8365 21.7895 15.8639 21.7973C16.0415 21.8482 16.1206 21.953 16.0916 22.0994C16.0619 22.2457 15.9484 22.3153 15.7669 22.2981C15.4961 22.2731 15.2622 22.0446 15.2598 21.7668C15.2528 20.9374 15.2434 20.1071 15.2653 19.2785C15.2762 18.8653 15.5219 18.5742 15.8952 18.3974C15.9515 18.3708 16.0102 18.3496 16.0744 18.3238C16.0744 17.6869 16.0783 17.0507 16.0681 16.4145C16.0673 16.3558 15.9789 16.2979 15.9061 16.2079C15.7817 16.5695 15.6745 16.8785 15.5689 17.1876C15.3537 17.8152 15.1401 18.4435 14.9218 19.0703C14.8967 19.1423 14.8584 19.2417 14.8013 19.2628C14.7175 19.2949 14.6025 19.2926 14.5172 19.2605C14.4014 19.2159 14.3842 19.0969 14.4163 18.9835C14.4554 18.8489 14.5039 18.7174 14.554 18.5672H12.7621C13.0555 19.4334 13.3466 20.2934 13.6518 21.1948C13.6878 21.1072 13.7097 21.0587 13.7269 21.0086C13.8145 20.7566 13.8951 20.5031 13.9882 20.2535C14.043 20.1064 14.162 20.0578 14.3036 20.1071C14.4437 20.1556 14.5086 20.2691 14.4656 20.417C14.4163 20.5852 14.3552 20.7511 14.2981 20.917C14.1776 21.2715 14.0532 21.6244 13.9366 21.9804C13.8897 22.1228 13.8372 22.2543 13.6604 22.2559C13.4835 22.2574 13.4288 22.1283 13.3802 21.9851C12.7558 20.1369 12.129 18.2894 11.503 16.4419C11.4835 16.3832 11.46 16.3261 11.4357 16.2619C11.2925 16.2799 11.2362 16.3425 11.2378 16.4936C11.244 17.5844 11.2425 18.6752 11.2393 19.766C11.2393 19.8779 11.262 19.9436 11.3755 19.9992C11.7362 20.176 11.9076 20.5696 11.8129 20.9585C11.7237 21.327 11.3708 21.6009 10.9874 21.6001C10.5953 21.5994 10.2534 21.3255 10.1611 20.9381C10.0718 20.5657 10.255 20.1807 10.6032 19.9898C10.6572 19.96 10.726 19.8927 10.726 19.8427C10.7331 18.7691 10.7315 17.6955 10.7315 16.6109C10.7025 16.6141 10.6806 16.6109 10.6642 16.6188C10.2323 16.8339 9.79484 17.0382 9.3723 17.2698C8.87306 17.5445 8.61953 17.9866 8.61562 18.5539C8.6078 19.6619 8.61327 20.7699 8.61327 21.8779C8.61327 21.935 8.61797 21.9922 8.60936 22.0477C8.58745 22.1847 8.50138 22.2574 8.36366 22.2598C8.22594 22.2629 8.13673 22.1933 8.10856 22.0579C8.09839 22.0086 8.1023 21.9562 8.1023 21.9053C8.1023 20.8145 8.10152 19.7237 8.1023 18.6329C8.1023 17.7659 8.49277 17.1368 9.26509 16.7447C9.57261 16.5882 9.88092 16.4333 10.1994 16.2729C10.1102 16.0953 10.0194 15.9325 9.94352 15.7635C9.71033 15.2377 9.59609 14.686 9.59687 14.1101C9.59844 12.3659 9.59531 10.6217 9.59922 8.87751C9.60078 8.09658 9.82849 7.37982 10.2503 6.7233C10.3191 6.61532 10.4021 6.5355 10.5398 6.55741C10.7362 6.58871 10.8121 6.78903 10.6916 6.97996C10.4717 7.32817 10.2949 7.69595 10.2104 8.09971C10.1634 8.32664 10.1172 8.55904 10.1157 8.78909C10.1078 10.624 10.1039 12.459 10.1157 14.2947C10.1196 14.92 10.3246 15.4959 10.6728 16.0428C10.809 15.9763 10.9396 15.9122 11.0695 15.848C11.3692 15.6985 11.6689 15.5499 11.9678 15.3988C12.1658 15.2987 12.2722 15.1578 12.2636 14.9137C12.2456 14.409 12.2621 13.9027 12.2535 13.3972C12.2527 13.3338 12.2057 13.247 12.1525 13.2126C11.2346 12.6116 10.7714 11.7649 10.762 10.6694C10.7589 10.3173 10.7604 9.96519 10.7636 9.61306C10.7659 9.40648 10.852 9.30945 11.0453 9.30554C12.0375 9.28207 12.683 8.75388 13.1025 7.89783C13.1619 7.77576 13.2081 7.64743 13.2574 7.51988C13.3278 7.33834 13.4515 7.22958 13.6518 7.22253C13.8513 7.21549 13.9875 7.30235 14.0712 7.5058C14.3075 8.08328 14.6667 8.56139 15.1917 8.90647C15.5133 9.11774 15.8631 9.25937 16.2371 9.34623C16.522 9.41274 16.5619 9.46126 16.558 9.75313C16.5517 10.2125 16.5767 10.6765 16.5228 11.1311C16.4179 12.0169 15.9539 12.6984 15.2074 13.1813C15.0947 13.254 15.0618 13.3284 15.0634 13.4543C15.0697 13.9426 15.0744 14.4317 15.0618 14.92C15.0571 15.1281 15.1307 15.2744 15.3075 15.366C15.745 15.5929 16.1863 15.8136 16.637 16.0428C16.8882 15.6696 17.0525 15.2736 17.13 14.8472C17.1777 14.5858 17.2027 14.3174 17.2043 14.0522C17.2106 12.3651 17.2106 10.6773 17.2067 8.99019C17.2035 7.19749 16.0259 5.76787 14.2637 5.43844C13.3411 5.26629 12.4812 5.46192 11.6932 5.9721C11.6595 5.99401 11.6282 6.01827 11.5938 6.03861C11.4451 6.1286 11.3035 6.10513 11.2213 5.97758C11.1439 5.85629 11.1728 5.71779 11.3066 5.62154C11.7018 5.33593 12.1369 5.1317 12.6087 5.00885C14.9531 4.3985 17.2841 5.91811 17.6707 8.30942C17.7012 8.49957 17.7145 8.69363 17.7145 8.88612C17.7176 10.6358 17.7176 12.3862 17.7161 14.1359C17.7161 14.855 17.5337 15.5272 17.173 16.15C17.1534 16.1837 17.1394 16.2197 17.1151 16.269C17.4046 16.4161 17.684 16.5656 17.9688 16.7017C18.8233 17.1094 19.2271 17.7831 19.2153 18.7292C19.2028 19.8027 19.213 20.8771 19.2122 21.9507C19.2122 22.144 19.1394 22.2418 18.9908 22.2598C18.8194 22.2801 18.7044 22.1745 18.7028 21.9867C18.6997 21.5548 18.702 21.1228 18.702 20.6917C18.702 19.9984 18.7036 19.3051 18.702 18.6126C18.7004 17.9662 18.4117 17.4952 17.8295 17.208C17.4234 17.0077 17.0181 16.8066 16.5955 16.5976V18.3309C16.6597 18.3575 16.7293 18.3809 16.7943 18.4146C17.1871 18.6188 17.396 18.9475 17.4007 19.3872C17.4093 20.1596 17.4015 20.9327 17.4038 21.705C17.4046 22.0203 17.2262 22.2019 16.9641 22.3286H16.7599V22.3279ZM11.2722 9.80869C11.2722 10.1373 11.2683 10.4542 11.2722 10.7712C11.2871 11.9034 12.1345 12.9027 13.2316 13.085C14.4077 13.2806 15.5172 12.6335 15.9124 11.5317C16.1127 10.9738 16.0251 10.4003 16.047 9.82747C14.9585 9.53638 14.1667 8.89943 13.6737 7.87827C13.1987 8.94012 12.4686 9.66158 11.2714 9.8079L11.2722 9.80869ZM11.9099 16.0068C11.9131 16.0335 11.9115 16.0569 11.9185 16.0773C12.1283 16.7001 12.3372 17.3238 12.5555 17.9435C12.5719 17.9897 12.6611 18.0382 12.7167 18.0382C13.3466 18.0453 13.9773 18.0398 14.6072 18.0445C14.7121 18.0453 14.7543 18.0061 14.7856 17.9114C14.9327 17.4646 15.0869 17.0202 15.2379 16.5749C15.3013 16.3887 15.3639 16.2025 15.428 16.0139C15.295 15.9411 15.1745 15.8785 15.0579 15.8097C14.7168 15.6093 14.5368 15.3237 14.5524 14.9137C14.5673 14.5224 14.5556 14.1304 14.5556 13.7384V13.4903C13.9468 13.6789 13.3622 13.6703 12.7676 13.4935C12.7676 13.995 12.7582 14.4724 12.7707 14.9481C12.7801 15.3229 12.6189 15.5906 12.3114 15.7815C12.1822 15.8621 12.0453 15.9302 11.9099 16.0045V16.0068ZM15.7809 19.424H16.8866C16.8866 19.0523 16.6354 18.8004 16.2958 18.816C15.9813 18.8301 15.7481 19.104 15.7817 19.424H15.7809ZM10.6517 20.7433C10.6493 20.9288 10.7941 21.0829 10.9772 21.0892C11.1619 21.0954 11.3285 20.9327 11.327 20.7464C11.3254 20.5641 11.1728 20.4147 10.9882 20.4139C10.7988 20.4131 10.654 20.5555 10.6509 20.7433H10.6517Z" fill="white"/>
<path d="M13.6225 12.4373C13.3643 12.4279 13.1092 12.334 12.8963 12.1368C12.7711 12.0202 12.7594 11.8747 12.8627 11.7628C12.9621 11.6548 13.0959 11.6493 13.2258 11.7495C13.5341 11.9874 13.7782 11.9881 14.0857 11.7526C14.2219 11.6485 14.3698 11.654 14.4629 11.7667C14.5544 11.877 14.5333 12.028 14.4112 12.1439C14.2203 12.3246 13.9253 12.4389 13.6233 12.4373H13.6225Z" fill="white"/>
</svg>
