<svg width="40" height="40" viewBox="0 0 40 40" fill="none" xmlns="http://www.w3.org/2000/svg">
<path d="M28.6003 6.66663H28.067C25.8268 6.66663 24.7067 6.66663 23.851 7.1026C23.0984 7.48609 22.4865 8.09802 22.103 8.85066C21.667 9.70631 21.667 10.8264 21.667 13.0666V20C21.667 20.9293 21.667 21.3939 21.5901 21.7803C21.2745 23.3671 20.0341 24.6075 18.4474 24.9231C18.061 25 17.5963 25 16.667 25C15.7377 25 15.273 25 14.8866 25.0768C13.2999 25.3924 12.0595 26.6328 11.7439 28.2196C11.667 28.606 11.667 29.0706 11.667 30C11.667 30.9293 11.667 31.3939 11.7439 31.7803C12.0595 33.3671 13.2999 34.6075 14.8866 34.9231C15.273 35 15.7377 35 16.667 35H18.0306C23.913 35 26.8542 35 29.1082 33.8717C31.1691 32.8401 32.8405 31.1688 33.8721 29.1079C35.0003 26.8539 35.0003 23.9127 35.0003 18.0303V13.0666C35.0003 10.8264 35.0003 9.70631 34.5643 8.85066C34.1809 8.09802 33.5689 7.48609 32.8163 7.1026C31.9606 6.66663 30.8405 6.66663 28.6003 6.66663Z" stroke="white" stroke-width="2" stroke-linecap="round" stroke-linejoin="round"/>
<path d="M13.333 5V6.93333C13.333 9.17354 13.333 10.2936 13.769 11.1493C14.1525 11.9019 14.7644 12.5139 15.517 12.8974C16.3727 13.3333 17.4928 13.3333 19.733 13.3333H21.6663" stroke="white" stroke-width="2" stroke-linecap="round" stroke-linejoin="round"/>
<path d="M5 35C5 34.0707 5 33.606 5.07686 33.2196C5.39249 31.6329 6.63288 30.3925 8.21964 30.0769C8.60603 30 9.07069 30 10 30H11.6667" stroke="white" stroke-width="2" stroke-linecap="round" stroke-linejoin="round"/>
</svg>
