<svg width="40" height="40" viewBox="0 0 40 40" fill="none" xmlns="http://www.w3.org/2000/svg">
<path d="M23.334 19.0768V14.1667C23.334 13.7024 23.334 13.4703 23.3484 13.2744C23.5429 10.6383 25.6389 8.54227 28.275 8.34782C28.4709 8.33337 28.703 8.33337 29.1673 8.33337H29.78C32.6633 8.33337 35.0006 10.6707 35.0006 13.554C35.0006 14.5002 34.7435 15.4286 34.2567 16.24L31.2406 21.2668C30.4713 22.5489 29.0858 23.3334 27.5906 23.3334C25.2397 23.3334 23.334 21.4276 23.334 19.0768Z" stroke="white" stroke-width="2" stroke-linecap="round" stroke-linejoin="round"/>
<path d="M19.0337 27.457L12.8813 30.9726C12.0853 31.4275 11.1845 31.6667 10.2677 31.6667C7.35845 31.6667 5 29.3082 5 26.399V16.8667C5 13.8798 5 12.3863 5.5813 11.2454C6.09262 10.2419 6.90852 9.426 7.91205 8.91467C9.05291 8.33337 10.5464 8.33337 13.5333 8.33337H14.8C17.7869 8.33337 19.2804 8.33337 20.4213 8.91467C21.4248 9.426 22.2407 10.2419 22.752 11.2454C23.3333 12.3863 23.3333 13.8798 23.3333 16.8667V20.0479C23.3333 21.8516 23.3333 22.7534 23.0701 23.5598C22.8372 24.2734 22.4563 24.9298 21.9523 25.486C21.3827 26.1147 20.5997 26.5621 19.0337 27.457Z" stroke="white" stroke-width="2" stroke-linecap="round" stroke-linejoin="round"/>
<path d="M23.334 35L23.334 25C23.334 22.2386 21.0954 20 18.334 20C15.5726 20 13.334 17.7615 13.334 15V13.3334" stroke="white" stroke-width="2" stroke-linecap="round" stroke-linejoin="round"/>
<path d="M23.334 35L23.334 21.6667C23.334 20.4276 23.334 19.808 23.4365 19.2929C23.8573 17.1772 25.5112 15.5233 27.6268 15.1025C28.142 15 28.7616 15 30.0007 15" stroke="white" stroke-width="2" stroke-linecap="round" stroke-linejoin="round"/>
</svg>
