<svg width="40" height="40" viewBox="0 0 40 40" fill="none" xmlns="http://www.w3.org/2000/svg">
<path d="M20 20H23.1333C26.1203 20 27.6138 20 28.7546 20.5813C29.7581 21.0926 30.574 21.9085 31.0854 22.9121C31.6667 24.0529 31.6667 25.5464 31.6667 28.5333V35" stroke="white" stroke-width="2" stroke-linecap="round" stroke-linejoin="round"/>
<path d="M20 20H23.1333C26.1203 20 27.6138 20 28.7546 19.4187C29.7581 18.9074 30.574 18.0915 31.0854 17.0879C31.6667 15.9471 31.6667 14.4536 31.6667 11.4667V10" stroke="white" stroke-width="2" stroke-linecap="round" stroke-linejoin="round"/>
<path d="M19.3333 22.4167L21.1877 23.8074L21.1877 23.8075C21.7038 24.1945 21.9618 24.388 22.1732 24.5858C23.6258 25.9443 24.2017 27.9982 23.6673 29.9139C23.5895 30.1928 23.4697 30.4923 23.2302 31.0912L23.2301 31.0913C23.0166 31.6252 22.9098 31.8921 22.7883 32.1259C21.9573 33.725 20.3749 34.7964 18.5815 34.974C18.3193 35 18.0314 35 17.4555 35C15.795 35 14.9647 35 14.2688 34.908C9.4868 34.2759 5.72412 30.5132 5.09199 25.7312C5 25.0353 5 24.2063 5 22.5484V17.3437C5 15.7861 5 15.0073 5.08122 14.3529C5.68311 9.50338 9.50338 5.68311 14.3529 5.08122C15.0073 5 15.7861 5 17.3437 5C17.9062 5 18.1874 5 18.4426 5.02459C20.3065 5.2042 21.9396 6.34809 22.7454 8.03834C22.8557 8.26977 22.9518 8.53407 23.144 9.06267L23.2991 9.48917C23.6325 10.4061 23.7992 10.8645 23.8798 11.298C24.1931 12.9832 23.6773 14.7163 22.4936 15.956C22.1891 16.2749 21.7988 16.5676 21.0183 17.153L19.3333 18.4167C18.7038 18.8888 18.3333 19.6298 18.3333 20.4167C18.3333 21.2036 18.7038 21.9445 19.3333 22.4167Z" stroke="white" stroke-width="2" stroke-linecap="round" stroke-linejoin="round"/>
</svg>
