<svg width="40" height="40" viewBox="0 0 40 40" fill="none" xmlns="http://www.w3.org/2000/svg">
<path d="M10 15V10C10 8.44686 10 7.67029 10.2537 7.05772C10.592 6.24096 11.241 5.59205 12.0577 5.25373C12.6703 5 13.4469 5 15 5C16.5531 5 17.3297 5 17.9423 5.25373C18.759 5.59205 19.408 6.24096 19.7463 7.05772C20 7.67029 20 8.44686 20 10V30C20 31.5531 20 32.3297 19.7463 32.9423C19.408 33.759 18.759 34.408 17.9423 34.7463C17.3297 35 16.5531 35 15 35C13.4469 35 12.6703 35 12.0577 34.7463C11.241 34.408 10.592 33.759 10.2537 32.9423C10 32.3297 10 31.5531 10 30V25C8.44686 25 7.67029 25 7.05772 24.7463C6.24096 24.408 5.59205 23.759 5.25374 22.9423C5 22.3297 5 21.5531 5 20C5 18.4469 5 17.6703 5.25374 17.0577C5.59205 16.241 6.24096 15.592 7.05772 15.2537C7.67029 15 8.44686 15 10 15Z" stroke="white" stroke-width="2" stroke-linecap="round" stroke-linejoin="round"/>
<path d="M19.9993 6.66663V8.33329C19.9993 9.36453 19.9993 9.88015 19.8319 10.2872C19.6058 10.8367 19.1694 11.273 18.62 11.4991C18.2129 11.6666 17.6973 11.6666 16.666 11.6666" stroke="white" stroke-width="2" stroke-linecap="round" stroke-linejoin="round"/>
<path d="M10 25H11.6667C12.6979 25 13.2135 25 13.6206 25.1675C14.1701 25.3936 14.6064 25.8299 14.8325 26.3794C15 26.7865 15 27.3021 15 28.3333" stroke="white" stroke-width="2" stroke-linecap="round" stroke-linejoin="round"/>
<path d="M10 15C10 16.0312 10 16.5469 10.1675 16.9539C10.3936 17.5034 10.8299 17.9397 11.3794 18.1658C11.7865 18.3333 12.3021 18.3333 13.3333 18.3333" stroke="white" stroke-width="2" stroke-linecap="round" stroke-linejoin="round"/>
<path d="M30 15V10C30 8.44686 30 7.67029 29.7463 7.05772C29.408 6.24096 28.759 5.59205 27.9423 5.25373C27.3297 5 26.5531 5 25 5C23.4469 5 22.6703 5 22.0577 5.25373C21.241 5.59205 20.592 6.24096 20.2537 7.05772C20 7.67029 20 8.44686 20 10V30C20 31.5531 20 32.3297 20.2537 32.9423C20.592 33.759 21.241 34.408 22.0577 34.7463C22.6703 35 23.4469 35 25 35C26.5531 35 27.3297 35 27.9423 34.7463C28.759 34.408 29.408 33.759 29.7463 32.9423C30 32.3297 30 31.5531 30 30V25C31.5531 25 32.3297 25 32.9423 24.7463C33.759 24.408 34.408 23.759 34.7463 22.9423C35 22.3297 35 21.5531 35 20C35 18.4469 35 17.6703 34.7463 17.0577C34.408 16.241 33.759 15.592 32.9423 15.2537C32.3297 15 31.5531 15 30 15Z" stroke="white" stroke-width="2" stroke-linecap="round" stroke-linejoin="round"/>
<path d="M20.0007 6.66663V8.33329C20.0007 9.36453 20.0007 9.88015 20.1681 10.2872C20.3942 10.8367 20.8306 11.273 21.38 11.4991C21.7871 11.6666 22.3027 11.6666 23.334 11.6666" stroke="white" stroke-width="2" stroke-linecap="round" stroke-linejoin="round"/>
<path d="M30 25H28.3333C27.3021 25 26.7865 25 26.3794 25.1675C25.8299 25.3936 25.3936 25.8299 25.1675 26.3794C25 26.7865 25 27.3021 25 28.3333" stroke="white" stroke-width="2" stroke-linecap="round" stroke-linejoin="round"/>
<path d="M30 13.3334V15C30 16.0313 30 16.5469 29.8325 16.954C29.6064 17.5035 29.1701 17.9398 28.6206 18.1659C28.2135 18.3334 27.6979 18.3334 26.6667 18.3334" stroke="white" stroke-width="2" stroke-linecap="round" stroke-linejoin="round"/>
</svg>
