<svg width="40" height="40" viewBox="0 0 40 40" fill="none" xmlns="http://www.w3.org/2000/svg">
<path d="M16.666 18.3334V19.0667C16.666 20.5602 16.666 21.3069 16.9567 21.8773C17.2123 22.3791 17.6203 22.7871 18.122 23.0427C18.6925 23.3334 19.4392 23.3334 20.9327 23.3334H22.3993C23.8928 23.3334 24.6396 23.3334 25.21 23.0427C25.7118 22.7871 26.1197 22.3791 26.3754 21.8773C26.666 21.3069 26.666 20.5602 26.666 19.0667V18.3334" stroke="white" stroke-width="2" stroke-linecap="round" stroke-linejoin="round"/>
<path d="M21.666 36.6667L21.666 10" stroke="white" stroke-width="2" stroke-linecap="round" stroke-linejoin="round"/>
<path d="M16.666 13.3334C17.5953 13.3334 18.06 13.3334 18.4464 13.4102C20.0331 13.7259 21.2735 14.9663 21.5892 16.553C21.666 16.9394 21.666 17.4041 21.666 18.3334V20" stroke="white" stroke-width="2" stroke-linecap="round" stroke-linejoin="round"/>
<path d="M28.3869 36.6667V29.5586C28.3869 29.1427 28.3869 28.9347 28.3989 28.7353C28.4942 27.1465 29.1548 25.6443 30.2612 24.5002C30.4001 24.3565 30.5533 24.216 30.8598 23.9349C31.1663 23.6537 31.3195 23.5132 31.4584 23.3695C32.5648 22.2254 33.2254 20.7232 33.3207 19.1345C33.3327 18.935 33.3327 18.7271 33.3327 18.3112V15C33.3327 14.0715 33.3327 13.6072 33.3038 13.2154C32.9149 7.94313 28.7229 3.75118 23.4507 3.36228C23.0589 3.33337 22.5946 3.33337 21.666 3.33337C20.7374 3.33337 20.2731 3.33337 19.8813 3.36228C14.6091 3.75118 10.4172 7.94313 10.0283 13.2154C9.99935 13.6072 9.99935 14.0715 9.99935 15V15.7177C9.99935 15.7224 9.99935 15.7248 9.99935 15.7271C9.99863 16.3449 9.8548 16.9542 9.57913 17.5072C9.5781 17.5092 9.57705 17.5113 9.57494 17.5155L7.58733 21.4908C7.16404 22.3373 7.77964 23.3334 8.72613 23.3334C9.42931 23.3334 9.99935 23.9034 9.99935 24.6066V25.8334C9.99935 27.2141 11.1186 28.3334 12.4994 28.3334C13.8801 28.3334 14.9994 29.4527 14.9994 30.8334V36.6667" stroke="white" stroke-width="2" stroke-linecap="round" stroke-linejoin="round"/>
</svg>
