<svg width="40" height="40" viewBox="0 0 40 40" fill="none" xmlns="http://www.w3.org/2000/svg">
<path d="M16.666 13.75V27.5C16.666 29.2074 16.666 30.0612 16.4096 30.7423C16.0039 31.8204 15.1531 32.6712 14.075 33.077C13.3938 33.3333 12.5401 33.3333 10.8327 33.3333C9.12525 33.3333 8.27153 33.3333 7.59035 33.077C6.51229 32.6712 5.66148 31.8204 5.25573 30.7423C4.99935 30.0612 4.99935 29.2074 4.99935 27.5V18.2C4.99935 17.0267 4.99935 16.44 5.15313 15.9015C5.28934 15.4246 5.51305 14.9772 5.81285 14.5821C6.15136 14.136 6.62069 13.784 7.55935 13.08L10.666 10.75C11.3151 10.2632 12.1046 10 12.916 10C14.9871 10 16.666 11.6789 16.666 13.75Z" stroke="white" stroke-width="2" stroke-linecap="round" stroke-linejoin="round"/>
<path d="M23.334 14.714V27.5C23.334 29.2074 23.334 30.0612 23.5904 30.7423C23.9961 31.8204 24.8469 32.6712 25.925 33.077C26.6062 33.3333 27.4599 33.3333 29.1673 33.3333C30.8748 33.3333 31.7285 33.3333 32.4096 33.077C33.4877 32.6712 34.3385 31.8204 34.7443 30.7423C35.0006 30.0612 35.0006 29.2074 35.0006 27.5V17.651C35.0006 16.6726 35.0006 16.1834 34.8901 15.7231C34.7921 15.3149 34.6305 14.9247 34.4112 14.5669C34.1638 14.1632 33.8179 13.8173 33.1261 13.1255L33.1261 13.1255L31.3814 11.3807C31.1758 11.1752 31.073 11.0724 30.9672 10.9804C30.3121 10.4113 29.4896 10.0706 28.624 10.0098C28.4841 10 28.3387 10 28.048 10C27.3848 10 27.0531 10 26.775 10.0392C25.0097 10.2884 23.6224 11.6757 23.3732 13.441C23.334 13.7191 23.334 14.0508 23.334 14.714Z" stroke="white" stroke-width="2" stroke-linecap="round" stroke-linejoin="round"/>
<path d="M20 3.33337V13.3334C20 14.2627 20 14.7273 20.0769 15.1137C20.3925 16.7005 21.6329 17.9409 23.2196 18.2565C23.606 18.3334 24.0707 18.3334 25 18.3334C25.9293 18.3334 26.394 18.3334 26.7804 18.4102C28.3671 18.7259 29.6075 19.9662 29.9231 21.553C30 21.9394 30 22.4041 30 23.3334V24.1667" stroke="white" stroke-width="2" stroke-linecap="round" stroke-linejoin="round"/>
<path d="M20 3.33337V13.3334C20 14.2627 20 14.7273 19.9231 15.1137C19.6075 16.7005 18.3671 17.9409 16.7804 18.2565C16.394 18.3334 15.9293 18.3334 15 18.3334C14.0707 18.3334 13.606 18.3334 13.2196 18.4102C11.6329 18.7259 10.3925 19.9662 10.0769 21.553C10 21.9394 10 22.4041 10 23.3334V24.1667" stroke="white" stroke-width="2" stroke-linecap="round" stroke-linejoin="round"/>
</svg>
