<svg width="233" height="233" viewBox="0 0 233 233" fill="none" xmlns="http://www.w3.org/2000/svg">
<g clip-path="url(#clip0_36715_2099)">
<path d="M97.7802 96.714C97.7802 96.714 88.1392 97.535 83.6262 101.126C83.3572 101.355 83.1202 101.61 82.9082 101.888C84.7622 100.685 87.3202 99.957 87.9442 104.449C88.7912 110.554 91.5682 130.871 92.4232 137.128H99.2162L97.7802 96.714Z" fill="black"/>
<path d="M82.9082 101.888C80.2562 105.328 81.6182 112.51 83.4212 125.23C85.1642 137.127 85.1642 137.127 85.1642 137.127H92.4232C91.5682 130.87 88.7912 110.554 87.9442 104.448C87.3192 99.956 84.7622 100.685 82.9082 101.888Z" fill="#5B5B5A"/>
<path d="M89.3066 114.124C89.3066 114.124 89.4946 114.013 89.7876 113.898C90.0806 113.778 90.4796 113.653 90.8856 113.559C91.2906 113.469 91.7046 113.409 92.0216 113.388C92.3346 113.368 92.5546 113.386 92.5546 113.386C92.5546 113.386 92.3656 113.499 92.0716 113.615C91.7786 113.733 91.3796 113.858 90.9746 113.953C90.5686 114.041 90.1556 114.101 89.8386 114.121C89.5236 114.144 89.3066 114.124 89.3066 114.124Z" fill="#3F3E3D"/>
<path d="M90.8965 125.824C90.8965 125.824 91.1695 125.686 91.5925 125.535C92.0145 125.379 92.5855 125.204 93.1645 125.059C93.7435 124.918 94.3305 124.807 94.7775 124.751C95.2235 124.69 95.5295 124.684 95.5295 124.684C95.5295 124.684 95.2545 124.821 94.8315 124.974C94.4095 125.13 93.8385 125.305 93.2605 125.448C92.6815 125.591 92.0935 125.7 91.6475 125.758C91.2005 125.82 90.8965 125.824 90.8965 125.824Z" fill="#3F3E3D"/>
<g opacity="0.5">
<path d="M92.4227 137.127C91.5677 130.87 88.7907 110.554 87.9437 104.448C87.3197 99.956 84.7617 100.684 82.9077 101.887C81.2137 104.085 81.1587 107.811 81.8077 113.526C81.5347 109.474 81.5947 104.077 83.7607 103.451C86.4927 102.827 87.2037 114.6 88.7587 123.209C90.5907 133.358 86.1887 136.319 84.2227 130.712C85.1637 137.125 85.1637 137.126 85.1637 137.126L92.4227 137.127Z" fill="#5B5B5A"/>
</g>
<path d="M221.302 151.704H14.334V215.508H221.302V151.704Z" fill="#A19E89"/>
<g opacity="0.5">
<path d="M221.301 151.704H14.334V156.668C31.585 156.697 214.733 160.097 217.331 215.508H221.302V151.704H221.301Z" fill="#A19E89"/>
</g>
<path d="M20.7405 135.215H216.286L228.406 149.911H6.43555L20.7405 135.215Z" fill="#DBDAC2"/>
<path d="M228.406 149.918H6.43555V152.832H228.406V149.918Z" fill="#BEBCA5"/>
<path d="M95.3535 135.287C95.3535 135.287 95.5285 138.383 99.6785 138.442C103.828 138.501 109.205 138.852 113.411 139.261C117.617 139.669 118.25 139.804 119.02 138.266C119.662 136.98 121.239 139.2 123.519 139.435C125.798 139.669 127.082 137.214 127.434 138.092C127.784 138.967 129.654 138.733 130.706 138.208C131.758 137.683 134.912 135.871 127.025 135.754C119.137 135.636 95.3535 135.287 95.3535 135.287Z" fill="#DBDAC2"/>
<path d="M125.988 124.535C125.988 124.535 124.495 120.879 124.009 119.663C123.521 118.444 123.49 118.017 124.252 117.804C125.014 117.591 125.532 117.348 125.988 118.415C126.445 119.48 127.938 123.804 127.938 123.804L125.988 124.535Z" fill="#3F3E3D"/>
<path d="M124.641 124.649C124.482 124.649 124.33 124.556 124.267 124.397C124.259 124.377 123.449 122.376 123.001 121.362C122.652 120.572 122.487 120.037 122.674 119.639C122.74 119.498 122.882 119.314 123.189 119.228C123.902 119.057 126.567 118.569 126.68 118.549C126.899 118.509 127.109 118.654 127.149 118.871C127.188 119.091 127.043 119.299 126.825 119.34C126.798 119.347 124.092 119.84 123.4 120.006C123.395 120.088 123.428 120.337 123.738 121.037C124.191 122.063 125.007 124.076 125.015 124.096C125.098 124.301 125 124.537 124.793 124.621C124.743 124.642 124.692 124.649 124.641 124.649Z" fill="#19C199"/>
<path d="M157.119 113.476C157.154 113.427 157.193 113.375 157.228 113.326C158.397 110.372 153.043 99.786 151.565 98.74C151.433 98.866 151.297 99.008 151.157 99.153C150.443 102.547 149.714 110.389 157.119 113.476Z" fill="#747A85"/>
<path d="M130.904 96.078C129.503 95.724 128.483 95.724 128.483 95.724L103.146 93.678C103.146 93.678 93.9464 98.612 92.1064 99.616C90.2654 100.62 90.0904 105.489 91.9704 114.617C93.8504 123.744 96.5334 135.489 96.5334 135.489H137.005L136.855 124.282C136.855 124.282 136.871 124.312 136.901 124.358C136.817 123.722 136.04 117.88 134.804 112.602C133.793 108.283 131.77 99.737 130.904 96.078Z" fill="#F5F6FA"/>
<g opacity="0.5">
<path d="M105.862 109.785C105.058 111.999 105.966 111.999 109.387 113.711C112.81 115.423 115.729 117.538 117.239 118.643C118.75 119.751 119.152 122.269 119.554 127.201C119.455 124.282 120.16 119.954 120.16 119.954C124.419 115.695 129.521 110.389 128.717 109.383C127.912 108.376 125.193 104.551 125.193 104.551L129.851 95.861C129.023 95.726 128.484 95.726 128.484 95.726L103.147 93.68C103.147 93.68 102.647 93.948 101.863 94.37L107.879 103.344C107.878 103.341 106.669 107.569 105.862 109.785Z" fill="#A1A5AB"/>
</g>
<path d="M151.158 99.153C147.966 102.521 142.826 111.05 142.826 111.05C142.826 111.05 140.241 106.063 137.409 100.893C135.736 97.838 132.925 96.588 130.904 96.077C131.77 99.736 133.793 108.282 134.804 112.601C136.04 117.879 136.817 123.721 136.901 124.357C137.246 124.891 139.576 128.194 143.317 126.437C149.588 123.576 153.869 117.888 157.118 113.476C149.715 110.389 150.444 102.547 151.158 99.153Z" fill="#EBECF1"/>
<path d="M119.89 90.455L119.725 90.308L119.49 87.256L112.996 87.178L113.153 90.776L116.869 94.683L119.89 90.455Z" fill="#FDC088"/>
<path d="M119.89 90.455L119.725 90.308L119.49 87.256L112.996 87.178L113.153 90.776L116.869 94.683L119.89 90.455Z" fill="#D9AE91"/>
<path d="M129.506 95.316L122.777 91.17L122.541 92.812L122.446 92.729L118.412 114.818L110.647 91.56L110.257 90.229L102.51 93.438C102.51 93.438 104.778 97.977 108.768 102.592C106.656 109.166 106.188 110.81 106.188 110.81L118.393 118.554L118.941 119.807L128.252 109.245L124.26 104.628L129.506 95.316Z" fill="white"/>
<path d="M150.948 102.468L154.017 99.56C154.017 99.56 153.478 96.974 154.556 95.359C155.633 93.743 156.226 93.797 156.98 90.943C157.733 88.088 160.426 90.189 159.08 93.042C158.111 95.251 158.434 94.982 160.426 93.15C162.42 91.32 167.805 87.387 169.475 87.98C170.282 88.303 168.936 89.758 166.62 91.589C164.304 93.421 163.551 94.497 163.551 94.497C163.551 94.497 163.929 95.197 165.06 94.282C166.19 93.366 171.575 90.081 172.921 91.104C174.268 92.127 171.629 92.882 169.852 94.282C168.074 95.682 166.028 97.513 166.028 97.513C166.028 97.513 172.007 93.85 174.43 94.874C175.884 95.629 174.106 97.028 171.79 97.621C169.475 98.214 167.428 99.452 167.428 99.452C167.428 99.452 174.431 99.399 174.377 100.906C174.324 102.415 166.513 102.576 166.513 102.576C166.513 102.576 161.666 108.716 157.145 105.753C155.582 107.369 152.996 110.115 152.996 110.115C152.996 110.115 150.786 107.961 150.948 102.468Z" fill="#FDC088"/>
<path d="M162.219 93.456C162.219 93.456 162.586 93.649 163.077 94.028C163.322 94.216 163.596 94.451 163.872 94.724C164.15 94.993 164.424 95.306 164.684 95.629C164.804 95.798 164.935 95.958 165.046 96.132C165.16 96.302 165.267 96.471 165.358 96.645C165.454 96.813 165.544 96.979 165.612 97.145C165.686 97.309 165.759 97.46 165.804 97.61C165.91 97.904 165.969 98.157 166.005 98.335C166.041 98.511 166.056 98.612 166.056 98.612C166.056 98.612 166.005 98.521 165.928 98.36C165.89 98.278 165.849 98.179 165.791 98.069C165.73 97.961 165.661 97.839 165.592 97.706C165.527 97.57 165.43 97.436 165.347 97.286C165.263 97.134 165.155 96.987 165.054 96.828C164.958 96.668 164.835 96.517 164.726 96.354C164.617 96.189 164.486 96.036 164.366 95.875C164.121 95.558 163.863 95.251 163.614 94.966C163.367 94.681 163.128 94.421 162.921 94.196C162.713 93.975 162.541 93.784 162.415 93.66C162.29 93.531 162.219 93.456 162.219 93.456Z" fill="#A5693C"/>
<path d="M158.56 94.338C158.515 94.688 158.437 95.025 158.348 95.359L158.291 95.186C158.551 95.335 158.786 95.505 159.013 95.692C159.243 95.877 159.454 96.084 159.649 96.308C159.841 96.534 160.019 96.775 160.15 97.046C160.218 97.181 160.276 97.32 160.312 97.467C160.355 97.61 160.367 97.763 160.367 97.908C160.303 97.774 160.241 97.649 160.165 97.53C160.135 97.468 160.087 97.414 160.048 97.356C160.009 97.298 159.97 97.242 159.923 97.189C159.754 96.969 159.562 96.766 159.365 96.57C158.976 96.172 158.551 95.797 158.123 95.432L158.025 95.348L158.067 95.257C158.213 94.945 158.37 94.635 158.56 94.338Z" fill="#A5693C"/>
<path d="M160.191 99.847C160.191 99.847 159.933 99.924 159.579 100.073C159.4 100.144 159.201 100.243 158.992 100.347C158.788 100.465 158.569 100.583 158.377 100.739C158.274 100.806 158.182 100.89 158.089 100.969C157.993 101.045 157.912 101.134 157.828 101.213C157.741 101.292 157.674 101.383 157.599 101.461C157.524 101.54 157.465 101.624 157.405 101.7C157.349 101.778 157.285 101.843 157.244 101.91C157.199 101.974 157.162 102.032 157.127 102.079C157.058 102.173 157.016 102.228 157.016 102.228C157.016 102.228 157.028 102.162 157.053 102.048C157.068 101.989 157.086 101.92 157.105 101.84C157.123 101.758 157.165 101.676 157.204 101.583C157.246 101.488 157.285 101.383 157.351 101.287C157.417 101.19 157.472 101.076 157.558 100.98C157.645 100.884 157.717 100.768 157.823 100.683C157.924 100.592 158.023 100.494 158.137 100.416C158.248 100.333 158.365 100.26 158.483 100.195C158.599 100.122 158.726 100.08 158.843 100.026C159.083 99.936 159.312 99.874 159.517 99.851C159.923 99.789 160.191 99.847 160.191 99.847Z" fill="#A5693C"/>
<path d="M153.258 100.329L153.231 100.305L150.948 102.468C150.786 107.961 152.994 110.116 152.994 110.116C152.994 110.116 154.662 108.346 156.126 106.812C153.174 103.569 153.258 100.329 153.258 100.329Z" fill="#F5F6FA"/>
<path d="M152.13 101.348L150.948 102.469C150.786 107.962 152.994 110.117 152.994 110.117C152.994 110.117 153.387 109.698 153.96 109.095C152.649 106.733 152.201 104.137 152.13 101.348Z" fill="#A1A5AB"/>
<path d="M115.98 130.824C116.922 128.467 118.088 126.88 118.758 126.086C117.285 125.973 109.22 125.497 106.164 125.891C104.956 125.187 102.741 125.691 102.741 125.691C102.741 125.691 100.828 113.207 100.125 106.764C99.4197 100.321 94.2847 99.215 94.2847 99.215C90.2927 98.846 90.2927 103.946 91.0967 109.585C91.9027 115.221 95.8957 132.385 96.2977 134.651C96.7007 136.917 97.6077 137.269 98.8657 137.521C100.125 137.774 103.093 137.269 108.329 137.823C112.972 138.314 116.205 138.471 116.88 138.498C115.301 136.352 114.78 133.826 115.98 130.824Z" fill="white"/>
<path d="M120.929 131.044C120.468 128.191 118.85 126.094 118.85 126.094C118.823 126.092 118.79 126.089 118.759 126.086C118.088 126.88 116.923 128.467 115.981 130.824C114.781 133.826 115.301 136.352 116.881 138.497C116.968 138.503 117.018 138.503 117.018 138.503C117.018 138.503 121.39 133.899 120.929 131.044Z" fill="#747A85"/>
<path d="M116.358 130.092C116.358 130.092 119.676 129.809 120.273 129.774C120.875 129.703 120.627 128.116 121.016 126.953C121.403 125.787 122.779 124.872 125.107 124.129C127.435 123.388 127.683 123.212 129.163 124.129C130.645 125.046 131.914 126.387 131.527 128.433C132.619 129.915 132.056 131.044 131.456 131.606C132.691 132.806 132.443 133.937 131.809 134.534C132.443 136.123 131.493 137.286 129.833 137.64C128.739 137.888 127.823 137.498 129.41 135.063C129.481 134.746 128.953 135.277 127.928 136.193C126.905 137.111 125.67 138.629 124.085 138.593C122.496 138.558 120.804 137.534 120.168 136.441C117.699 136.51 115.866 136.546 115.866 136.546C115.866 136.546 114.348 133.901 116.358 130.092Z" fill="#FDC088"/>
<path d="M127.541 124.649C127.541 124.649 127.768 124.783 128.047 125.059C128.186 125.196 128.341 125.366 128.468 125.597C128.528 125.713 128.599 125.843 128.594 126.037C128.597 126.083 128.582 126.137 128.559 126.191L128.543 126.229C128.527 126.263 128.544 126.227 128.543 126.229L128.539 126.24L128.519 126.285C128.499 126.34 128.462 126.405 128.456 126.454C128.426 126.552 128.393 126.657 128.371 126.779C128.347 126.895 128.322 127.012 128.3 127.125C128.263 127.355 128.225 127.57 128.194 127.754C128.137 128.131 128.1 128.383 128.1 128.383C128.1 128.383 128 128.138 127.962 127.748C127.942 127.555 127.934 127.327 127.95 127.081C127.961 126.96 127.962 126.834 127.99 126.704C128.008 126.582 128.041 126.441 128.086 126.297C128.107 126.221 128.137 126.176 128.164 126.116L128.184 126.074L128.189 126.063C128.211 126.023 128.195 126.051 128.199 126.041V126.037C128.202 126.032 128.208 126.026 128.206 126.01C128.211 125.955 128.192 125.845 128.147 125.749C128.068 125.551 127.957 125.36 127.864 125.201C127.671 124.871 127.541 124.649 127.541 124.649Z" fill="#A5693C"/>
<path d="M128.312 126.252C128.312 126.252 128.565 126.294 128.913 126.425C129.089 126.486 129.288 126.572 129.495 126.674C129.707 126.768 129.917 126.903 130.13 127.029C130.338 127.16 130.536 127.315 130.721 127.46C130.812 127.527 130.888 127.616 130.967 127.691C131.043 127.765 131.115 127.84 131.178 127.907C131.246 127.974 131.289 128.054 131.333 128.116C131.375 128.182 131.411 128.237 131.441 128.285C131.498 128.379 131.527 128.433 131.527 128.433C131.527 128.433 131.473 128.4 131.381 128.339C131.337 128.307 131.283 128.269 131.222 128.224C131.16 128.182 131.104 128.128 131.025 128.081C130.866 127.988 130.696 127.867 130.508 127.745C130.311 127.634 130.12 127.488 129.913 127.367C129.711 127.236 129.508 127.104 129.319 126.981C129.13 126.856 128.956 126.734 128.805 126.626C128.508 126.416 128.312 126.252 128.312 126.252Z" fill="#A5693C"/>
<path d="M128.955 129.372C128.955 129.372 129.066 129.579 129.18 129.903C129.297 130.225 129.42 130.662 129.511 131.105C129.6 131.548 129.658 131.998 129.676 132.34C129.695 132.683 129.674 132.919 129.674 132.919C129.674 132.919 129.561 132.71 129.447 132.388C129.33 132.066 129.207 131.629 129.115 131.184C129.027 130.739 128.97 130.291 128.953 129.949C128.934 129.607 128.955 129.372 128.955 129.372Z" fill="#A5693C"/>
<path d="M129.248 130.572C129.248 130.572 129.417 130.557 129.653 130.601C129.891 130.638 130.195 130.737 130.48 130.875C130.618 130.954 130.759 131.03 130.881 131.118C131.001 131.209 131.108 131.301 131.193 131.389C131.358 131.572 131.436 131.719 131.436 131.719C131.436 131.719 131.266 131.676 131.062 131.578C130.844 131.495 130.571 131.37 130.3 131.236C130.029 131.102 129.764 130.946 129.569 130.815C129.374 130.685 129.248 130.572 129.248 130.572Z" fill="#A5693C"/>
<path d="M129.568 133.318C129.568 133.318 129.748 133.303 130.002 133.35C130.257 133.392 130.587 133.492 130.896 133.651C131.044 133.734 131.197 133.82 131.325 133.924C131.456 134.025 131.567 134.136 131.646 134.246C131.729 134.352 131.781 134.455 131.804 134.533C131.826 134.608 131.835 134.652 131.835 134.652C131.835 134.652 131.799 134.626 131.737 134.578C131.68 134.533 131.593 134.477 131.49 134.416C131.386 134.356 131.265 134.291 131.13 134.223C130.997 134.152 130.855 134.08 130.71 134.006C130.424 133.857 130.134 133.701 129.921 133.565C129.706 133.433 129.568 133.318 129.568 133.318Z" fill="#A5693C"/>
<path d="M118.422 129.918C117.4 130.002 116.358 130.092 116.358 130.092C114.348 133.901 115.866 136.546 115.866 136.546C115.866 136.546 116.661 136.532 117.906 136.501C117.218 133.814 117.964 131.163 118.422 129.918Z" fill="#F5F6FA"/>
<path d="M116.935 130.042C116.588 130.073 116.358 130.092 116.358 130.092C114.348 133.901 115.866 136.546 115.866 136.546C115.866 136.546 116.064 136.543 116.415 136.536C115.915 134.362 116.002 132.068 116.935 130.042Z" fill="#A1A5AB"/>
<path d="M121.573 97.524L122.447 92.728L119.891 90.455L117.059 94.417L120.581 98.867L121.573 97.524Z" fill="#EBECF1"/>
<path d="M116.542 94.3399L113.153 90.7759L110.648 91.5599L112.774 97.9279L113.845 99.5449L116.542 94.3399Z" fill="#EBECF1"/>
<path d="M120.031 98.172L117.058 94.417L116.869 94.683L116.542 94.34L114.592 98.105L116.786 101.016L115.886 107.249L118.413 114.817L120.181 105.13L118.825 101.016L120.031 98.172Z" fill="#19C199"/>
<path d="M114.591 98.105L113.844 99.545L112.773 97.928L115.885 107.249L116.785 101.016L114.591 98.105Z" fill="#DBDBDE"/>
<path d="M120.579 98.867L120.03 98.172L118.824 101.016L120.18 105.13L121.571 97.524L120.579 98.867Z" fill="#DBDBDE"/>
<path d="M116.837 119.297C116.592 117.516 115.371 110.649 114.905 108.037C115.033 107.904 115.097 107.719 115.067 107.527C114.778 105.685 114.186 104.53 113.211 103.886C112.162 103.195 110.776 103.121 108.492 103.651L106.915 91.785C106.872 91.455 106.566 91.221 106.237 91.266C105.907 91.311 105.673 91.614 105.718 91.946L107.317 103.988C104.557 104.991 103.894 107.232 103.951 108.356C103.96 108.557 104.068 108.729 104.224 108.83C104.302 111.404 104.554 119.401 104.806 121.462C105.107 123.93 106.114 123.426 108.028 123.625C108.077 124.482 108.13 124.584 108.883 124.584C109.639 124.584 110.041 124.633 110.041 123.475C110.041 122.319 110.143 121.814 109.487 121.715C108.678 121.59 108.228 122.218 108.228 122.218C108.228 122.218 105.964 122.218 105.711 120.607C105.427 118.083 105.042 111.306 104.907 108.811C105.064 108.697 105.163 108.508 105.157 108.298C105.153 108.194 105.103 105.75 108.325 104.934C110.493 104.385 111.754 104.373 112.543 104.896C113.217 105.339 113.639 106.234 113.874 107.714C113.904 107.911 114.027 108.07 114.192 108.156C114.494 110.184 115.268 115.412 115.626 118.29C115.829 120.304 115.577 120.859 114.519 121.311C113.713 121.565 113.713 121.565 113.713 121.565C113.713 121.565 113.361 121.059 112.655 121.311C111.951 121.565 111.902 122.017 112.101 123.222C112.304 124.431 113.058 124.129 113.864 123.98C114.67 123.827 114.518 123.728 114.268 122.671C116.534 121.916 117.139 121.512 116.837 119.297Z" fill="#A1A5AB"/>
<path d="M104.252 106.965C104.252 106.965 104.756 116.58 105.107 119.7C105.359 121.31 107.626 121.31 107.626 121.31C107.626 121.31 108.075 120.682 108.883 120.807C109.539 120.907 109.438 121.411 109.438 122.57C109.438 123.727 109.035 123.676 108.28 123.676C107.525 123.676 107.474 123.576 107.423 122.72C105.51 122.519 104.504 123.023 104.201 120.556C103.9 118.089 103.598 107.116 103.598 107.116L104.252 106.965Z" fill="#D6D8DB"/>
<path d="M113.466 106.411C113.466 106.411 114.571 113.76 115.026 117.386C115.227 119.398 114.975 119.953 113.919 120.406C113.113 120.657 113.113 120.657 113.113 120.657C113.113 120.657 112.759 120.154 112.055 120.406C111.35 120.657 111.3 121.11 111.501 122.319C111.702 123.524 112.457 123.222 113.264 123.073C114.068 122.923 113.918 122.822 113.666 121.765C115.931 121.01 116.534 120.607 116.233 118.393C115.931 116.177 114.119 106.11 114.119 106.11L113.466 106.411Z" fill="#D6D8DB"/>
<path d="M107.323 103.694C107.024 103.694 106.765 103.472 106.724 103.168L105.113 91.037C105.07 90.707 105.302 90.404 105.632 90.359C105.961 90.314 106.267 90.547 106.312 90.878L107.922 103.01C107.967 103.341 107.734 103.645 107.405 103.688C107.376 103.691 107.35 103.694 107.323 103.694Z" fill="#3F3E3D"/>
<path d="M103.949 108.022C103.63 108.022 103.362 107.771 103.347 107.447C103.285 106.232 104.06 103.709 107.427 102.855C109.991 102.207 111.489 102.243 112.606 102.98C113.581 103.623 114.172 104.782 114.463 106.621C114.515 106.95 114.29 107.259 113.96 107.31C113.63 107.365 113.321 107.137 113.27 106.807C113.036 105.327 112.614 104.432 111.941 103.987C111.149 103.466 109.889 103.477 107.721 104.026C104.5 104.843 104.55 107.289 104.553 107.391C104.565 107.723 104.307 108.005 103.975 108.02C103.967 108.02 103.958 108.022 103.949 108.022Z" fill="#3F3E3D"/>
<path d="M132.092 110.134C132.043 109.132 131.865 105.879 131.554 102.618C131.222 99.143 130.88 97.093 130.553 95.871C130.349 95.841 130.145 95.812 129.941 95.782C129.998 95.844 130.043 95.913 130.07 95.994C130.16 96.267 129.869 96.636 129.578 96.977C130.141 99.761 130.642 105.138 130.88 110.084C129.234 110.405 127.986 112.291 128.012 114.557C128.041 117.037 129.581 119.029 131.45 119.008C133.322 118.986 134.815 116.96 134.786 114.481C134.762 112.338 133.61 110.563 132.092 110.134Z" fill="#A1A5AB"/>
<path d="M130.98 101.975C130.191 93.696 129.34 93.487 128.778 93.348C128.518 93.285 128.02 93.289 127.59 94.027C127.59 94.029 127.59 94.029 127.588 94.032C127.957 94.246 128.317 94.477 128.682 94.704C128.963 94.88 129.385 95.012 129.496 95.35C129.585 95.622 129.295 95.991 129.004 96.332C129.582 99.196 130.098 104.805 130.327 109.863C130.342 110.187 130.609 110.439 130.93 110.439C130.939 110.439 130.95 110.439 130.959 110.439C131.291 110.424 131.549 110.142 131.534 109.809C131.532 109.77 131.354 105.871 130.98 101.975Z" fill="#3F3E3D"/>
<path d="M134.214 113.835C134.243 116.315 132.748 118.343 130.878 118.364C129.007 118.385 127.467 116.391 127.438 113.915C127.411 111.434 128.904 109.407 130.774 109.386C132.644 109.363 134.186 111.354 134.214 113.835Z" fill="#D6D8DB"/>
<path d="M132.441 114.193C132.441 115.878 131.562 117.243 130.48 117.243C129.395 117.243 128.516 115.878 128.516 114.193C128.516 112.508 129.395 111.143 130.48 111.143C131.562 111.144 132.441 112.509 132.441 114.193Z" fill="#EBECF1"/>
<path opacity="0.5" d="M131.117 114.193C131.117 114.739 130.831 115.182 130.481 115.182C130.128 115.182 129.842 114.739 129.842 114.193C129.842 113.645 130.129 113.203 130.481 113.203C130.83 113.203 131.117 113.646 131.117 114.193Z" fill="#A1A5AB"/>
<g opacity="0.5">
<path d="M151.364 107.387C151.628 108.682 152.068 110.135 152.776 111.698C154.185 113.812 151.298 117.169 147.272 121.059C143.246 124.953 139.9 125.682 138.01 119.314C135.46 110.725 134.27 108.25 132.996 103.284C132.264 100.432 131.553 97.892 131.175 96.245C130.839 96.129 131.21 96.156 130.904 96.079C131.77 99.738 133.793 108.284 134.804 112.603C136.04 117.881 136.817 123.723 136.901 124.359C137.246 124.893 139.576 128.196 143.317 126.439C149.588 123.578 153.869 117.89 157.118 113.478C153.843 112.113 152.162 109.816 151.364 107.387Z" fill="#A1A5AB"/>
<path d="M140.875 113.934C140.015 116.391 139.892 117.801 140.935 115.959C141.796 112.461 142.716 110.928 142.47 113.137C142.408 115.593 142.654 118.291 143.022 113.503C143.234 111.794 143.866 109.921 144.566 108.259C143.525 109.891 142.827 111.051 142.827 111.051C142.827 111.051 141.66 108.801 140.037 105.756C140.126 106.066 140.235 106.393 140.384 106.753C141.735 110.007 141.733 111.478 140.875 113.934Z" fill="#A1A5AB"/>
</g>
<g opacity="0.5">
<path d="M99.8891 130.589C98.2781 134.081 100.561 130.321 101.769 128.31C102.977 126.295 103.38 127.504 103.11 129.652C102.843 131.799 103.782 126.563 105.795 126.832C107.81 127.1 111.836 125.624 115.057 125.891C115.183 125.902 115.303 125.901 115.42 125.893C112.373 125.749 108.18 125.632 106.164 125.891C104.956 125.187 102.741 125.691 102.741 125.691C102.741 125.691 100.828 113.207 100.125 106.764C99.7901 103.716 98.4661 101.862 97.1621 100.755C98.0921 102.931 99.5201 107.472 100.291 115.959C101.634 126.563 101.5 127.1 99.8891 130.589Z" fill="#A1A5AB"/>
<path d="M118.144 126.871C116.906 128.157 115.072 130.502 114.386 133.677C113.58 136.362 112.238 135.824 106.869 135.557C101.5 135.288 98.2779 136.363 97.0699 133.142C96.0069 130.307 92.8699 118.13 92.1289 115.239C93.6069 122.572 95.9919 132.925 96.2979 134.65C96.7009 136.916 97.6079 137.268 98.8659 137.52C100.125 137.773 103.093 137.268 108.329 137.822C112.972 138.313 116.205 138.47 116.88 138.497C115.3 136.352 114.78 133.826 115.98 130.824C116.677 129.081 117.493 127.765 118.144 126.871Z" fill="#A1A5AB"/>
</g>
<g opacity="0.5">
<path d="M115.948 93.715C115.195 95.414 113.807 98.406 113.587 97.905C113.14 96.792 111.85 93.264 111.17 91.398L110.648 91.56L112.774 97.928L113.845 99.545L116.542 94.34L115.948 93.715Z" fill="#A1A5AB"/>
</g>
<g opacity="0.5">
<path d="M121.916 92.254C121.64 95.251 120.434 97.367 120.434 97.367L117.473 93.839L117.059 94.417L120.581 98.866L121.573 97.523L122.448 92.727L121.916 92.254Z" fill="#A1A5AB"/>
</g>
<path d="M120.031 98.172L119.752 97.821C119.176 99.442 118.528 100.875 117.284 100.099C116.544 99.638 115.541 98.717 114.704 97.888L114.592 98.104L116.787 101.016L116.199 105.093L116.21 105.09C116.21 105.09 116.906 101.805 117.664 101.616C118.423 101.426 120.183 105.129 120.183 105.129L118.827 101.016L120.031 98.172Z" fill="#19C199"/>
<path d="M95.4024 75.587C95.4024 75.587 92.6254 69.167 91.3284 63.488C90.0324 57.809 89.6614 55.093 89.6614 54.537C89.6614 53.981 88.4264 53.673 88.4264 53.673C88.4264 53.673 89.0444 52.067 89.9704 51.82L87.6244 51.45C87.6244 51.45 88.4884 49.537 91.3894 48.549C91.3894 48.549 88.6114 46.882 87.3164 44.413C87.3164 44.413 89.7844 45.956 91.4504 45.585C93.1184 45.214 95.5244 43.301 99.7224 41.265C103.919 39.228 109.849 34.878 121.636 35.215C125.956 35.338 131.144 37.314 132.502 41.943C132.502 41.943 134.724 41.696 137.44 42.19C140.157 42.684 142.008 51.635 144.045 52.808L142.44 52.87C142.44 52.87 143.984 54.166 144.168 54.969C144.168 54.969 142.872 54.721 142.194 54.907L143.181 55.771C143.181 55.771 141.207 56.388 140.958 57.376C140.712 58.363 138.798 66.079 138.612 68.734C138.429 71.388 128.983 78.734 128.242 78.981C127.502 79.229 95.4024 75.587 95.4024 75.587Z" fill="#30160A"/>
<g opacity="0.5">
<path d="M106.427 38.826C105.06 39.532 103.815 40.442 102.489 41.213C100.648 42.283 93.5317 48.81 89.7227 46.079C91.9357 47.665 94.9767 47.627 97.6867 47.725C97.8727 47.732 93.0697 49.992 90.5447 50.149C92.4407 50.781 94.5037 50.75 96.4827 50.595C96.7157 50.577 93.2707 51.695 91.6047 51.8C93.5207 52.653 95.5257 53.202 97.2237 53.485C101.61 54.22 106.424 54.849 110.898 54.414C116.067 53.911 124.579 51.953 128.413 48.132C126.842 47.719 125.143 47.755 123.541 47.554C122.422 47.414 119.723 47.028 120.058 45.441C120.561 43.054 124.077 42.652 128.64 44.153C125.928 41.171 124.54 42.003 123.486 41.069C122.209 39.931 128.234 39.75 129.104 40.818C127.115 38.377 128.124 37.751 130.651 39.505C128.437 36.875 124.796 35.711 121.485 35.616C116.203 35.466 111.107 36.404 106.427 38.826Z" fill="#30160A"/>
</g>
<g opacity="0.5">
<path d="M120.278 49.965C119.751 49.944 117.794 50.08 117.572 49.296C117.413 48.738 118.083 48.256 118.397 47.893C118.913 47.299 119.016 46.579 117.984 46.495C117.444 46.452 116.895 46.477 116.371 46.321C115.601 46.093 115.508 45.158 115.991 44.609C118.127 42.186 121.367 42.244 124.324 41.991C123.23 41.491 122.014 41.278 120.979 40.666C120.572 40.427 120.097 39.935 120.64 39.521C121.372 38.963 122.397 38.955 123.411 39.164C123.007 38.872 122.697 38.504 122.688 38.039C122.658 36.528 125.391 36.846 126.207 37.032C127.232 37.265 128.325 37.608 129.251 38.166C127.07 36.472 124.169 35.691 121.483 35.615C116.203 35.464 111.107 36.402 106.426 38.825C106.016 39.037 105.617 39.271 105.224 39.509C106.625 38.89 108.002 38.211 109.438 37.673C111.255 36.992 113.172 36.561 115.102 36.356C116.764 36.181 118.687 36.037 120.311 36.557C120.836 36.726 121.193 37.213 120.732 37.645C120.072 38.264 118.794 38.406 117.954 38.582C116.935 38.793 115.924 39 114.912 39.267C113.22 39.712 112.486 41.189 114.833 40.803C116.136 40.588 117.533 40.218 118.778 40.839C118.918 40.908 118.906 41.121 118.778 41.194C115.076 43.317 110.202 42.903 107.02 46.057C106.805 46.27 106.168 46.884 106.784 47.041C107.297 47.173 107.842 47.15 108.365 47.107C108.848 47.068 109.327 46.989 109.81 46.936C110.91 46.817 112.629 46.486 113.637 47.121C114.51 47.672 113.963 48.693 113.309 49.184C112.673 49.664 111.807 50.012 111.282 50.62C110.682 51.314 112.986 51.31 113.366 51.377C113.792 51.451 115.06 51.213 114.815 51.681C114.26 52.745 108.663 53.52 106.807 53.532C103.28 53.555 97.8235 53.116 91.7215 51.79C91.6825 51.783 91.6425 51.797 91.6035 51.8C93.5195 52.653 95.5245 53.202 97.2225 53.485C101.609 54.22 106.423 54.849 110.897 54.414C115.868 53.93 123.929 52.1 127.95 48.563C125.496 49.491 122.916 50.068 120.278 49.965Z" fill="#30160A"/>
</g>
<g opacity="0.5">
<path d="M137.401 44.076C137.455 44.161 137.426 44.306 137.329 44.35C136.738 44.618 136.096 44.599 135.458 44.624C135.041 44.641 134.268 44.585 133.965 44.948C133.731 45.226 134.291 45.531 134.439 45.647C135.113 46.168 135.164 46.744 134.591 47.378C134.344 47.655 132.596 47.707 133.002 48.189C133.394 48.655 133.38 49.296 133.335 49.878C133.251 50.968 132.508 50.915 131.848 50.492C131.641 53.714 133.522 56.385 135.81 58.495C135.573 58.06 135.369 57.605 135.186 57.173C134.841 56.368 134.416 55.284 134.734 54.405C135.22 53.062 137.176 54.778 138.252 55.686C137.523 54.207 136.426 52.76 136.768 51.053C136.792 50.926 136.956 50.87 137.061 50.934C137.51 51.204 139.724 53.409 139.536 51.888C139.419 50.958 138.884 49.827 139.187 48.893C139.23 48.76 139.36 48.72 139.479 48.772C140.658 49.305 140.928 50.562 141.821 51.39C142.178 51.722 142.562 52.009 142.961 52.272C141.245 49.888 139.577 43.069 137.257 42.646C136.593 42.525 135.959 42.45 135.38 42.405C136.093 42.927 136.908 43.291 137.401 44.076Z" fill="#30160A"/>
</g>
<path d="M95.651 69.908C95.651 69.908 93.923 68.117 92.441 68.797C90.959 69.476 90.926 73.332 92.749 75.155C93.121 75.525 94.54 75.895 95.652 75.279L95.651 69.908Z" fill="#FDC088"/>
<path d="M94.4422 71.996C93.9212 71.439 93.4292 71.214 92.6842 71.18C92.6582 71.18 92.6572 71.224 92.6822 71.227C93.3392 71.305 93.9272 71.807 94.3042 72.316C94.6762 72.818 94.7812 73.429 95.0982 73.942C95.1812 74.076 95.3622 73.979 95.3642 73.846C95.3692 73.22 94.8552 72.437 94.4422 71.996Z" fill="#A5693C"/>
<path d="M94.2515 68.917C94.3555 69.11 94.4255 69.328 94.4665 69.565C94.5255 69.888 94.5765 70.554 94.2965 70.812C93.9995 71.088 93.6225 70.932 93.2765 70.837C93.0785 70.785 92.8295 70.69 92.6255 70.711C92.1345 70.762 92.1875 71.232 92.1735 71.528C92.1635 71.747 92.0985 71.911 91.9685 72.078C91.8965 72.173 91.7375 72.236 91.6455 72.12C91.5055 71.945 91.4145 71.76 91.3555 71.568C91.3945 72.839 91.8405 74.247 92.7465 75.154C93.1185 75.524 94.5375 75.894 95.6495 75.278V69.907C95.6495 69.907 95.0475 69.289 94.2515 68.917Z" fill="#D9AE91"/>
<path d="M134.725 70.34L135.095 75.278C135.095 75.278 135.713 75.709 137.687 74.475C139.663 73.24 140.033 70.771 140.033 69.105C140.033 67.438 137.009 65.771 135.279 69.969L134.725 70.34Z" fill="#FDC088"/>
<path d="M138.558 70.115C136.897 69.845 136.233 71.818 136.552 73.148C136.575 73.234 136.719 73.221 136.726 73.134C136.834 71.843 136.943 70.326 138.555 70.195C138.6 70.192 138.604 70.123 138.558 70.115Z" fill="#A5693C"/>
<path d="M139.917 70.022C139.809 70.158 139.623 70.057 139.572 69.931C139.056 68.672 137.805 69.019 136.998 69.79C136.811 69.972 136.305 70.473 136.017 70.149C135.712 69.807 135.826 69.163 136.039 68.578C135.769 68.946 135.512 69.402 135.278 69.969L134.723 70.339L135.093 75.277C135.093 75.277 135.711 75.708 137.685 74.474C139.368 73.421 139.886 71.472 140.001 69.888C139.974 69.934 139.948 69.98 139.917 70.022Z" fill="#D9AE91"/>
<path d="M94.5375 54.29C94.5375 54.29 111.08 59.846 129.229 49.721C129.229 49.721 128.735 53.302 136.143 60.71C136.143 60.71 135.649 68.117 135.277 69.97C135.277 69.97 135.465 71.143 135.711 71.945C135.957 72.747 137.193 78.798 128.86 83.798C120.525 88.797 117.995 90.217 114.229 90.217C110.464 90.217 102.993 87.316 98.6115 84.476C94.2285 81.636 94.2285 78.797 94.7835 75.587C95.3405 72.378 95.0925 71.204 94.4125 67.624C93.7345 64.044 92.1295 60.895 92.6245 58.488C93.1185 56.08 94.5375 54.29 94.5375 54.29Z" fill="#FDC088"/>
<path d="M112.715 77.563C111.491 77.029 110.249 76.439 109.632 75.169C109.166 74.21 110.106 73.748 110.798 73.393C111.274 73.147 111.634 72.863 111.932 72.416C111.976 72.351 111.893 72.282 111.839 72.339C110.874 73.33 108.668 73.26 109.103 75.137C109.458 76.661 111.292 77.531 112.676 77.69C112.749 77.698 112.787 77.595 112.715 77.563Z" fill="#A5693C"/>
<path d="M105.649 79.784C105.649 79.784 105.187 80.278 105.279 80.556C105.371 80.834 108.366 81.543 113.303 80.062C118.241 78.581 121.977 76.945 123.952 75.556C123.952 75.556 121.667 78.241 113.211 80.401C108.783 81.533 106.343 81.502 105.278 81.204C104.31 80.933 104.458 80.475 105.649 79.784Z" fill="#A5693C"/>
<path d="M103.552 59.937C102.398 59.359 100.9 59.882 100.535 61.194C100.306 62.017 100.337 62.864 100.353 63.709C100.424 63.997 100.527 64.246 100.695 64.382C101.058 64.675 101.73 63.477 101.931 63.282C102.225 62.997 102.496 62.784 102.869 62.613C104.066 62.06 105.29 62.997 106.183 63.887C105.807 62.372 104.901 60.613 103.552 59.937Z" fill="#D9AE91"/>
<path d="M119.071 58.356C118.126 59.226 117.697 60.944 117.502 62.19C117.384 62.939 117.748 63.363 118.428 62.253C118.737 61.327 119.955 60.304 120.774 60.339C122.255 60.401 122.625 61.08 123.507 61.853C123.825 62.134 124.859 62.617 125.061 61.67C125.123 61.383 125.11 61.101 125.004 60.826C124.818 60.348 124.536 59.912 124.195 59.528C122.842 58.002 120.909 56.667 119.071 58.356Z" fill="#D9AE91"/>
<path d="M114.773 75.468C113.283 75.32 111.59 75.7 110.172 75.116C108.745 74.527 110.19 73.505 111.105 72.807C109.692 73.322 107.905 74.283 107.629 75.727C107.345 77.196 109.48 77.991 110.575 78.335C112.029 78.789 113.499 78.788 114.694 77.72C115.036 77.412 116.157 76.542 115.924 75.972C115.768 75.579 115.129 75.504 114.773 75.468Z" fill="#D9AE91"/>
<path opacity="0.6" d="M135.278 69.97C135.65 68.117 136.144 60.71 136.144 60.71C128.736 53.302 129.23 49.721 129.23 49.721C111.081 59.845 94.5385 54.29 94.5385 54.29C94.5385 54.29 94.0895 54.855 93.6095 55.777C93.6835 55.716 93.7545 55.651 93.8385 55.599C94.8755 54.95 96.1245 55.146 97.2495 55.462C100.749 56.443 104.352 57.143 108.008 57.054C111.662 56.966 115.515 56.372 119.043 55.399C120.837 54.903 122.559 54.272 124.242 53.475C125.568 52.847 126.801 51.914 128.186 51.438C128.267 51.41 128.383 51.453 128.419 51.532C128.923 52.631 129.256 53.787 129.682 54.915C130.161 56.173 130.842 57.332 131.347 58.578C132.295 60.914 132.898 63.38 133.041 65.902C133.105 67.041 132.972 68.009 132.572 69.082C132.143 70.228 131.846 71.185 131.94 72.421C132.12 74.71 131.663 76.962 130.407 78.908C128.974 81.122 126.745 82.609 124.564 84.025C122.278 85.511 119.804 87.201 117.123 87.861C114.799 88.434 112.248 88.603 109.904 88.043C107.286 87.419 104.673 86.065 102.346 84.744C100.336 83.604 97.5295 82.174 96.4215 80.02C95.4805 78.195 95.9895 76.325 96.3765 74.423C97.0305 71.21 95.5135 68.422 94.4055 65.513C93.8475 64.05 93.2755 62.553 92.8605 61.043C92.6065 60.13 92.6205 59.277 92.6455 58.395C92.6395 58.426 92.6305 58.458 92.6245 58.49C92.1295 60.897 93.7345 64.046 94.4125 67.626C95.0925 71.207 95.3395 72.38 94.7835 75.589C94.2285 78.799 94.2285 81.638 98.6115 84.478C102.993 87.318 110.464 90.219 114.229 90.219C117.994 90.219 120.525 88.799 128.86 83.8C137.193 78.799 135.957 72.749 135.711 71.947C135.465 71.143 135.278 69.97 135.278 69.97Z" fill="#D9AE91"/>
<path d="M123.846 59.743C123.228 58.547 121.788 57.253 120.424 57.673C118.85 58.157 118.417 59.7 118.018 61.131C118.001 61.194 118.078 61.228 118.126 61.201C118.156 61.213 118.193 61.205 118.212 61.17C118.72 60.177 119.588 59.459 120.618 59.051C121.992 58.508 123.102 59.698 123.965 60.562C124.059 60.655 124.203 60.532 124.166 60.421C124.08 60.167 123.97 59.944 123.846 59.743Z" fill="#262212"/>
<path d="M104.957 61.996C105.005 61.538 104.063 60.629 103.83 60.415C103.235 59.864 102.529 59.555 101.724 59.842C100.678 60.213 100.591 61.723 100.678 62.629C100.679 62.637 100.684 62.641 100.687 62.648C100.698 62.718 100.71 62.787 100.727 62.856C100.741 62.905 100.811 62.892 100.819 62.849C101.012 61.923 101.306 61.209 102.319 60.992C103.294 60.783 104.292 61.404 104.841 62.184C104.914 62.136 104.95 62.072 104.957 61.996Z" fill="#262212"/>
<path d="M105.548 69.706C105.788 71.467 105.499 72.961 104.905 73.042C104.309 73.123 103.631 71.761 103.391 70.001C103.151 68.24 103.439 66.746 104.035 66.666C104.629 66.585 105.307 67.946 105.548 69.706Z" fill="#150E00"/>
<path d="M104.99 67.9569C105.185 68.6189 105.107 69.2259 104.813 69.3139C104.519 69.4009 104.121 68.9339 103.923 68.2729C103.728 67.6119 103.808 67.0039 104.102 66.9159C104.396 66.8289 104.793 67.2959 104.99 67.9569Z" fill="white"/>
<path d="M122.254 68.078C122.28 69.856 121.814 71.303 121.213 71.312C120.613 71.321 120.104 69.888 120.079 68.11C120.052 66.334 120.518 64.887 121.119 64.877C121.72 64.868 122.227 66.302 122.254 68.078Z" fill="#150E00"/>
<path d="M121.911 66.274C122.025 66.955 121.874 67.548 121.571 67.599C121.269 67.65 120.93 67.139 120.815 66.459C120.701 65.778 120.853 65.185 121.155 65.134C121.456 65.083 121.795 65.593 121.911 66.274Z" fill="white"/>
<path d="M105.438 81.243C105.581 81.424 105.788 81.727 106.064 82.237C106.667 83.349 107.687 85.756 108.659 86.218C109.631 86.682 112.129 87.469 114.907 86.912C117.684 86.357 120.882 84.69 122.131 83.765C123.381 82.839 123.381 81.867 123.52 81.033C123.635 80.335 123.944 77.304 123.771 75.738C123.09 76.378 120.353 78.576 113.211 80.401C108.986 81.482 106.574 81.503 105.438 81.243Z" fill="#33000C"/>
<path d="M123.771 75.739C123.091 76.379 120.354 78.577 113.212 80.402C110.336 81.137 108.304 81.38 106.938 81.38C107.298 82.467 107.951 83.26 108.796 83.86C108.575 84.629 108.527 85.398 108.574 86.168C108.602 86.185 108.631 86.205 108.66 86.219C109.632 86.683 112.132 87.47 114.91 86.913C117.687 86.358 120.884 84.691 122.132 83.766C123.382 82.84 123.382 81.868 123.521 81.034C123.636 80.336 123.945 77.305 123.771 75.739Z" fill="white"/>
<path d="M123.771 75.739C123.091 76.379 120.354 78.577 113.212 80.402C110.336 81.137 108.304 81.38 106.938 81.38C107.298 82.467 107.951 83.26 108.796 83.86C108.575 84.629 108.527 85.398 108.574 86.168C108.602 86.185 108.631 86.205 108.66 86.219C109.632 86.683 112.132 87.47 114.91 86.913C117.687 86.358 120.884 84.691 122.132 83.766C123.382 82.84 123.382 81.868 123.521 81.034C123.636 80.336 123.945 77.305 123.771 75.739ZM121.417 83.214C118.544 85.198 114.875 86.898 111.314 86.535C110.432 86.446 109.469 86.073 109.58 85.094C109.685 84.172 109.595 84.151 110.372 84.013C115.465 83.489 119.668 81.641 121.228 81.004C121.588 80.857 122.742 80.299 122.997 80.902C123.342 81.723 121.96 82.839 121.417 83.214ZM123.136 79.342C123.139 79.394 123.124 79.448 123.078 79.497C122.029 80.612 120.16 81.209 118.752 81.728C117.024 82.367 114.632 83.209 110.812 83.557C110.405 83.593 109.54 83.688 109.169 83.441C108.696 83.126 107.88 82.019 108.521 81.944C109.493 81.83 110.783 81.453 111.712 81.245C112.723 81.018 113.71 80.727 114.697 80.411C116.76 79.749 118.987 78.923 120.944 77.963C121.7 77.593 122.163 77.345 122.719 77.099C123.327 76.828 123.54 78.759 123.136 79.342Z" fill="#CCCAC7"/>
<path d="M108.795 83.86C108.795 83.86 114.815 84.183 122.64 80.108C122.64 80.108 115.09 85.065 108.795 83.86Z" fill="#93918D"/>
<path d="M104.406 145.098H24.123V147.287H104.406V145.098Z" fill="#AFAD93"/>
<path d="M101.429 144.373L101.628 143.381L97.5605 142.886V143.878L101.429 144.373Z" fill="#333433"/>
<path d="M89.6297 142.59L89.8297 141.598L85.7637 141.1V142.093L89.6297 142.59Z" fill="#333433"/>
<path d="M95.6765 143.579L95.8745 142.59L91.8125 142.093V143.084L95.6765 143.579Z" fill="#333433"/>
<path d="M81.5708 141.932L81.6768 140.989L77.8398 140.852L77.9178 141.779L81.5708 141.932Z" fill="#333433"/>
<path d="M76.4157 141.885L76.5207 140.942L72.6797 140.803L72.7627 141.729L76.4157 141.885Z" fill="#333433"/>
<path d="M71.5093 141.786L71.6123 140.84L67.7773 140.704L67.8553 141.63L71.5093 141.786Z" fill="#333433"/>
<path d="M65.7564 141.687L65.8654 140.744L62.0234 140.605L62.1034 141.531L65.7564 141.687Z" fill="#333433"/>
<path d="M59.5631 141.489L59.6681 140.545L55.8301 140.407L55.9081 141.334L59.5631 141.489Z" fill="#333433"/>
<path d="M53.2662 141.341L53.3722 140.398L49.5332 140.258L49.6122 141.182L53.2662 141.341Z" fill="#333433"/>
<path d="M48.7574 141.189L48.8604 140.25L45.0234 140.11L45.1044 141.035L48.7574 141.189Z" fill="#333433"/>
<path d="M101.484 145.116L102.774 146.037L42.8117 144.793L40.0547 142.033L83.4097 142.279L101.484 145.116Z" fill="#454745"/>
<path d="M83.9797 142.361L83.2267 141.484L40.0547 140.577V142.033L82.9797 143.294L83.9797 142.361Z" fill="#6B6B6B"/>
<path d="M83.2273 141.492L82.9766 143.301L102.773 146.045L103.023 144.236L83.2273 141.492Z" fill="#9A9997"/>
<path d="M82.9549 144.175L82.7239 146.619L82.0299 146.654L35.5039 144.769L35.7679 142.26L82.9549 144.175Z" fill="#333433"/>
<path d="M82.0302 144.175V146.686L34.5762 144.769L34.8412 142.26L82.0302 144.175Z" fill="#9A9997"/>
<path d="M82.0303 144.175L82.0953 145.465L34.6113 142.886L34.8413 142.26L82.0303 144.175Z" fill="#6B6B6B"/>
<path d="M102.877 144.378L83.0801 141.633L102.817 144.821L102.877 144.378Z" fill="#9A9997"/>
<path d="M68.7251 92.883C68.7251 92.883 71.1541 92.671 71.2031 95.103C71.2521 97.535 70.0521 134.682 70.0521 134.682C70.0521 134.682 70.4561 138.564 68.1891 138.609L18.8331 137.662C18.8331 137.662 14.6221 137.964 14.2841 134.509C14.0591 132.23 14.1131 93.823 14.1131 93.823C14.1131 93.823 14.2401 92.036 17.1451 91.652L68.7251 92.883Z" fill="#7F7E7C"/>
<path d="M70.581 118.037C70.312 126.789 70.054 134.682 70.054 134.682C70.054 134.682 70.458 138.564 68.191 138.609L18.835 137.662C18.835 137.662 14.624 137.964 14.286 134.509C14.191 133.553 14.146 126.219 14.125 118.037H70.581Z" fill="#454745"/>
<path d="M65.66 96.187L70.587 93.494C70.929 93.825 71.186 94.33 71.205 95.104C71.254 97.536 70.054 134.683 70.054 134.683C70.054 134.683 70.323 137.26 69.194 138.241L64.166 134.8L65.66 96.187Z" fill="#9A9997"/>
<path d="M14.115 93.823C14.115 93.823 14.187 92.857 15.382 92.192L16.239 94.699L16.829 134.675C16.829 134.675 15.904 135.597 15.108 136.423C14.682 135.965 14.368 135.35 14.287 134.509C14.061 132.23 14.115 93.823 14.115 93.823Z" fill="#585958"/>
<path d="M65.1401 96.575C65.1401 96.575 67.3151 96.384 67.3571 98.562C67.4021 100.742 66.3291 134.04 66.3291 134.04C66.3291 134.04 66.6901 137.52 64.6561 137.561L20.4151 136.712C20.4151 136.712 16.6411 136.98 16.3371 133.887C16.1351 131.841 16.1801 97.414 16.1801 97.414C16.1801 97.414 16.2931 95.813 18.9041 95.47L65.1401 96.575Z" fill="#6B6B6B"/>
<path opacity="0.4" d="M16.5162 121.711C18.4272 123.222 20.6132 124.432 22.8232 125.45C27.8182 127.757 33.2602 128.986 38.7542 129.174C42.8932 129.318 47.0812 129.056 51.1792 128.446C56.3762 127.675 62.0752 126.239 66.6682 123.331C66.4832 129.329 66.3302 134.04 66.3302 134.04C66.3302 134.04 66.6912 137.52 64.6572 137.561L20.4162 136.712C20.4162 136.712 16.6422 136.98 16.3382 133.887C16.2622 133.12 16.2222 127.802 16.2012 121.454C16.3052 121.541 16.4132 121.625 16.5162 121.711Z" fill="#6B6B6B"/>
<path opacity="0.5" d="M65.7585 109.202C65.2295 108.002 64.6535 106.807 63.9545 105.695C63.3685 104.764 62.7345 104.142 61.7635 103.602C59.8985 102.553 57.7745 102.007 55.6725 101.658C53.3965 101.283 51.0885 101.118 48.7805 101.034C46.5075 100.951 44.2335 100.942 41.9615 100.852C38.9025 100.734 35.8425 100.539 32.7815 100.562C29.9145 100.585 26.8985 100.701 24.1225 101.469C22.3045 101.972 20.7265 103.025 19.6135 104.555C18.3725 106.263 17.6685 108.266 17.1985 110.342C17.1945 104.057 17.2015 98.995 17.2015 98.995C17.2015 98.995 17.3115 97.459 19.8175 97.129L64.2485 98.187C64.2485 98.187 66.3415 98.005 66.3835 100.101C66.3985 100.807 66.2905 104.931 66.1395 110.086C66.0155 109.789 65.8895 109.493 65.7585 109.202Z" fill="#9A9997"/>
<path opacity="0.6" d="M32.727 115.557L33.371 113.691L50.324 113.394L49.829 116.616L49.249 136.971L49.977 138.129H31.834L32.727 115.557Z" fill="#565756"/>
<path d="M27.3499 123.186C28.5519 118.406 29.8919 115.242 33.5449 113.98L49.7459 113.656L46.8819 116.415L43.9929 123.174C43.9929 123.174 42.6899 138.977 42.8689 142.328C43.0439 145.672 45.4349 146.434 45.4349 146.434C45.4349 146.434 29.5219 146.813 29.4729 146.813C29.4729 146.813 27.9439 146.767 27.1099 146.104C26.6459 145.742 26.3419 145.199 26.1579 144.392C25.5639 141.809 26.1509 127.965 27.3499 123.186Z" fill="#9A9997"/>
<path opacity="0.2" d="M44.8725 121.122L27.8145 121.465C28.9235 117.643 30.3525 115.083 33.5455 113.98L49.7465 113.656L46.8825 116.415L44.8725 121.122Z" fill="#9A9997"/>
<path opacity="0.2" d="M42.8627 140.665C42.8487 141.36 42.8487 141.93 42.8707 142.328C43.0457 145.672 45.4367 146.434 45.4367 146.434C45.4367 146.434 29.5237 146.813 29.4747 146.813C29.4747 146.813 27.9457 146.767 27.1117 146.104C26.6477 145.742 26.3437 145.199 26.1597 144.392C26.0207 143.79 25.9457 142.576 25.9297 141.006L42.8627 140.665Z" fill="#9A9997"/>
<path d="M43.3927 144.472C44.1467 146.021 45.4357 146.433 45.4357 146.433C45.4357 146.433 29.5227 146.812 29.4737 146.812C29.4737 146.812 27.9447 146.766 27.1107 146.103C26.6617 145.754 26.3647 145.233 26.1777 144.472H43.3927Z" fill="#515251"/>
<path d="M49.3584 115.824C49.3584 115.824 44.9864 118.613 44.4044 127.272C43.8214 135.931 42.7924 143.95 44.7614 144.991C46.7264 146.031 56.0054 145.302 56.0054 145.302L56.1364 146.382L45.7614 146.482C45.7614 146.482 42.9544 146.648 42.3634 144.068C41.7724 141.484 42.3574 127.638 43.5574 122.858C44.7594 118.078 46.1004 114.92 49.7464 113.657L49.3584 115.824Z" fill="#7F7E7C"/>
<path d="M68.9432 93.549C70.1152 93.799 70.5182 94.739 70.6562 95.392C70.7372 95.731 70.7942 96.207 70.7942 96.888C70.7942 99.266 69.7052 134.857 69.7052 134.857C69.7052 134.857 69.7052 137.334 68.9122 137.334C68.9122 137.334 69.3092 136.542 69.3092 134.064C69.3092 131.584 70.1012 97.48 70.1012 97.48C70.1012 97.48 70.0452 96.221 69.7732 95.491C69.6892 95.317 69.5882 95.165 69.4702 95.032C69.4492 95.02 69.4282 95.01 69.4082 95.003C69.2452 94.949 69.2252 94.894 69.2792 94.845C68.4972 94.171 67.3562 94.209 67.3562 94.209L16.8652 92.23C16.8652 92.23 67.0932 93.154 68.9432 93.549Z" fill="white"/>
<path d="M49.745 113.656C49.745 113.656 45.576 114.699 44.157 119.902C42.249 126.917 42.739 128.408 42.293 135.253C42.293 135.253 43.036 124.745 44.92 119.439C46.756 114.271 49.745 113.656 49.745 113.656Z" fill="white"/>
<path d="M65.4355 22.963H12.7695V74.221H65.4355V22.963Z" fill="#788093"/>
<path d="M61.9878 26.317H16.2148V70.868H61.9878V26.317Z" fill="#FDF5EA"/>
<path d="M58.269 51.519L54.921 41.2C54.87 41.045 54.788 40.909 54.683 40.795C54.649 40.752 54.604 40.713 54.552 40.674C54.432 40.582 54.293 40.514 54.145 40.475C53.052 40.086 50.782 40.007 49.753 39.992V39.989H49.225V39.992C48.196 40.007 45.926 40.086 44.834 40.475C44.686 40.514 44.548 40.581 44.429 40.674C44.375 40.713 44.33 40.753 44.295 40.795C44.19 40.909 44.107 41.045 44.057 41.2L40.708 51.519C40.519 52.101 40.845 52.728 41.436 52.919C42.026 53.111 42.656 52.796 42.845 52.214L45.482 44.093C45.482 44.093 45.698 51.026 45.698 51.127V64.138C45.698 65.015 46.347 65.724 47.152 65.724C47.957 65.724 48.609 65.014 48.609 64.138V53.45C48.609 53.45 48.61 52.873 49.49 52.862C50.369 52.873 50.371 53.45 50.371 53.45V64.138C50.371 65.015 51.024 65.724 51.826 65.724C52.632 65.724 53.282 65.014 53.282 64.138V51.127C53.282 51.026 53.497 44.093 53.497 44.093L56.134 52.214C56.323 52.796 56.955 53.111 57.543 52.919C58.133 52.728 58.459 52.101 58.269 51.519Z" fill="#A5DCBF"/>
<path d="M51.9498 41.54C50.8978 41.232 50.6308 42.377 50.6288 42.382C50.6268 42.378 50.3548 41.233 49.3058 41.54C48.2538 41.849 47.8568 43.447 50.6288 45.019C53.3998 43.447 53.0008 41.849 51.9498 41.54Z" fill="#19A7C3"/>
<path d="M51.8756 41.537C50.8866 41.246 50.6316 42.326 50.6296 42.331C50.6276 42.326 50.3726 41.246 49.3826 41.537C48.3896 41.828 48.0146 43.334 50.6296 44.816C53.2416 43.334 52.8666 41.828 51.8756 41.537Z" fill="#EE0007"/>
<path d="M54.3592 34.831C54.3592 37.521 52.1782 39.7 49.4882 39.7C46.7982 39.7 44.6172 37.52 44.6172 34.831C44.6172 32.141 46.7982 29.961 49.4882 29.961C52.1782 29.961 54.3592 32.141 54.3592 34.831Z" fill="#A5DCBF"/>
<path d="M49.4882 29.961C46.7982 29.961 44.6172 32.141 44.6172 34.831C44.6172 37.521 46.7982 39.7 49.4882 39.7C52.1782 39.7 54.3592 37.52 54.3592 34.831C54.3592 32.141 52.1772 29.961 49.4882 29.961ZM49.4882 39.292C46.9542 39.292 44.9012 37.239 44.9012 34.705C44.9012 32.171 46.9552 30.117 49.4882 30.117C52.0212 30.117 54.0762 32.171 54.0762 34.705C54.0762 37.239 52.0212 39.292 49.4882 39.292Z" fill="#A5DCBF"/>
<path opacity="0.5" d="M47.0371 36.181C47.1231 37.47 48.1891 38.49 49.4921 38.49C50.7961 38.49 51.8631 37.467 51.9471 36.175C50.3111 36.177 48.6751 36.18 47.0371 36.181Z" fill="#242424"/>
<path d="M47.0234 36.116C47.1104 37.406 48.1744 38.425 49.4764 38.425C50.7804 38.425 51.8494 37.403 51.9314 36.11C50.2964 36.111 48.6604 36.114 47.0234 36.116Z" fill="white"/>
<path opacity="0.5" d="M48.4977 34.315C48.4977 34.53 48.3237 34.705 48.1097 34.705C47.8947 34.705 47.7207 34.53 47.7207 34.315C47.7207 34.1 47.8947 33.926 48.1097 33.926C48.3237 33.926 48.4977 34.101 48.4977 34.315Z" fill="#242424"/>
<path opacity="0.5" d="M51.2663 34.315C51.2663 34.53 51.0913 34.705 50.8763 34.705C50.6613 34.705 50.4883 34.53 50.4883 34.315C50.4883 34.1 50.6613 33.926 50.8763 33.926C51.0913 33.926 51.2663 34.101 51.2663 34.315Z" fill="#242424"/>
<path d="M48.4841 34.249C48.4841 34.465 48.3091 34.639 48.0941 34.639C47.8801 34.639 47.7051 34.465 47.7051 34.249C47.7051 34.034 47.8801 33.86 48.0941 33.86C48.3101 33.861 48.4841 34.035 48.4841 34.249Z" fill="white"/>
<path d="M51.2527 34.249C51.2527 34.465 51.0777 34.639 50.8627 34.639C50.6467 34.639 50.4727 34.465 50.4727 34.249C50.4727 34.034 50.6467 33.86 50.8627 33.86C51.0777 33.861 51.2527 34.035 51.2527 34.249Z" fill="white"/>
<g opacity="0.5">
<path d="M45.5078 64.074C45.5148 64.142 45.5248 64.209 45.5358 64.271C45.4968 63.896 45.4758 63.733 45.5078 64.074Z" fill="#242424"/>
</g>
<path d="M30.7301 30.034H27.1621V40.227H30.7301V30.034Z" fill="#A5DCBF"/>
<path d="M34.0426 33.346H23.8496V36.915H34.0426V33.346Z" fill="#A5DCBF"/>
<path d="M37.3179 44.205H19.8789V46.511H37.3179V44.205Z" fill="#A5DCBF"/>
<path d="M26.9509 48.307H19.8789V50.616H26.9509V48.307Z" fill="#A5DCBF"/>
<path d="M33.2509 52.41H19.8789V54.718H33.2509V52.41Z" fill="#A5DCBF"/>
<path d="M26.1389 56.513H19.8789V58.821H26.1389V56.513Z" fill="#A5DCBF"/>
<path d="M37.3179 60.616H19.8789V62.925H37.3179V60.616Z" fill="#A5DCBF"/>
</g>
<defs>
<clipPath id="clip0_36715_2099">
<rect width="232.713" height="232.712" fill="white"/>
</clipPath>
</defs>
</svg>
