<svg width="16" height="13" viewBox="0 0 16 13" fill="none" xmlns="http://www.w3.org/2000/svg">
<path d="M15.8299 1.52682C15.3813 2.18307 14.8389 2.74222 14.2027 3.20428C14.2094 3.29803 14.2128 3.43865 14.2128 3.62615C14.2128 4.49669 14.0855 5.36722 13.8311 6.23776C13.5766 7.1016 13.1882 7.93195 12.6659 8.72883C12.1503 9.5257 11.5342 10.2322 10.8177 10.8482C10.1011 11.4576 9.23731 11.9465 8.22614 12.3148C7.21498 12.6764 6.13351 12.8572 4.98172 12.8572C3.16699 12.8572 1.50628 12.3717 -0.000418503 11.4007C0.233957 11.4275 0.495117 11.4409 0.783064 11.4409C2.28976 11.4409 3.63239 10.9788 4.81097 10.0547C4.10784 10.0413 3.47838 9.82704 2.92257 9.41186C2.36677 8.98999 1.98507 8.45428 1.77748 7.80472C1.99847 7.8382 2.20271 7.85495 2.39021 7.85495C2.67815 7.85495 2.96275 7.81812 3.244 7.74445C2.494 7.59044 1.87123 7.21878 1.3757 6.6295C0.886858 6.03352 0.642439 5.34378 0.642439 4.5603V4.52012C1.0978 4.77459 1.58664 4.91186 2.10896 4.93195C1.66699 4.63731 1.31543 4.25227 1.05427 3.77682C0.793108 3.30137 0.662528 2.78575 0.662528 2.22994C0.662528 1.64066 0.809849 1.0949 1.10449 0.592669C1.91476 1.59044 2.89914 2.39066 4.05762 2.99334C5.2228 3.58932 6.46833 3.92079 7.79422 3.98776C7.74065 3.73329 7.71387 3.48553 7.71387 3.24445C7.71387 2.34713 8.0286 1.58374 8.65806 0.954275C9.29422 0.318115 10.061 3.45707e-05 10.9583 3.45707e-05C11.8958 3.45707e-05 12.686 0.341552 13.3288 1.02459C14.0587 0.883963 14.7451 0.622802 15.388 0.241106C15.1402 1.0112 14.6648 1.60718 13.9616 2.02905C14.5844 1.96209 15.2072 1.79468 15.8299 1.52682Z" fill="white"/>
</svg>
